<svg width="1297" height="224" viewBox="0 0 1297 224" fill="none" xmlns="http://www.w3.org/2000/svg">
<path d="M1044.65 91.2113C1035.43 91.2113 1027.73 98.0315 1025.91 107.114C1025.82 107.582 1025.18 107.582 1025.09 107.114C1023.27 98.0315 1015.57 91.2113 1006.35 91.2113C988.741 91.2113 980.464 113.974 993.617 126.218L1023.45 153.987C1024.62 155.076 1026.38 155.076 1027.55 153.987L1057.38 126.218C1070.54 113.974 1062.26 91.2113 1044.65 91.2113Z" fill="#FE646F"/>
<path d="M1044.65 91.2108C1043.58 91.2108 1042.54 91.3031 1041.52 91.4784C1056.85 94.0598 1063.33 114.751 1051.01 126.218L1022.32 152.932L1023.45 153.987C1024.62 155.075 1026.38 155.075 1027.55 153.987L1057.38 126.218C1070.54 113.974 1062.26 91.2108 1044.65 91.2108Z" fill="#FD4755"/>
<path d="M1044.65 91.2106C1035.43 91.2106 1027.73 98.0308 1025.91 107.113C1025.82 107.581 1025.18 107.581 1025.09 107.113C1023.27 98.0308 1015.57 91.2106 1006.35 91.2106C988.741 91.2106 980.464 113.974 993.617 126.218L1023.45 153.986C1024.62 155.075 1026.38 155.075 1027.55 153.986L1057.38 126.218C1070.54 113.974 1062.26 91.2106 1044.65 91.2106Z" fill="#FE646F"/>
<path d="M1044.65 91.2108C1043.58 91.2108 1042.54 91.3031 1041.52 91.4784C1056.85 94.0598 1063.33 114.751 1051.01 126.218L1022.32 152.932L1023.45 153.987C1024.62 155.075 1026.38 155.075 1027.55 153.987L1057.38 126.218C1070.54 113.974 1062.26 91.2108 1044.65 91.2108Z" fill="#FD4755"/>
<path d="M1022.68 154.891C991.154 125.546 992.221 126.516 992.221 126.516C988.209 122.483 986 117.121 986 111.417C986 103.914 989.8 96.6139 996.169 92.777C996.723 92.4434 997.43 92.6426 997.749 93.2221C998.068 93.8015 997.878 94.5418 997.324 94.8754C991.767 98.2235 988.314 104.562 988.314 111.417C988.314 116.456 990.271 121.198 993.824 124.77C993.824 124.77 992.763 123.802 1024.22 153.082C1024.57 153.411 1025.03 153.592 1025.5 153.592C1025.97 153.592 1026.43 153.411 1026.78 153.082L1036.34 144.189C1036.81 143.745 1037.54 143.789 1037.97 144.289C1038.39 144.788 1038.35 145.554 1037.87 145.998L1028.32 154.891C1026.71 156.389 1024.29 156.386 1022.68 154.891ZM1041.14 142.549C1040.82 142.549 1040.5 142.412 1040.27 142.143C1039.85 141.643 1039.89 140.878 1040.37 140.433L1056.61 125.313C1059.98 122.18 1062.03 118.151 1062.56 113.661C1062.56 113.66 1062.56 113.659 1062.56 113.658C1063.73 103.5 1056.71 92.4214 1044.65 92.4214C1036.18 92.4214 1028.78 98.7047 1027.04 107.362C1026.89 108.135 1026.25 108.675 1025.5 108.675C1024.75 108.675 1024.11 108.135 1023.96 107.361C1022.22 98.7047 1014.82 92.4214 1006.35 92.4214C1004.86 92.4214 1003.4 92.5951 1002.01 92.9377C1001.39 93.0913 1000.77 92.6878 1000.62 92.0371C1000.48 91.3862 1000.86 90.7343 1001.48 90.5808C1003.05 90.1953 1004.68 90 1006.35 90C1014.94 90 1022.62 95.6676 1025.5 104.172C1028.39 95.6459 1036.08 90 1044.65 90C1057.75 90 1066.23 102.036 1064.85 113.95C1064.85 113.951 1064.85 113.952 1064.85 113.953C1064.26 119.037 1061.94 123.591 1058.15 127.122L1041.91 142.242C1041.69 142.448 1041.41 142.549 1041.14 142.549Z" fill="black"/>
<path d="M870.5 52.6172C869.933 52.6172 869.475 52.1455 869.475 51.5625V43.0547C869.475 42.4717 869.933 42 870.5 42C871.067 42 871.525 42.4717 871.525 43.0547V51.5625C871.525 52.1455 871.067 52.6172 870.5 52.6172Z" fill="#FED843"/>
<path d="M870.5 78C869.933 78 869.475 77.5283 869.475 76.9453V68.4375C869.475 67.8545 869.933 67.3828 870.5 67.3828C871.067 67.3828 871.525 67.8545 871.525 68.4375V76.9453C871.525 77.5283 871.067 78 870.5 78Z" fill="#FED843"/>
<path d="M866.477 52.5729L864.938 48.6611C864.726 48.1214 864.981 47.5065 865.505 47.2882C866.03 47.0698 866.627 47.3294 866.841 47.8701L868.379 51.7819C868.591 52.3216 868.337 52.9365 867.812 53.1548C867.286 53.3738 866.69 53.1112 866.477 52.5729Z" fill="#DD99FF"/>
<path d="M874.159 72.13L872.621 68.2181C872.409 67.6784 872.663 67.0635 873.188 66.8452C873.712 66.6248 874.309 66.8875 874.523 67.4271L876.062 71.3389C876.274 71.8787 876.019 72.4935 875.495 72.7119C874.969 72.9308 874.372 72.6682 874.159 72.13Z" fill="#CC66FF"/>
<path d="M863.975 54.7791L858.173 48.8135C857.773 48.4015 857.773 47.7341 858.173 47.3221C858.574 46.9101 859.223 46.9101 859.623 47.3221L865.425 53.2877C865.826 53.6996 865.826 54.3671 865.425 54.7791C865.025 55.191 864.376 55.1911 863.975 54.7791Z" fill="#FED843"/>
<path d="M881.377 72.6779L875.575 66.7123C875.174 66.3003 875.174 65.6329 875.575 65.2209C875.975 64.8089 876.624 64.8089 877.025 65.2209L882.827 71.1865C883.227 71.5984 883.227 72.2659 882.827 72.6779C882.426 73.0898 881.777 73.0898 881.377 72.6779Z" fill="#FABE2C"/>
<path d="M862.297 61.0547H854.025C853.459 61.0547 853 60.583 853 60C853 59.417 853.459 58.9453 854.025 58.9453H862.297C862.864 58.9453 863.322 59.417 863.322 60C863.322 60.583 862.864 61.0547 862.297 61.0547Z" fill="#FED843"/>
<path d="M886.975 61.0547H878.703C878.136 61.0547 877.678 60.583 877.678 60C877.678 59.417 878.136 58.9453 878.703 58.9453H886.975C887.541 58.9453 888 59.417 888 60C888 60.583 887.541 61.0547 886.975 61.0547Z" fill="#FABE2C"/>
<path d="M858.173 72.6779C857.773 72.2659 857.773 71.5984 858.173 71.1865L863.975 65.2209C864.376 64.8089 865.025 64.8089 865.425 65.2209C865.826 65.6329 865.826 66.3003 865.425 66.7123L859.623 72.6779C859.223 73.0898 858.574 73.0898 858.173 72.6779Z" fill="#FED843"/>
<path d="M875.575 54.7791C875.174 54.3671 875.174 53.6996 875.575 53.2877L881.377 47.3221C881.777 46.9101 882.426 46.9101 882.827 47.3221C883.227 47.7341 883.227 48.4015 882.827 48.8135L877.025 54.7791C876.624 55.191 875.975 55.1911 875.575 54.7791Z" fill="#FABE2C"/>
<path d="M876.646 76.7009C877.212 76.7009 877.671 76.2287 877.671 75.6462C877.671 75.0637 877.212 74.5915 876.646 74.5915C876.08 74.5915 875.621 75.0637 875.621 75.6462C875.621 76.2287 876.08 76.7009 876.646 76.7009Z" fill="#FF3377"/>
<path d="M864.354 45.4085C864.92 45.4085 865.379 44.9363 865.379 44.3538C865.379 43.7713 864.92 43.2991 864.354 43.2991C863.788 43.2991 863.329 43.7713 863.329 44.3538C863.329 44.9363 863.788 45.4085 864.354 45.4085Z" fill="#FF6699"/>
<path d="M862.549 57.6744L858.772 56.0264C858.251 55.7988 858.007 55.1797 858.229 54.6431C858.45 54.1065 859.058 53.8583 859.573 54.0838L863.35 55.7318C863.871 55.9594 864.115 56.5785 863.893 57.1151C863.672 57.6546 863.066 57.8994 862.549 57.6744Z" fill="#DD99FF"/>
<path d="M881.427 65.9162L877.65 64.2682C877.129 64.0406 876.885 63.4215 877.107 62.8849C877.327 62.3473 877.934 62.1021 878.451 62.3256L882.228 63.9736C882.749 64.2012 882.993 64.8203 882.771 65.3569C882.55 65.8964 881.944 66.1412 881.427 65.9162Z" fill="#CC66FF"/>
<path d="M885.602 67.6483C886.168 67.6483 886.627 67.1761 886.627 66.5936C886.627 66.0111 886.168 65.5389 885.602 65.5389C885.036 65.5389 884.577 66.0111 884.577 66.5936C884.577 67.1761 885.036 67.6483 885.602 67.6483Z" fill="#FF3377"/>
<path d="M855.398 54.4611C855.964 54.4611 856.423 53.9889 856.423 53.4064C856.423 52.8239 855.964 52.3517 855.398 52.3517C854.832 52.3517 854.373 52.8239 854.373 53.4064C854.373 53.9889 854.832 54.4611 855.398 54.4611Z" fill="#FF6699"/>
<path d="M858.139 65.1354C857.927 64.5957 858.181 63.9808 858.706 63.7635L862.509 62.1835C863.032 61.9631 863.631 62.2247 863.845 62.7664C864.057 63.3062 863.803 63.921 863.278 64.1384L859.475 65.7184C858.947 65.9381 858.351 65.673 858.139 65.1354Z" fill="#DD99FF"/>
<path d="M877.155 57.2335C876.943 56.6938 877.197 56.0789 877.722 55.8615L881.525 54.2816C882.048 54.0601 882.647 54.3228 882.861 54.8645C883.073 55.4042 882.819 56.0191 882.294 56.2365L878.491 57.8164C877.963 58.0362 877.367 57.7711 877.155 57.2335Z" fill="#CC66FF"/>
<path d="M885.712 54.7332C886.278 54.7332 886.737 54.261 886.737 53.6785C886.737 53.096 886.278 52.6238 885.712 52.6238C885.145 52.6238 884.686 53.096 884.686 53.6785C884.686 54.261 885.145 54.7332 885.712 54.7332Z" fill="#FF3377"/>
<path d="M855.288 67.3762C855.855 67.3762 856.314 66.904 856.314 66.3215C856.314 65.739 855.855 65.2668 855.288 65.2668C854.722 65.2668 854.263 65.739 854.263 66.3215C854.263 66.904 854.722 67.3762 855.288 67.3762Z" fill="#FF6699"/>
<path d="M865.291 72.6202C864.77 72.3926 864.526 71.7735 864.748 71.238L866.352 67.355C866.575 66.8174 867.18 66.567 867.696 66.7968C868.217 67.0244 868.461 67.6434 868.239 68.179L866.635 72.062C866.41 72.6041 865.803 72.8471 865.291 72.6202Z" fill="#DD99FF"/>
<path d="M873.304 53.2032C872.783 52.9756 872.539 52.3566 872.761 51.821L874.365 47.938C874.586 47.4014 875.19 47.1522 875.709 47.3798C876.23 47.6074 876.474 48.2265 876.252 48.762L874.648 52.645C874.423 53.1871 873.816 53.4301 873.304 53.2032Z" fill="#CC66FF"/>
<path d="M876.91 45.5212C877.477 45.5212 877.936 45.049 877.936 44.4665C877.936 43.884 877.477 43.4118 876.91 43.4118C876.344 43.4118 875.885 43.884 875.885 44.4665C875.885 45.049 876.344 45.5212 876.91 45.5212Z" fill="#FF3377"/>
<path d="M864.09 76.5882C864.656 76.5882 865.115 76.116 865.115 75.5335C865.115 74.951 864.656 74.4788 864.09 74.4788C863.523 74.4788 863.064 74.951 863.064 75.5335C863.064 76.116 863.523 76.5882 864.09 76.5882Z" fill="#FF6699"/>
<path d="M870.5 65.2734C869.933 65.2734 869.475 64.8017 869.475 64.2188C869.475 62.474 868.095 61.0547 866.398 61.0547C865.832 61.0547 865.373 60.583 865.373 60C865.373 59.417 865.832 58.9453 866.398 58.9453C868.095 58.9453 869.475 57.526 869.475 55.7812C869.475 55.1983 869.933 54.7266 870.5 54.7266C871.067 54.7266 871.525 55.1983 871.525 55.7812C871.525 57.526 872.905 58.9453 874.602 58.9453C875.168 58.9453 875.627 59.417 875.627 60C875.627 60.583 875.168 61.0547 874.602 61.0547C872.905 61.0547 871.525 62.474 871.525 64.2188C871.525 64.8017 871.067 65.2734 870.5 65.2734Z" fill="#FF6699"/>
<path d="M871.525 76.9453V68.4375C871.525 67.8545 871.067 67.3828 870.5 67.3828V78C871.067 78 871.525 77.5283 871.525 76.9453Z" fill="#FABE2C"/>
<path d="M871.525 51.5625V43.0547C871.525 42.4717 871.067 42 870.5 42V52.6172C871.067 52.6172 871.525 52.1455 871.525 51.5625Z" fill="#FABE2C"/>
<path d="M871.525 64.2188C871.525 62.474 872.905 61.0547 874.602 61.0547C875.168 61.0547 875.627 60.583 875.627 60C875.627 59.417 875.168 58.9453 874.602 58.9453C872.905 58.9453 871.525 57.526 871.525 55.7812C871.525 55.1983 871.067 54.7266 870.5 54.7266V65.2734C871.067 65.2734 871.525 64.8017 871.525 64.2188Z" fill="#FF3377"/>
<path d="M476 194.387C475.32 194.387 474.77 193.836 474.77 193.156V183.23C474.77 182.55 475.32 182 476 182C476.68 182 477.23 182.55 477.23 183.23V193.156C477.23 193.836 476.68 194.387 476 194.387Z" fill="#FED843"/>
<path d="M476 224C475.32 224 474.77 223.45 474.77 222.77V212.844C474.77 212.164 475.32 211.613 476 211.613C476.68 211.613 477.23 212.164 477.23 212.844V222.77C477.23 223.45 476.68 224 476 224Z" fill="#FED843"/>
<path d="M471.172 194.335L469.326 189.771C469.071 189.142 469.377 188.424 470.006 188.169C470.636 187.915 471.352 188.218 471.609 188.848L473.455 193.412C473.71 194.042 473.405 194.759 472.775 195.014C472.144 195.269 471.427 194.963 471.172 194.335Z" fill="#DD99FF"/>
<path d="M480.391 217.152L478.545 212.588C478.29 211.958 478.595 211.241 479.225 210.986C479.855 210.729 480.571 211.035 480.828 211.665L482.674 216.229C482.929 216.858 482.623 217.576 481.994 217.831C481.363 218.086 480.646 217.78 480.391 217.152Z" fill="#CC66FF"/>
<path d="M468.17 196.909L461.208 189.949C460.727 189.468 460.727 188.69 461.208 188.209C461.689 187.729 462.467 187.729 462.948 188.209L469.91 195.169C470.391 195.65 470.391 196.428 469.91 196.909C469.429 197.39 468.651 197.39 468.17 196.909Z" fill="#FED843"/>
<path d="M489.052 217.791L482.09 210.831C481.609 210.35 481.609 209.572 482.09 209.091C482.57 208.61 483.349 208.61 483.83 209.091L490.792 216.051C491.273 216.532 491.273 217.31 490.792 217.791C490.311 218.272 489.533 218.272 489.052 217.791Z" fill="#FABE2C"/>
<path d="M466.156 204.23H456.23C455.55 204.23 455 203.68 455 203C455 202.32 455.55 201.77 456.23 201.77H466.156C466.836 201.77 467.387 202.32 467.387 203C467.387 203.68 466.836 204.23 466.156 204.23Z" fill="#FED843"/>
<path d="M495.77 204.23H485.844C485.164 204.23 484.613 203.68 484.613 203C484.613 202.32 485.164 201.77 485.844 201.77H495.77C496.45 201.77 497 202.32 497 203C497 203.68 496.45 204.23 495.77 204.23Z" fill="#FABE2C"/>
<path d="M461.208 217.791C460.727 217.31 460.727 216.532 461.208 216.051L468.17 209.091C468.651 208.61 469.43 208.61 469.91 209.091C470.391 209.572 470.391 210.35 469.91 210.831L462.948 217.791C462.467 218.272 461.689 218.272 461.208 217.791Z" fill="#FED843"/>
<path d="M482.09 196.909C481.609 196.428 481.609 195.65 482.09 195.169L489.052 188.209C489.533 187.729 490.311 187.729 490.792 188.209C491.273 188.69 491.273 189.468 490.792 189.949L483.83 196.909C483.349 197.39 482.571 197.39 482.09 196.909Z" fill="#FABE2C"/>
<path d="M483.375 222.484C484.055 222.484 484.606 221.933 484.606 221.254C484.606 220.574 484.055 220.023 483.375 220.023C482.696 220.023 482.145 220.574 482.145 221.254C482.145 221.933 482.696 222.484 483.375 222.484Z" fill="#FF3377"/>
<path d="M468.625 185.977C469.304 185.977 469.855 185.426 469.855 184.746C469.855 184.067 469.304 183.516 468.625 183.516C467.945 183.516 467.394 184.067 467.394 184.746C467.394 185.426 467.945 185.977 468.625 185.977Z" fill="#FF6699"/>
<path d="M466.459 200.287L461.926 198.364C461.302 198.099 461.008 197.376 461.275 196.75C461.54 196.124 462.27 195.835 462.888 196.098L467.42 198.02C468.045 198.286 468.338 199.008 468.072 199.634C467.807 200.264 467.08 200.549 466.459 200.287Z" fill="#DD99FF"/>
<path d="M489.112 209.902L484.58 207.98C483.955 207.714 483.662 206.992 483.928 206.366C484.193 205.739 484.921 205.452 485.541 205.713L490.074 207.636C490.698 207.901 490.992 208.624 490.725 209.25C490.46 209.879 489.733 210.165 489.112 209.902Z" fill="#CC66FF"/>
<path d="M494.122 211.923C494.802 211.923 495.353 211.372 495.353 210.692C495.353 210.013 494.802 209.462 494.122 209.462C493.443 209.462 492.892 210.013 492.892 210.692C492.892 211.372 493.443 211.923 494.122 211.923Z" fill="#FF3377"/>
<path d="M457.878 196.538C458.557 196.538 459.108 195.987 459.108 195.308C459.108 194.628 458.557 194.077 457.878 194.077C457.198 194.077 456.647 194.628 456.647 195.308C456.647 195.987 457.198 196.538 457.878 196.538Z" fill="#FF6699"/>
<path d="M461.167 208.991C460.912 208.362 461.218 207.644 461.847 207.391L466.411 205.547C467.038 205.29 467.757 205.595 468.014 206.228C468.269 206.857 467.964 207.575 467.334 207.828L462.77 209.671C462.137 209.928 461.422 209.619 461.167 208.991Z" fill="#DD99FF"/>
<path d="M483.986 199.772C483.731 199.143 484.037 198.425 484.666 198.172L489.23 196.328C489.857 196.07 490.576 196.377 490.833 197.009C491.088 197.638 490.783 198.356 490.153 198.609L485.589 200.453C484.956 200.709 484.241 200.4 483.986 199.772Z" fill="#CC66FF"/>
<path d="M494.254 196.855C494.934 196.855 495.484 196.304 495.484 195.625C495.484 194.945 494.934 194.394 494.254 194.394C493.574 194.394 493.023 194.945 493.023 195.625C493.023 196.304 493.574 196.855 494.254 196.855Z" fill="#FF3377"/>
<path d="M457.746 211.606C458.426 211.606 458.977 211.055 458.977 210.375C458.977 209.696 458.426 209.145 457.746 209.145C457.066 209.145 456.516 209.696 456.516 210.375C456.516 211.055 457.066 211.606 457.746 211.606Z" fill="#FF6699"/>
<path d="M469.749 217.724C469.124 217.458 468.831 216.736 469.098 216.111L471.023 211.581C471.29 210.954 472.015 210.662 472.635 210.93C473.26 211.195 473.554 211.917 473.287 212.542L471.362 217.072C471.092 217.705 470.364 217.988 469.749 217.724Z" fill="#DD99FF"/>
<path d="M479.365 195.07C478.74 194.805 478.447 194.083 478.713 193.458L480.638 188.928C480.903 188.302 481.628 188.011 482.251 188.276C482.876 188.542 483.169 189.264 482.902 189.889L480.977 194.419C480.708 195.052 479.979 195.335 479.365 195.07Z" fill="#CC66FF"/>
<path d="M483.692 186.108C484.372 186.108 484.923 185.557 484.923 184.878C484.923 184.198 484.372 183.647 483.692 183.647C483.013 183.647 482.462 184.198 482.462 184.878C482.462 185.557 483.013 186.108 483.692 186.108Z" fill="#FF3377"/>
<path d="M468.308 222.353C468.987 222.353 469.538 221.802 469.538 221.122C469.538 220.443 468.987 219.892 468.308 219.892C467.628 219.892 467.077 220.443 467.077 221.122C467.077 221.802 467.628 222.353 468.308 222.353Z" fill="#FF6699"/>
<path d="M476 209.152C475.32 209.152 474.77 208.602 474.77 207.922C474.77 205.886 473.114 204.23 471.078 204.23C470.398 204.23 469.848 203.68 469.848 203C469.848 202.32 470.398 201.77 471.078 201.77C473.114 201.77 474.77 200.114 474.77 198.078C474.77 197.398 475.32 196.848 476 196.848C476.68 196.848 477.23 197.398 477.23 198.078C477.23 200.114 478.886 201.77 480.922 201.77C481.602 201.77 482.152 202.32 482.152 203C482.152 203.68 481.602 204.23 480.922 204.23C478.886 204.23 477.23 205.886 477.23 207.922C477.23 208.602 476.68 209.152 476 209.152Z" fill="#FF6699"/>
<path d="M477.23 222.77V212.844C477.23 212.164 476.68 211.613 476 211.613V224C476.68 224 477.23 223.45 477.23 222.77Z" fill="#FABE2C"/>
<path d="M477.23 193.156V183.23C477.23 182.55 476.68 182 476 182V194.387C476.68 194.387 477.23 193.836 477.23 193.156Z" fill="#FABE2C"/>
<path d="M477.23 207.922C477.23 205.886 478.886 204.23 480.922 204.23C481.602 204.23 482.152 203.68 482.152 203C482.152 202.32 481.602 201.77 480.922 201.77C478.886 201.77 477.23 200.114 477.23 198.078C477.23 197.398 476.68 196.848 476 196.848V209.152C476.68 209.152 477.23 208.602 477.23 207.922Z" fill="#FF3377"/>
<path d="M307.547 35.7813L308.437 38.402C308.522 38.6516 308.765 38.8205 309.04 38.8205H311.92C312.533 38.8205 312.788 39.5713 312.292 39.9162L309.962 41.5359C309.74 41.6901 309.647 41.9635 309.732 42.2131L310.622 44.8338C310.811 45.3918 310.144 45.8558 309.648 45.5109L307.317 43.8912C307.096 43.737 306.795 43.737 306.573 43.8912L304.243 45.5109C303.747 45.8558 303.079 45.3918 303.269 44.8338L304.159 42.2131C304.243 41.9635 304.151 41.6901 303.929 41.5359L301.598 39.9162C301.102 39.5713 301.357 38.8205 301.971 38.8205H304.851C305.125 38.8205 305.368 38.6515 305.453 38.402L306.343 35.7813C306.533 35.2233 307.358 35.2233 307.547 35.7813Z" fill="#FEE565"/>
<path d="M305.221 43.005C305.306 42.7554 305.213 42.482 304.991 42.3278L304.089 41.7007C304.188 41.8502 304.218 42.0371 304.159 42.213L303.269 44.8337C303.079 45.3917 303.747 45.8557 304.243 45.5109L304.409 45.3955L305.221 43.005Z" fill="#FDD62F"/>
<path d="M307.547 35.7813C307.358 35.2233 306.533 35.2233 306.343 35.7813L305.453 38.402C305.368 38.6516 305.125 38.8205 304.851 38.8205H303.449H301.971C301.357 38.8205 301.102 39.5713 301.598 39.9162L303.929 41.5359C304.151 41.6901 304.244 41.9635 304.159 42.2131L303.269 44.8338C303.079 45.3918 303.747 45.8558 304.243 45.5109L305.368 44.7292C305.327 44.6146 305.321 44.484 305.368 44.3478L306.258 41.7271C306.343 41.4775 306.25 41.2041 306.028 41.0499L304.983 40.3239C304.661 40.0999 304.827 39.6125 305.225 39.6125H305.913C306.187 39.6125 306.43 39.4435 306.515 39.194L307.405 36.5733C307.46 36.4116 307.569 36.2983 307.7 36.2303L307.547 35.7813Z" fill="#FDE044"/>
<path d="M291.481 36.7123L291.98 38.181C292.027 38.3208 292.163 38.4156 292.317 38.4156H293.931C294.275 38.4156 294.418 38.8363 294.14 39.0296L292.834 39.9373C292.71 40.0238 292.658 40.177 292.705 40.3169L293.204 41.7856C293.31 42.0983 292.936 42.3584 292.658 42.1651L291.352 41.2573C291.228 41.1709 291.059 41.1709 290.935 41.2573L289.629 42.1651C289.351 42.3584 288.977 42.0983 289.083 41.7856L289.582 40.3169C289.629 40.177 289.577 40.0238 289.453 39.9373L288.147 39.0296C287.869 38.8363 288.012 38.4156 288.355 38.4156H289.97C290.124 38.4156 290.26 38.3209 290.307 38.181L290.806 36.7123C290.912 36.3995 291.375 36.3995 291.481 36.7123Z" fill="#FDAEE0"/>
<path d="M290.137 41.4123L290.636 39.9435C290.684 39.8037 290.632 39.6505 290.507 39.564L289.201 38.6563C289.11 38.5929 289.065 38.505 289.057 38.4155H288.356C288.012 38.4155 287.869 38.8362 288.147 39.0295L289.453 39.9372C289.578 40.0236 289.63 40.1768 289.582 40.3167L289.083 41.7854C288.977 42.0982 289.351 42.3582 289.629 42.165L290.221 41.7539C290.135 41.6708 290.092 41.5465 290.137 41.4123Z" fill="#FD94D3"/>
<path d="M322.519 36.7123L322.02 38.181C321.973 38.3208 321.837 38.4156 321.683 38.4156H320.069C319.725 38.4156 319.582 38.8363 319.86 39.0296L321.166 39.9373C321.29 40.0238 321.342 40.177 321.295 40.3169L320.796 41.7856C320.69 42.0983 321.064 42.3584 321.342 42.1651L322.648 41.2573C322.772 41.1709 322.941 41.1709 323.065 41.2573L324.371 42.1651C324.649 42.3584 325.023 42.0983 324.917 41.7856L324.418 40.3169C324.371 40.177 324.423 40.0238 324.547 39.9373L325.853 39.0296C326.131 38.8363 325.988 38.4156 325.645 38.4156H324.03C323.877 38.4156 323.74 38.3209 323.693 38.181L323.194 36.7123C323.088 36.3995 322.625 36.3995 322.519 36.7123Z" fill="#C8EFFD"/>
<path d="M321.898 41.4618L322.397 39.9931C322.444 39.8532 322.392 39.7 322.268 39.6135L320.962 38.7059C320.854 38.6308 320.81 38.5214 320.816 38.4156H320.069C319.725 38.4156 319.582 38.8364 319.86 39.0297L321.166 39.9374C321.29 40.0237 321.342 40.177 321.295 40.3169L320.796 41.7856C320.69 42.0983 321.064 42.3584 321.342 42.1651L321.938 41.7511C321.883 41.6719 321.861 41.5703 321.898 41.4618Z" fill="#9BE5FB"/>
<path d="M293.855 28.1506L294.175 29.0936C294.206 29.1834 294.293 29.2442 294.392 29.2442H295.429C295.649 29.2442 295.741 29.5144 295.562 29.6385L294.724 30.2213C294.644 30.2768 294.611 30.3751 294.641 30.465L294.961 31.408C295.03 31.6088 294.789 31.7758 294.611 31.6517L293.772 31.0689C293.693 31.0134 293.584 31.0134 293.505 31.0689L292.666 31.6517C292.488 31.7758 292.247 31.6088 292.316 31.408L292.636 30.465C292.666 30.3752 292.633 30.2768 292.553 30.2213L291.715 29.6385C291.536 29.5144 291.628 29.2442 291.849 29.2442H292.885C292.984 29.2442 293.071 29.1834 293.102 29.0936L293.422 28.1506C293.49 27.9498 293.787 27.9498 293.855 28.1506Z" fill="#FDC36D"/>
<path d="M312.3 36.6375L312.363 35.6338C312.478 33.7868 313.776 32.2007 315.622 31.6503C315.664 31.6377 315.709 31.6585 315.726 31.6978L316.726 34.1459C316.746 34.1956 316.711 34.25 316.656 34.2552L316.26 34.2922C315.034 34.4067 313.906 34.9816 313.123 35.8907L312.436 36.6885C312.388 36.7431 312.296 36.7083 312.3 36.6375Z" fill="#B289C8"/>
<path d="M301.7 36.6375L301.637 35.6338C301.522 33.7868 300.224 32.2007 298.378 31.6503C298.336 31.6377 298.29 31.6585 298.274 31.6978L297.274 34.1459C297.254 34.1956 297.289 34.25 297.344 34.2552L297.74 34.2922C298.965 34.4067 300.094 34.9816 300.877 35.8907L301.564 36.6885C301.611 36.7431 301.704 36.7083 301.7 36.6375Z" fill="#C8EFFD"/>
<path d="M300.777 49.1602L300.57 48.1744C300.19 46.3603 298.675 44.9608 296.767 44.6593C296.723 44.6525 296.682 44.6789 296.672 44.72L296.034 47.2769C296.021 47.3287 296.064 47.3781 296.119 47.3759L296.516 47.3603C297.747 47.3119 298.947 47.7323 299.854 48.5293L300.65 49.2286C300.705 49.2765 300.791 49.2297 300.777 49.1602Z" fill="#9DF8D3"/>
<path d="M303.602 62.2357C303.276 62.2357 303.011 61.9827 303.011 61.6704V56.0058C303.011 54.6032 302.65 53.2058 301.968 51.9647C301.816 51.6884 301.926 51.3466 302.215 51.2011C302.504 51.0556 302.861 51.1617 303.013 51.4381C303.785 52.8409 304.193 54.4204 304.193 56.0059V61.6705C304.193 61.9827 303.929 62.2357 303.602 62.2357Z" fill="#9DF8D3"/>
<path d="M291.897 54.0468C292.859 54.0468 293.639 53.3007 293.639 52.3805C293.639 51.4602 292.859 50.7142 291.897 50.7142C290.935 50.7142 290.155 51.4602 290.155 52.3805C290.155 53.3007 290.935 54.0468 291.897 54.0468Z" fill="#EA596C"/>
<path d="M297.705 62.2358C297.379 62.2358 297.114 61.9827 297.114 61.6704V58.8211C297.114 57.7556 296.643 56.7319 295.822 56.0124L295.132 55.4083C294.891 55.1975 294.875 54.8399 295.095 54.6095C295.315 54.3792 295.689 54.3635 295.93 54.5742L296.62 55.1784C297.685 56.1115 298.296 57.4392 298.296 58.821V61.6704C298.296 61.9827 298.032 62.2358 297.705 62.2358Z" fill="#F48C99"/>
<path d="M313.223 49.1602L313.43 48.1744C313.811 46.3603 315.325 44.9608 317.233 44.6593C317.277 44.6525 317.318 44.6789 317.328 44.72L317.966 47.2769C317.979 47.3287 317.936 47.3781 317.881 47.3759L317.484 47.3603C316.253 47.3119 315.053 47.7323 314.146 48.5293L313.35 49.2286C313.295 49.2765 313.209 49.2297 313.223 49.1602Z" fill="#FDCF8A"/>
<path d="M310.398 62.2358C310.071 62.2358 309.807 61.9827 309.807 61.6704V56.0058C309.807 54.4204 310.215 52.8409 310.987 51.438C311.139 51.1618 311.496 51.0556 311.785 51.2011C312.074 51.3465 312.184 51.6884 312.032 51.9646C311.35 53.2058 310.989 54.6031 310.989 56.0057V61.6704C310.989 61.9827 310.724 62.2358 310.398 62.2358Z" fill="#F8A7B0"/>
<path d="M322.103 54.0468C323.065 54.0468 323.845 53.3007 323.845 52.3805C323.845 51.4602 323.065 50.7142 322.103 50.7142C321.141 50.7142 320.361 51.4602 320.361 52.3805C320.361 53.3007 321.141 54.0468 322.103 54.0468Z" fill="#FDAEE0"/>
<path d="M316.295 62.2358C315.968 62.2358 315.704 61.9827 315.704 61.6704V58.8211C315.704 57.4392 316.315 56.1116 317.38 55.1785L318.07 54.5743C318.311 54.3635 318.684 54.3793 318.905 54.6096C319.125 54.84 319.109 55.1975 318.868 55.4084L318.178 56.0125C317.357 56.732 316.886 57.7557 316.886 58.8212V61.6705C316.886 61.9827 316.621 62.2358 316.295 62.2358Z" fill="#B3CAEB"/>
<path d="M320.145 28.1506L319.825 29.0936C319.794 29.1834 319.707 29.2442 319.608 29.2442H318.571C318.351 29.2442 318.259 29.5144 318.438 29.6385L319.276 30.2213C319.356 30.2768 319.389 30.3751 319.359 30.465L319.039 31.408C318.97 31.6088 319.211 31.7758 319.389 31.6517L320.228 31.0689C320.307 31.0134 320.416 31.0134 320.495 31.0689L321.334 31.6517C321.512 31.7758 321.753 31.6088 321.684 31.408L321.364 30.465C321.334 30.3752 321.367 30.2768 321.447 30.2213L322.285 29.6385C322.464 29.5144 322.372 29.2442 322.151 29.2442H321.115C321.016 29.2442 320.929 29.1834 320.898 29.0936L320.578 28.1506C320.51 27.9498 320.213 27.9498 320.145 28.1506Z" fill="#FDAEE0"/>
<path d="M307 62.7324C306.674 62.7324 306.409 62.4794 306.409 62.1671V47.8015C306.409 47.4892 306.674 47.2361 307 47.2361C307.326 47.2361 307.591 47.4892 307.591 47.8015V62.1671C307.591 62.4794 307.326 62.7324 307 62.7324Z" fill="#FDC36D"/>
<path d="M307 66C306.674 66 306.409 65.747 306.409 65.4347V64.2249C306.409 63.9126 306.674 63.6596 307 63.6596C307.326 63.6596 307.591 63.9126 307.591 64.2249V65.4347C307.591 65.747 307.326 66 307 66Z" fill="#FDC36D"/>
<path d="M298.172 39.551C298.07 39.551 297.967 39.5258 297.873 39.4726L296.968 38.9625C296.687 38.8039 296.593 38.4574 296.759 38.1884C296.925 37.9195 297.287 37.8299 297.568 37.9885L298.473 38.4986C298.754 38.6572 298.848 39.0037 298.682 39.2727C298.572 39.4515 298.375 39.551 298.172 39.551Z" fill="#EA596C"/>
<path d="M315.828 39.5511C315.625 39.5511 315.428 39.4516 315.318 39.2728C315.152 39.0038 315.246 38.6572 315.527 38.4986L316.432 37.9885C316.713 37.8299 317.075 37.9194 317.241 38.1884C317.407 38.4573 317.313 38.8039 317.032 38.9625L316.127 39.4727C316.033 39.5258 315.93 39.5511 315.828 39.5511Z" fill="#13E29D"/>
<path d="M306.945 32.784C306.619 32.784 306.354 32.5309 306.354 32.2186V31.2665C306.354 30.9542 306.619 30.7011 306.945 30.7011C307.272 30.7011 307.536 30.9542 307.536 31.2665V32.2186C307.536 32.5309 307.272 32.784 306.945 32.784Z" fill="#FE74C5"/>
<path d="M1109.54 53.2727L1112.11 56.529C1112.36 56.8391 1112.79 56.9557 1113.17 56.8178L1117.24 55.3699C1118.11 55.0616 1118.85 55.9946 1118.32 56.7313L1115.84 60.1918C1115.61 60.5212 1115.61 60.9543 1115.86 61.2644L1118.43 64.5207C1118.98 65.2141 1118.27 66.2055 1117.4 65.9675L1113.29 64.8498C1112.9 64.7434 1112.47 64.8944 1112.24 65.2239L1109.76 68.6844C1109.23 69.4211 1108.05 69.1009 1108.04 68.217L1107.98 64.0659C1107.98 63.6705 1107.71 63.3309 1107.32 63.2244L1103.21 62.1067C1102.33 61.8688 1102.32 60.6795 1103.18 60.3712L1107.25 58.9233C1107.64 58.7854 1107.9 58.4244 1107.89 58.0292L1107.84 53.878C1107.82 52.9942 1108.99 52.5794 1109.54 53.2727Z" fill="#FEE565"/>
<path d="M1109.88 64.6511C1109.87 64.2558 1109.61 63.9161 1109.21 63.8097L1107.62 63.377C1107.84 63.5381 1107.98 63.7872 1107.98 64.0658L1108.04 68.2169C1108.05 69.1008 1109.23 69.421 1109.76 68.6843L1109.93 68.4377L1109.88 64.6511Z" fill="#FDD62F"/>
<path d="M1109.54 53.2727C1108.99 52.5793 1107.82 52.9941 1107.84 53.878L1107.89 58.0292C1107.9 58.4245 1107.64 58.7854 1107.25 58.9233L1105.27 59.6279L1103.18 60.3712C1102.32 60.6795 1102.33 61.8688 1103.21 62.1067L1107.32 63.2244C1107.71 63.3308 1107.98 63.6705 1107.98 64.0658L1108.04 68.217C1108.05 69.1009 1109.23 69.4211 1109.76 68.6843L1110.95 67.0142C1110.84 66.8728 1110.77 66.6908 1110.76 66.475L1110.7 62.3239C1110.7 61.9286 1110.43 61.5889 1110.04 61.4824L1108.2 60.9815C1107.63 60.8269 1107.62 60.0548 1108.18 59.8546L1109.15 59.5087C1109.54 59.3708 1109.8 59.0098 1109.79 58.6146L1109.73 54.4634C1109.73 54.2073 1109.83 53.9924 1109.98 53.8306L1109.54 53.2727Z" fill="#FDE044"/>
<path d="M1087.3 62.6646L1088.74 64.4896C1088.88 64.6633 1089.12 64.7287 1089.34 64.6515L1091.62 63.84C1092.1 63.6673 1092.52 64.1901 1092.22 64.603L1090.83 66.5423C1090.7 66.727 1090.7 66.9697 1090.84 67.1435L1092.28 68.9684C1092.59 69.357 1092.19 69.9126 1091.7 69.7793L1089.4 69.1528C1089.18 69.0931 1088.94 69.1778 1088.81 69.3625L1087.42 71.3019C1087.13 71.7148 1086.47 71.5353 1086.46 71.04L1086.43 68.7135C1086.42 68.492 1086.27 68.3017 1086.05 68.242L1083.75 67.6155C1083.26 67.4822 1083.25 66.8157 1083.74 66.6429L1086.02 65.8314C1086.24 65.7542 1086.38 65.5519 1086.38 65.3303L1086.35 63.0039C1086.34 62.5085 1086.99 62.276 1087.3 62.6646Z" fill="#FDAEE0"/>
<path d="M1087.76 69.9822L1087.73 67.6558C1087.73 67.4343 1087.58 67.2439 1087.36 67.1842L1085.05 66.5578C1084.89 66.514 1084.79 66.4125 1084.73 66.2903L1083.74 66.6425C1083.25 66.8153 1083.26 67.4817 1083.75 67.6151L1086.05 68.2415C1086.27 68.301 1086.42 68.4914 1086.43 68.713L1086.46 71.0395C1086.47 71.5348 1087.13 71.7143 1087.42 71.3014L1088.05 70.423C1087.89 70.3488 1087.77 70.1949 1087.76 69.9822Z" fill="#FD94D3"/>
<path d="M1131.16 47.0626L1131.2 49.389C1131.2 49.6105 1131.06 49.8129 1130.84 49.8901L1128.56 50.7016C1128.07 50.8743 1128.08 51.5408 1128.57 51.6742L1130.87 52.3006C1131.09 52.3603 1131.24 52.5506 1131.25 52.7722L1131.28 55.0986C1131.29 55.594 1131.95 55.7735 1132.24 55.3605L1133.63 53.4211C1133.76 53.2365 1134 53.1518 1134.22 53.2115L1136.52 53.8379C1137.01 53.9713 1137.41 53.4157 1137.1 53.0271L1135.66 51.2021C1135.52 51.0284 1135.52 50.7857 1135.65 50.601L1137.04 48.6616C1137.34 48.2487 1136.92 47.7259 1136.44 47.8987L1134.16 48.7101C1133.94 48.7874 1133.7 48.7221 1133.56 48.5482L1132.12 46.7233C1131.81 46.3347 1131.16 46.5672 1131.16 47.0626Z" fill="#C8EFFD"/>
<path d="M1132.67 54.087L1132.64 51.7606C1132.64 51.5391 1132.49 51.3487 1132.27 51.289L1129.97 50.6627C1129.78 50.6109 1129.66 50.4783 1129.61 50.3258L1128.56 50.7016C1128.07 50.8744 1128.08 51.5409 1128.57 51.6742L1130.87 52.3006C1131.09 52.3602 1131.24 52.5505 1131.25 52.7721L1131.28 55.0986C1131.29 55.5939 1131.95 55.7734 1132.24 55.3605L1132.88 54.4759C1132.76 54.3916 1132.68 54.2589 1132.67 54.087Z" fill="#9BE5FB"/>
<path d="M1086.35 49.3712L1087.28 50.543C1087.37 50.6545 1087.52 50.6965 1087.66 50.6469L1089.12 50.1259C1089.44 50.015 1089.7 50.3507 1089.51 50.6158L1088.62 51.8609C1088.53 51.9795 1088.54 52.1353 1088.62 52.2469L1089.55 53.4187C1089.75 53.6682 1089.49 54.0249 1089.18 53.9393L1087.7 53.5371C1087.56 53.4988 1087.41 53.5532 1087.32 53.6717L1086.43 54.9169C1086.24 55.182 1085.82 55.0668 1085.81 54.7487L1085.79 53.2549C1085.79 53.1127 1085.69 52.9905 1085.55 52.9521L1084.07 52.5499C1083.76 52.4643 1083.75 52.0364 1084.06 51.9255L1085.53 51.4045C1085.67 51.3549 1085.76 51.225 1085.76 51.0828L1085.74 49.589C1085.73 49.271 1086.15 49.1217 1086.35 49.3712Z" fill="#FDC36D"/>
<path d="M1116.68 52.0937L1116.27 50.6437C1115.5 47.9755 1116.54 45.0816 1118.87 43.3755C1118.93 43.3365 1119 43.3432 1119.04 43.3906L1121.69 46.3477C1121.74 46.4077 1121.72 46.5022 1121.64 46.5374L1121.1 46.7886C1119.43 47.5665 1118.12 48.9461 1117.47 50.6246L1116.9 52.0976C1116.86 52.1985 1116.71 52.1959 1116.68 52.0937Z" fill="#B289C8"/>
<path d="M1101.7 57.4221L1101.11 56.0351C1100.02 53.4828 1097.39 51.8936 1094.5 52.0438C1094.44 52.0472 1094.38 52.0993 1094.38 52.1629L1094.2 56.1256C1094.19 56.2061 1094.27 56.2654 1094.35 56.2449L1094.93 56.0983C1096.72 55.644 1098.6 55.8893 1100.17 56.7803L1101.54 57.5623C1101.63 57.6158 1101.75 57.5199 1101.7 57.4221Z" fill="#C8EFFD"/>
<path d="M1106.69 75.584L1105.91 74.2947C1104.46 71.9222 1101.61 70.7055 1098.76 71.2387C1098.7 71.2509 1098.65 71.3093 1098.66 71.3725L1099.04 75.3065C1099.05 75.3863 1099.14 75.4347 1099.21 75.4036L1099.77 75.1819C1101.48 74.495 1103.39 74.4857 1105.07 75.1561L1106.55 75.7444C1106.65 75.7846 1106.75 75.6749 1106.69 75.584Z" fill="#9DF8D3"/>
<path d="M1117.26 92.6429C1116.8 92.807 1116.3 92.5824 1116.14 92.141L1113.29 84.1354C1112.59 82.1531 1111.38 80.3598 1109.79 78.949C1109.43 78.635 1109.42 78.0961 1109.75 77.7454C1110.09 77.3945 1110.65 77.3649 1111 77.6791C1112.8 79.2736 1114.17 81.3008 1114.96 83.5415L1117.81 91.5471C1117.97 91.9883 1117.72 92.4789 1117.26 92.6429Z" fill="#9DF8D3"/>
<path d="M1096.6 86.9537C1097.96 86.4702 1098.69 85.0239 1098.22 83.7233C1097.76 82.4228 1096.28 81.7604 1094.93 82.244C1093.57 82.7275 1092.84 84.1738 1093.3 85.4744C1093.76 86.7749 1095.24 87.4373 1096.6 86.9537Z" fill="#EA596C"/>
<path d="M1108.93 95.6072C1108.46 95.7713 1107.96 95.5467 1107.81 95.1053L1106.37 91.0785C1105.84 89.5726 1104.66 88.3627 1103.14 87.7588L1101.86 87.2518C1101.41 87.0748 1101.21 86.5777 1101.4 86.1414C1101.6 85.7052 1102.12 85.4951 1102.57 85.6719L1103.84 86.179C1105.82 86.9621 1107.35 88.5313 1108.04 90.4843L1109.48 94.5111C1109.63 94.9526 1109.39 95.4432 1108.93 95.6072Z" fill="#F48C99"/>
<path d="M1124.28 69.3276L1124.08 67.8304C1123.71 65.0753 1125.14 62.3362 1127.69 60.951C1127.75 60.9194 1127.82 60.9358 1127.85 60.9888L1130.04 64.2818C1130.08 64.3486 1130.05 64.4397 1129.97 64.4646L1129.4 64.6422C1127.64 65.1924 1126.15 66.3898 1125.27 67.9721L1124.5 69.3605C1124.44 69.4556 1124.3 69.4332 1124.28 69.3276Z" fill="#FDCF8A"/>
<path d="M1126.86 89.2271C1126.4 89.3912 1125.9 89.1666 1125.74 88.7252L1122.9 80.7196C1122.1 78.479 1121.88 76.0416 1122.27 73.671C1122.34 73.2042 1122.8 72.8745 1123.28 72.9349C1123.76 72.9953 1124.09 73.4227 1124.01 73.8895C1123.67 75.9869 1123.86 78.1432 1124.57 80.1254L1127.41 88.1311C1127.57 88.5725 1127.32 89.0631 1126.86 89.2271Z" fill="#F8A7B0"/>
<path d="M1139.29 71.7698C1140.65 71.2863 1141.38 69.84 1140.91 68.5394C1140.45 67.2388 1138.97 66.5765 1137.61 67.06C1136.26 67.5436 1135.53 68.9899 1135.99 70.2904C1136.45 71.591 1137.93 72.2533 1139.29 71.7698Z" fill="#FDAEE0"/>
<path d="M1135.2 86.2628C1134.74 86.4268 1134.24 86.2022 1134.08 85.7609L1132.65 81.734C1131.95 79.7811 1132.15 77.5976 1133.18 75.7433L1133.86 74.5427C1134.09 74.1238 1134.63 73.9583 1135.05 74.1729C1135.48 74.3877 1135.64 74.9014 1135.4 75.3203L1134.73 76.5209C1133.93 77.9506 1133.78 79.6342 1134.32 81.1401L1135.75 85.1669C1135.91 85.6081 1135.66 86.0988 1135.2 86.2628Z" fill="#B3CAEB"/>
<path d="M1123.5 36.1561L1123.53 37.6498C1123.53 37.792 1123.44 37.922 1123.3 37.9716L1121.83 38.4926C1121.52 38.6035 1121.53 39.0314 1121.84 39.117L1123.32 39.5192C1123.46 39.5575 1123.56 39.6797 1123.56 39.822L1123.58 41.3158C1123.58 41.6339 1124.01 41.7491 1124.2 41.484L1125.09 40.2388C1125.17 40.1203 1125.33 40.0659 1125.47 40.1042L1126.95 40.5064C1127.26 40.592 1127.52 40.2353 1127.32 39.9858L1126.39 38.814C1126.3 38.7025 1126.3 38.5466 1126.39 38.428L1127.28 37.1829C1127.47 36.9178 1127.2 36.5821 1126.89 36.693L1125.43 37.214C1125.29 37.2636 1125.13 37.2216 1125.04 37.1101L1124.12 35.9383C1123.92 35.6888 1123.5 35.838 1123.5 36.1561Z" fill="#FDAEE0"/>
<path d="M1122.31 91.6369C1121.85 91.801 1121.35 91.5763 1121.19 91.135L1113.97 70.8326C1113.81 70.3912 1114.06 69.9006 1114.52 69.7366C1114.98 69.5725 1115.48 69.7972 1115.64 70.2385L1122.86 90.5409C1123.02 90.9823 1122.77 91.4729 1122.31 91.6369Z" fill="#FDC36D"/>
<path d="M1123.95 96.2549C1123.49 96.419 1122.99 96.1944 1122.83 95.753L1122.23 94.0432C1122.07 93.6019 1122.32 93.1113 1122.78 92.9473C1123.24 92.7832 1123.74 93.0078 1123.9 93.4492L1124.5 95.1589C1124.66 95.6003 1124.41 96.0909 1123.95 96.2549Z" fill="#FDC36D"/>
<path d="M1098.18 63.313C1098.04 63.3643 1097.88 63.3805 1097.72 63.3528L1096.18 63.0865C1095.71 63.0037 1095.4 62.561 1095.5 62.0975C1095.6 61.6342 1096.07 61.3254 1096.54 61.4082L1098.08 61.6745C1098.56 61.7573 1098.86 62.2 1098.76 62.6635C1098.7 62.9716 1098.47 63.2113 1098.18 63.313Z" fill="#EA596C"/>
<path d="M1123.13 54.438C1122.85 54.5397 1122.52 54.4983 1122.27 54.3009C1121.9 54.0041 1121.86 53.4673 1122.18 53.1018L1123.2 51.9261C1123.52 51.5607 1124.08 51.5051 1124.45 51.8019C1124.82 52.0987 1124.86 52.6355 1124.54 53.001L1123.52 54.1767C1123.41 54.2991 1123.28 54.3868 1123.13 54.438Z" fill="#13E29D"/>
<path d="M1107.18 49.3393C1106.72 49.5034 1106.22 49.2788 1106.06 48.8374L1105.58 47.4918C1105.42 47.0504 1105.67 46.5598 1106.13 46.3958C1106.59 46.2317 1107.09 46.4563 1107.25 46.8977L1107.73 48.2433C1107.89 48.6847 1107.64 49.1753 1107.18 49.3393Z" fill="#FE74C5"/>
<path d="M33.4712 158.67L29.1964 124.058L31.0722 123.826L32.7 125.671L36.6406 156.859L35.3333 158.44L33.4712 158.67Z" fill="#ECF4F9"/>
<path d="M35.3334 158.44L31.0723 123.826L33.0926 123.577L37.3674 158.189L35.3334 158.44Z" fill="#CDDFF8"/>
<path d="M46.4878 158.037H44.972L43.1157 157.399L48.4808 141.783L50.3172 142.414L51.5913 143.152L46.4878 158.037Z" fill="#ECF4F9"/>
<path d="M46.8284 158.675L44.9897 158.043L50.3173 142.414L52.1935 143.059L46.8284 158.675Z" fill="#CDDFF8"/>
<path d="M23.1228 159.839L16.7066 149.239L18.2357 148.313L20.0215 148.223L25.6485 157.732L24.4957 159.008L23.1228 159.839Z" fill="#ECF4F9"/>
<path d="M24.4956 159.008L18.2356 148.313L20.0649 147.206L26.481 157.806L24.4956 159.008Z" fill="#CDDFF8"/>
<path d="M5.88867 104.777C9.1409 104.777 11.7773 102.141 11.7773 98.8887C11.7773 95.6364 9.1409 93 5.88867 93C2.63645 93 0 95.6364 0 98.8887C0 102.141 2.63645 104.777 5.88867 104.777Z" fill="#E17D46"/>
<path d="M59.8027 107.395C63.7777 107.395 67 104.172 67 100.197C67 96.2223 63.7777 93 59.8027 93C55.8278 93 52.6055 96.2223 52.6055 100.197C52.6055 104.172 55.8278 107.395 59.8027 107.395Z" fill="#8DC5E8"/>
<path d="M61.1113 160C64.3636 160 67 157.364 67 154.111C67 150.859 64.3636 148.223 61.1113 148.223C57.8591 148.223 55.2227 150.859 55.2227 154.111C55.2227 157.364 57.8591 160 61.1113 160Z" fill="#ADE993"/>
<path d="M7.99121 118.922L10.7667 116.146L13.5423 118.922L10.7667 121.697L7.99121 118.922Z" fill="#ADE993"/>
<path d="M46.0789 112.304L48.8544 109.528L51.6299 112.304L48.8544 115.079L46.0789 112.304Z" fill="#E17D46"/>
<path d="M22.1629 124.275L22.1027 114.336L13.8813 108.752L23.3148 105.623L26.0856 96.0782L29.4898 105.261L39.4236 104.947L33.6306 113.023L36.9993 118.971L30.0148 118.182L22.1629 124.275Z" fill="#F6E486"/>
<path d="M36.1169 111.845L41.9099 103.769L31.9761 104.083L26.0856 96.0782L30.017 118.182L39.4856 121.196L36.1169 111.845Z" fill="#F0CE46"/>
<path d="M11.54 152.137L8.48322 143.966L0.019104 141.851L6.84578 136.419L6.24134 127.716L12.2084 133.838L20.299 130.574L17.969 138.981L23.3121 143.573L16.1664 144.74L11.54 152.137Z" fill="#F6E486"/>
<path d="M19.2776 137.673L21.6077 129.265L13.517 132.53L6.24139 127.716L16.1664 144.74L24.8824 144.359L19.2776 137.673Z" fill="#F0CE46"/>
<path d="M58.195 141.713L52.1546 137.259L43.6528 139.218L47.2694 131.279L42.7797 123.798L51.4479 124.784L57.1746 118.203L57.345 126.621L65.3742 130.033L57.7818 134.33L58.195 141.713Z" fill="#F6E486"/>
<path d="M59.3521 134.461L66.9445 130.164L58.9153 126.751L57.1746 118.203L52.1545 137.259L58.5876 143.152L59.3521 134.461Z" fill="#F0CE46"/>
<path d="M708.479 196.067L705.353 171.787L706.724 171.624L707.915 172.918L710.797 194.797L709.841 195.906L708.479 196.067Z" fill="#ECF4F9"/>
<path d="M709.841 195.906L706.725 171.624L708.202 171.449L711.328 195.73L709.841 195.906Z" fill="#CDDFF8"/>
<path d="M717.999 195.623H716.89L715.532 195.176L719.456 184.221L720.799 184.664L721.731 185.181L717.999 195.623Z" fill="#ECF4F9"/>
<path d="M718.248 196.07L716.903 195.627L720.799 184.664L722.171 185.116L718.248 196.07Z" fill="#CDDFF8"/>
<path d="M700.911 196.887L696.218 189.451L697.337 188.802L698.643 188.738L702.758 195.409L701.915 196.304L700.911 196.887Z" fill="#ECF4F9"/>
<path d="M701.915 196.304L697.337 188.802L698.674 188.025L703.367 195.461L701.915 196.304Z" fill="#CDDFF8"/>
<path d="M688.307 158.262C690.685 158.262 692.613 156.412 692.613 154.131C692.613 151.849 690.685 150 688.307 150C685.928 150 684 151.849 684 154.131C684 156.412 685.928 158.262 688.307 158.262Z" fill="#E17D46"/>
<path d="M727.736 160.098C730.643 160.098 733 157.837 733 155.049C733 152.26 730.643 150 727.736 150C724.829 150 722.473 152.26 722.473 155.049C722.473 157.837 724.829 160.098 727.736 160.098Z" fill="#8DC5E8"/>
<path d="M728.693 197C731.072 197 733 195.151 733 192.869C733 190.588 731.072 188.738 728.693 188.738C726.315 188.738 724.387 190.588 724.387 192.869C724.387 195.151 726.315 197 728.693 197Z" fill="#ADE993"/>
<path d="M689.844 168.184L691.874 166.237L693.904 168.184L691.874 170.131L689.844 168.184Z" fill="#ADE993"/>
<path d="M717.699 163.541L719.729 161.594L721.759 163.541L719.729 165.488L717.699 163.541Z" fill="#E17D46"/>
<path d="M700.209 171.939L700.165 164.967L694.152 161.05L701.051 158.855L703.078 152.159L705.567 158.601L712.832 158.381L708.596 164.046L711.059 168.218L705.951 167.665L700.209 171.939Z" fill="#F6E486"/>
<path d="M710.414 163.22L714.651 157.554L707.385 157.775L703.078 152.159L705.953 167.665L712.878 169.779L710.414 163.22Z" fill="#F0CE46"/>
<path d="M692.439 191.484L690.204 185.752L684.014 184.269L689.006 180.458L688.564 174.353L692.928 178.648L698.845 176.358L697.141 182.255L701.049 185.477L695.823 186.296L692.439 191.484Z" fill="#F6E486"/>
<path d="M698.099 181.338L699.803 175.44L693.886 177.73L688.565 174.353L695.823 186.296L702.198 186.028L698.099 181.338Z" fill="#F0CE46"/>
<path d="M726.561 184.172L722.143 181.048L715.925 182.422L718.57 176.852L715.287 171.605L721.626 172.297L725.814 167.679L725.939 173.585L731.811 175.978L726.258 178.993L726.561 184.172Z" fill="#F6E486"/>
<path d="M727.407 179.085L732.959 176.07L727.087 173.676L725.814 167.679L722.143 181.048L726.848 185.181L727.407 179.085Z" fill="#F0CE46"/>
<path d="M893.76 135.001C902.771 135.048 910.066 142.904 910.11 152.61C910.11 170.391 880.055 188 880.055 188C880.055 188 850 170.132 850 152.61C850 142.884 857.32 135.001 866.35 135.001C871.877 134.954 877.045 137.948 880.055 142.942C883.085 137.973 888.24 134.986 893.76 135.001Z" fill="#D7443E"/>
<path d="M477.603 49.1379C468.034 49.1379 465.177 55.9717 462.293 58.7069C459.409 55.9717 456.552 49.1379 446.983 49.1379C438.101 49.1379 433.586 59.3937 433.586 68.2759C433.586 83.5862 462.293 100.81 462.293 100.81C462.293 100.81 491 83.5862 491 68.2759C491 59.3937 486.486 49.1379 477.603 49.1379Z" fill="#DD3E46"/>
<path d="M424.017 30C414.448 30 411.591 36.8338 408.707 39.569C405.823 36.8338 402.966 30 393.397 30C384.514 30 380 40.2558 380 49.1379C380 64.4483 408.707 81.6724 408.707 81.6724C408.707 81.6724 437.414 64.4483 437.414 49.1379C437.414 40.2558 432.899 30 424.017 30Z" fill="#F98C96"/>
<path d="M450.81 89.3276C441.241 89.3276 438.384 96.1614 435.5 98.8965C432.616 96.1614 429.759 89.3276 420.19 89.3276C411.308 89.3276 406.793 99.5834 406.793 108.466C406.793 123.776 435.5 141 435.5 141C435.5 141 464.207 123.776 464.207 108.466C464.207 99.5834 459.692 89.3276 450.81 89.3276Z" fill="#F98C96"/>
<path d="M411.683 71.782L409.558 68.5973C409.721 68.488 425.931 57.5435 425.931 47.2241H429.759C429.759 59.589 412.42 71.2904 411.683 71.782Z" fill="white"/>
<path d="M429.759 41.4827H425.931C425.981 40.9576 425.792 40.438 425.416 40.067C425.04 39.696 424.519 39.5129 423.994 39.569L424.017 35.7414C425.554 35.6965 427.04 36.2871 428.126 37.3739C429.213 38.4597 429.803 39.9465 429.759 41.4827Z" fill="white"/>
<path d="M465.269 90.9199L463.144 87.7352C463.307 87.6259 479.517 76.6814 479.517 66.3621H483.345C483.345 78.727 466.006 90.4284 465.269 90.9199Z" fill="white"/>
<path d="M483.345 60.6207H479.517C479.567 60.0955 479.378 59.5759 479.002 59.205C478.627 58.834 478.105 58.6508 477.58 58.7069L477.603 54.8793C479.14 54.8344 480.626 55.425 481.712 56.5118C482.799 57.5977 483.39 59.0844 483.345 60.6207Z" fill="white"/>
<path d="M438.476 131.11L436.351 127.925C436.514 127.816 452.724 116.871 452.724 106.552H456.552C456.552 118.917 439.213 130.618 438.476 131.11Z" fill="white"/>
<path d="M456.552 100.81H452.724C452.774 100.285 452.585 99.7656 452.209 99.3946C451.834 99.0236 451.312 98.8405 450.787 98.8965L450.81 95.0689C452.347 95.0241 453.833 95.6147 454.919 96.7015C456.006 97.7873 456.597 99.2741 456.552 100.81Z" fill="white"/>
<path d="M622.987 137.76C633.815 126.933 647.974 120.686 647.974 107.36C647.974 100.072 642.144 94.0332 634.856 94.0332C629.65 94.0332 625.069 97.1566 622.987 101.529C620.905 97.1566 616.324 94.0332 611.118 94.0332C603.83 94.0332 598 100.072 598 107.36C598 120.894 612.784 127.141 622.987 137.76Z" fill="#66C6B9"/>
<path d="M627.776 139.634C625.069 142.341 621.113 142.341 618.406 139.634C619.447 138.385 621.321 137.344 621.321 135.678C622.362 135.678 623.612 135.678 624.653 135.678C624.653 137.344 626.735 138.177 627.776 139.634Z" fill="#66C6B9"/>
<path d="M641.519 101.946C642.977 103.612 643.601 105.694 642.768 106.319C641.935 106.943 640.061 106.319 638.604 104.445C637.146 102.779 636.522 100.697 637.355 100.072C637.979 99.4472 639.853 100.28 641.519 101.946Z" fill="white"/>
<path d="M625.069 136.928H621.113C620.696 136.928 620.488 136.719 620.488 136.303C620.488 135.887 620.696 135.678 621.113 135.678H625.069C625.486 135.678 625.694 135.887 625.694 136.303C625.694 136.511 625.486 136.928 625.069 136.928Z" fill="#415A6B"/>
<path d="M619.239 141.3C619.031 141.3 618.614 141.092 618.614 140.884C618.614 140.468 618.823 140.259 619.031 140.051C619.655 139.843 620.072 139.635 620.072 138.593C620.28 137.136 621.737 136.095 621.946 135.886C622.154 135.678 622.57 135.678 622.779 136.095C622.987 136.303 622.987 136.719 622.57 136.928C622.154 137.136 621.321 137.969 621.321 138.802C621.321 140.259 620.697 140.884 619.239 141.3Z" fill="#415A6B"/>
<path d="M626.319 150.046C622.779 144.007 624.236 136.303 624.236 136.303V136.095H622.987C622.779 136.719 621.529 144.215 625.277 150.67C628.609 156.709 623.612 167.537 623.612 167.745C623.403 168.161 623.612 168.37 623.82 168.578H624.028C624.236 168.578 624.445 168.37 624.653 168.162C624.861 167.745 630.067 156.709 626.319 150.046Z" fill="#415A6B"/>
<path d="M574.262 123.81C585.715 112.357 600.499 105.902 600.499 91.9511C600.499 84.2467 594.252 78 586.756 78C581.342 78 576.553 81.1234 574.471 85.9125C571.972 81.1234 567.183 78 561.769 78C554.273 78 548.026 84.2467 548.026 91.9511C548.026 106.11 563.643 112.565 574.262 123.81Z" fill="#6F69C9"/>
<path d="M579.052 125.684C576.137 128.391 572.18 128.391 569.265 125.684C570.306 124.226 572.389 123.393 572.389 121.519C573.638 121.519 574.679 121.519 575.929 121.519C575.929 123.185 578.011 124.226 579.052 125.684Z" fill="#6F69C9"/>
<path d="M593.627 86.1208C595.293 87.9948 595.709 90.0771 594.876 90.7018C594.043 91.5347 591.961 90.7018 590.504 88.8278C588.838 86.9537 588.421 84.8714 589.254 84.2467C590.087 83.4138 591.961 84.2467 593.627 86.1208Z" fill="white"/>
<path d="M576.345 122.768H572.18C571.764 122.768 571.555 122.56 571.555 122.144C571.555 121.727 571.764 121.519 572.18 121.519H576.345C576.761 121.519 576.969 121.727 576.969 122.144C577.178 122.352 576.761 122.768 576.345 122.768Z" fill="#415A6B"/>
<path d="M570.306 127.349C570.098 127.349 569.682 127.141 569.682 126.933C569.682 126.517 569.89 126.308 570.098 126.1C570.723 125.892 571.139 125.684 571.347 124.642C571.556 123.185 573.013 121.935 573.221 121.727C573.43 121.519 573.846 121.519 574.054 121.935C574.263 122.144 574.263 122.56 573.846 122.768C573.43 122.977 572.597 123.81 572.388 124.642C572.388 126.308 571.764 126.933 570.306 127.349Z" fill="#415A6B"/>
<path d="M577.594 136.511C574.054 130.056 575.304 122.144 575.512 122.144V121.935H574.262C574.054 122.56 572.805 130.472 576.553 137.136C580.093 143.383 574.887 154.835 574.679 155.043C574.47 155.459 574.679 155.876 575.095 155.876H575.303C575.512 155.876 575.72 155.668 575.928 155.46C576.136 155.252 581.55 143.383 577.594 136.511Z" fill="#415A6B"/>
<path d="M598 155.251C608.411 145.048 621.737 139.01 621.737 126.516C621.737 119.645 616.115 114.023 609.244 114.023C604.246 114.023 600.082 116.938 598 121.103C595.917 116.938 591.753 114.023 586.756 114.023C579.884 114.023 574.262 119.645 574.262 126.516C574.262 139.218 588.422 145.048 598 155.251Z" fill="#FFD15C"/>
<path d="M602.372 156.709C599.874 159.208 596.126 159.208 593.627 156.709C594.668 155.46 596.542 154.627 596.542 152.961C597.583 152.961 598.624 152.961 599.665 152.961C599.666 154.627 601.54 155.46 602.372 156.709Z" fill="#FFD15C"/>
<path d="M615.491 121.103C616.948 122.768 617.365 124.642 616.74 125.267C616.115 125.892 614.241 125.267 612.784 123.601C611.326 121.935 610.91 120.061 611.534 119.437C612.159 118.812 614.033 119.437 615.491 121.103Z" fill="white"/>
<path d="M600.082 154.21H596.334C595.918 154.21 595.71 154.002 595.71 153.586C595.71 153.169 595.918 152.961 596.334 152.961H600.082C600.499 152.961 600.707 153.169 600.707 153.586C600.499 154.002 600.291 154.21 600.082 154.21Z" fill="#415A6B"/>
<path d="M594.46 158.375C594.252 158.375 593.836 158.166 593.836 157.958C593.836 157.542 594.044 157.334 594.252 157.125C594.877 156.917 595.293 156.709 595.293 155.876C595.501 154.418 596.959 153.377 596.959 153.377C597.167 153.169 597.583 153.169 597.792 153.586C598 153.794 598 154.21 597.583 154.419C597.167 154.627 596.334 155.46 596.334 156.084C596.334 157.334 595.71 158.167 594.46 158.375Z" fill="#415A6B"/>
<path d="M600.499 177.531C600.499 178.156 601.748 178.156 601.748 177.531C602.581 173.992 602.997 169.827 601.123 166.704C597.792 160.873 599.249 153.794 599.249 153.794V153.586H598C597.792 154.21 596.751 161.29 600.082 167.328C601.748 170.243 601.332 174.2 600.499 177.531Z" fill="#415A6B"/>
<path d="M1271.99 59.7604C1282.81 48.9327 1296.97 42.6859 1296.97 29.3597C1296.97 22.0719 1291.14 16.0332 1283.86 16.0332C1278.65 16.0332 1274.07 19.1566 1271.99 23.5293C1269.9 19.1566 1265.32 16.0332 1260.12 16.0332C1252.83 16.0332 1247 22.0717 1247 29.3597C1247 42.8942 1261.78 49.141 1271.99 59.7604Z" fill="#66C6B9"/>
<path d="M1276.78 61.6345C1274.07 64.3414 1270.11 64.3414 1267.41 61.6345C1268.45 60.3851 1270.32 59.344 1270.32 57.6783C1271.36 57.6783 1272.61 57.6783 1273.65 57.6783C1273.65 59.344 1275.73 60.177 1276.78 61.6345Z" fill="#66C6B9"/>
<path d="M1290.52 23.9459C1291.98 25.6116 1292.6 27.694 1291.77 28.3186C1290.94 28.9433 1289.06 28.3186 1287.6 26.4446C1286.15 24.7789 1285.52 22.6966 1286.35 22.0719C1286.98 21.4472 1288.85 22.28 1290.52 23.9459Z" fill="white"/>
<path d="M1274.07 58.9277H1270.11C1269.7 58.9277 1269.49 58.7194 1269.49 58.303C1269.49 57.8866 1269.7 57.6783 1270.11 57.6783H1274.07C1274.49 57.6783 1274.69 57.8866 1274.69 58.303C1274.69 58.5111 1274.49 58.9277 1274.07 58.9277Z" fill="#415A6B"/>
<path d="M1268.24 63.3004C1268.03 63.3004 1267.61 63.0921 1267.61 62.884C1267.61 62.4676 1267.82 62.2593 1268.03 62.051C1268.66 61.8427 1269.07 61.6346 1269.07 60.5934C1269.28 59.1357 1270.74 58.0947 1270.95 57.8864C1271.15 57.6781 1271.57 57.6781 1271.78 58.0947C1271.99 58.303 1271.99 58.7194 1271.57 58.9276C1271.15 59.1359 1270.32 59.9687 1270.32 60.8017C1270.32 62.2591 1269.7 62.8838 1268.24 63.3004Z" fill="#415A6B"/>
<path d="M1275.32 72.0458C1271.78 66.0074 1273.24 58.303 1273.24 58.303V58.0947H1271.99C1271.78 58.7194 1270.53 66.2155 1274.28 72.6705C1277.61 78.7089 1272.61 89.5367 1272.61 89.745C1272.4 90.1614 1272.61 90.3697 1272.82 90.5779H1273.03C1273.24 90.5779 1273.44 90.3697 1273.65 90.1616C1273.86 89.7448 1279.07 78.7089 1275.32 72.0458Z" fill="#415A6B"/>
<path d="M1223.26 45.8095C1234.71 34.3571 1249.5 27.9022 1249.5 13.9511C1249.5 6.24674 1243.25 0 1235.76 0C1230.34 0 1225.55 3.12337 1223.47 7.91248C1220.97 3.12337 1216.18 0 1210.77 0C1203.27 0 1197.03 6.24674 1197.03 13.9511C1197.03 28.1103 1212.64 34.5654 1223.26 45.8095Z" fill="#6F69C9"/>
<path d="M1228.05 47.6835C1225.14 50.3905 1221.18 50.3905 1218.27 47.6835C1219.31 46.2259 1221.39 45.3931 1221.39 43.5191C1222.64 43.5191 1223.68 43.5191 1224.93 43.5191C1224.93 45.1848 1227.01 46.2259 1228.05 47.6835Z" fill="#6F69C9"/>
<path d="M1242.63 8.12077C1244.29 9.99479 1244.71 12.0771 1243.88 12.7018C1243.04 13.5347 1240.96 12.7018 1239.5 10.8278C1237.84 8.95373 1237.42 6.87142 1238.25 6.24674C1239.09 5.41378 1240.96 6.24674 1242.63 8.12077Z" fill="white"/>
<path d="M1225.34 44.7683H1221.18C1220.76 44.7683 1220.56 44.56 1220.56 44.1436C1220.56 43.7272 1220.76 43.5189 1221.18 43.5189H1225.34C1225.76 43.5189 1225.97 43.7272 1225.97 44.1436C1226.18 44.3519 1225.76 44.7683 1225.34 44.7683Z" fill="#415A6B"/>
<path d="M1219.31 49.3493C1219.1 49.3493 1218.68 49.141 1218.68 48.9329C1218.68 48.5165 1218.89 48.3082 1219.1 48.0999C1219.72 47.8916 1220.14 47.6835 1220.35 46.6423C1220.56 45.1847 1222.01 43.9353 1222.22 43.7272C1222.43 43.5189 1222.85 43.5189 1223.05 43.9355C1223.26 44.1438 1223.26 44.5602 1222.85 44.7685C1222.43 44.9768 1221.6 45.8095 1221.39 46.6425C1221.39 48.3082 1220.76 48.9329 1219.31 49.3493Z" fill="#415A6B"/>
<path d="M1226.59 58.5111C1223.05 52.0561 1224.3 44.1436 1224.51 44.1436V43.9353H1223.26C1223.05 44.56 1221.8 52.4725 1225.55 59.1358C1229.09 65.3825 1223.89 76.835 1223.68 77.043C1223.47 77.4594 1223.68 77.876 1224.1 77.876H1224.3C1224.51 77.876 1224.72 77.6677 1224.93 77.4596C1225.14 77.2515 1230.55 65.3825 1226.59 58.5111Z" fill="#415A6B"/>
<path d="M1247 77.2513C1257.41 67.0482 1270.74 61.0098 1270.74 48.5163C1270.74 41.6449 1265.12 36.0228 1258.24 36.0228C1253.25 36.0228 1249.08 38.9379 1247 43.1025C1244.92 38.9381 1240.75 36.0228 1235.76 36.0228C1228.88 36.0228 1223.26 41.6449 1223.26 48.5163C1223.26 61.2181 1237.42 67.0484 1247 77.2513Z" fill="#FFD15C"/>
<path d="M1251.37 78.709C1248.87 81.2077 1245.13 81.2077 1242.63 78.709C1243.67 77.4596 1245.54 76.6266 1245.54 74.9609C1246.58 74.9609 1247.62 74.9609 1248.67 74.9609C1248.67 76.6266 1250.54 77.4596 1251.37 78.709Z" fill="#FFD15C"/>
<path d="M1264.49 43.1025C1265.95 44.7682 1266.36 46.6423 1265.74 47.2669C1265.12 47.8916 1263.24 47.2669 1261.78 45.6012C1260.33 43.9355 1259.91 42.0614 1260.53 41.4368C1261.16 40.8121 1263.03 41.4368 1264.49 43.1025Z" fill="white"/>
<path d="M1249.08 76.2103H1245.33C1244.92 76.2103 1244.71 76.002 1244.71 75.5856C1244.71 75.1692 1244.92 74.9609 1245.33 74.9609H1249.08C1249.5 74.9609 1249.71 75.1692 1249.71 75.5856C1249.5 76.002 1249.29 76.2103 1249.08 76.2103Z" fill="#415A6B"/>
<path d="M1243.46 80.3747C1243.25 80.3747 1242.84 80.1664 1242.84 79.9583C1242.84 79.5419 1243.04 79.3336 1243.25 79.1253C1243.88 78.9171 1244.29 78.709 1244.29 77.876C1244.5 76.4184 1245.96 75.3773 1245.96 75.3773C1246.17 75.169 1246.58 75.169 1246.79 75.5856C1247 75.7939 1247 76.2103 1246.58 76.4185C1246.17 76.6268 1245.33 77.4596 1245.33 78.0843C1245.33 79.3336 1244.71 80.1666 1243.46 80.3747Z" fill="#415A6B"/>
<path d="M1249.5 99.5315C1249.5 100.156 1250.75 100.156 1250.75 99.5315C1251.58 95.9917 1252 91.8271 1250.12 88.7037C1246.79 82.8734 1248.25 75.7939 1248.25 75.7939V75.5856H1247C1246.79 76.2102 1245.75 83.29 1249.08 89.3284C1250.75 92.2435 1250.33 96.1998 1249.5 99.5315Z" fill="#415A6B"/>
<path d="M1227.5 137.451C1226.71 137.451 1226.06 136.809 1226.06 136.016V124.436C1226.06 123.642 1226.71 123 1227.5 123C1228.29 123 1228.94 123.642 1228.94 124.436V136.016C1228.94 136.809 1228.29 137.451 1227.5 137.451Z" fill="#FED843"/>
<path d="M1227.5 172C1226.71 172 1226.06 171.358 1226.06 170.564V158.984C1226.06 158.191 1226.71 157.549 1227.5 157.549C1228.29 157.549 1228.94 158.191 1228.94 158.984V170.564C1228.94 171.358 1228.29 172 1227.5 172Z" fill="#FED843"/>
<path d="M1221.87 137.391L1219.71 132.066C1219.42 131.332 1219.77 130.495 1220.51 130.198C1221.24 129.901 1222.08 130.254 1222.38 130.99L1224.53 136.314C1224.83 137.049 1224.47 137.886 1223.74 138.183C1223 138.481 1222.17 138.123 1221.87 137.391Z" fill="#DD99FF"/>
<path d="M1232.62 164.01L1230.47 158.686C1230.17 157.951 1230.53 157.114 1231.26 156.817C1232 156.517 1232.83 156.875 1233.13 157.609L1235.29 162.934C1235.58 163.668 1235.23 164.505 1234.49 164.802C1233.76 165.1 1232.92 164.743 1232.62 164.01Z" fill="#CC66FF"/>
<path d="M1218.37 140.394L1210.24 132.274C1209.68 131.713 1209.68 130.805 1210.24 130.244C1210.8 129.683 1211.71 129.683 1212.27 130.244L1220.4 138.364C1220.96 138.925 1220.96 139.833 1220.4 140.394C1219.83 140.954 1218.93 140.955 1218.37 140.394Z" fill="#FED843"/>
<path d="M1242.73 164.756L1234.6 156.636C1234.04 156.075 1234.04 155.167 1234.6 154.606C1235.17 154.046 1236.07 154.046 1236.63 154.606L1244.76 162.726C1245.32 163.287 1245.32 164.195 1244.76 164.756C1244.2 165.317 1243.29 165.317 1242.73 164.756Z" fill="#FABE2C"/>
<path d="M1216.02 148.936H1204.44C1203.64 148.936 1203 148.293 1203 147.5C1203 146.707 1203.64 146.064 1204.44 146.064H1216.02C1216.81 146.064 1217.45 146.707 1217.45 147.5C1217.45 148.293 1216.81 148.936 1216.02 148.936Z" fill="#FED843"/>
<path d="M1250.56 148.936H1238.98C1238.19 148.936 1237.55 148.293 1237.55 147.5C1237.55 146.707 1238.19 146.064 1238.98 146.064H1250.56C1251.36 146.064 1252 146.707 1252 147.5C1252 148.293 1251.36 148.936 1250.56 148.936Z" fill="#FABE2C"/>
<path d="M1210.24 164.756C1209.68 164.195 1209.68 163.287 1210.24 162.726L1218.37 154.606C1218.93 154.046 1219.83 154.046 1220.4 154.606C1220.96 155.167 1220.96 156.075 1220.4 156.636L1212.27 164.756C1211.71 165.317 1210.8 165.317 1210.24 164.756Z" fill="#FED843"/>
<path d="M1234.6 140.394C1234.04 139.833 1234.04 138.925 1234.6 138.364L1242.73 130.244C1243.29 129.683 1244.2 129.683 1244.76 130.244C1245.32 130.805 1245.32 131.713 1244.76 132.274L1236.63 140.394C1236.07 140.954 1235.17 140.955 1234.6 140.394Z" fill="#FABE2C"/>
<path d="M1236.1 170.232C1236.9 170.232 1237.54 169.589 1237.54 168.796C1237.54 168.003 1236.9 167.361 1236.1 167.361C1235.31 167.361 1234.67 168.003 1234.67 168.796C1234.67 169.589 1235.31 170.232 1236.1 170.232Z" fill="#FF3377"/>
<path d="M1218.9 127.639C1219.69 127.639 1220.33 126.997 1220.33 126.204C1220.33 125.411 1219.69 124.768 1218.9 124.768C1218.1 124.768 1217.46 125.411 1217.46 126.204C1217.46 126.997 1218.1 127.639 1218.9 127.639Z" fill="#FF6699"/>
<path d="M1216.37 144.335L1211.08 142.091C1210.35 141.782 1210.01 140.939 1210.32 140.209C1210.63 139.478 1211.48 139.14 1212.2 139.447L1217.49 141.691C1218.22 142 1218.56 142.843 1218.25 143.573C1217.94 144.308 1217.09 144.641 1216.37 144.335Z" fill="#DD99FF"/>
<path d="M1242.8 155.553L1237.51 153.309C1236.78 153 1236.44 152.157 1236.75 151.427C1237.06 150.695 1237.91 150.361 1238.63 150.665L1243.92 152.909C1244.65 153.218 1244.99 154.061 1244.68 154.791C1244.37 155.526 1243.52 155.859 1242.8 155.553Z" fill="#CC66FF"/>
<path d="M1248.64 157.91C1249.44 157.91 1250.08 157.267 1250.08 156.475C1250.08 155.682 1249.44 155.039 1248.64 155.039C1247.85 155.039 1247.21 155.682 1247.21 156.475C1247.21 157.267 1247.85 157.91 1248.64 157.91Z" fill="#FF3377"/>
<path d="M1206.36 139.961C1207.15 139.961 1207.79 139.318 1207.79 138.525C1207.79 137.733 1207.15 137.09 1206.36 137.09C1205.56 137.09 1204.92 137.733 1204.92 138.525C1204.92 139.318 1205.56 139.961 1206.36 139.961Z" fill="#FF6699"/>
<path d="M1210.19 154.49C1209.9 153.755 1210.25 152.918 1210.99 152.623L1216.31 150.472C1217.04 150.172 1217.88 150.528 1218.18 151.265C1218.48 152 1218.12 152.837 1217.39 153.133L1212.07 155.283C1211.33 155.582 1210.49 155.222 1210.19 154.49Z" fill="#DD99FF"/>
<path d="M1236.82 143.734C1236.52 143 1236.88 142.163 1237.61 141.867L1242.94 139.717C1243.67 139.415 1244.51 139.773 1244.81 140.51C1245.1 141.245 1244.75 142.082 1244.01 142.377L1238.69 144.528C1237.95 144.827 1237.11 144.466 1236.82 143.734Z" fill="#CC66FF"/>
<path d="M1248.8 140.331C1249.59 140.331 1250.23 139.689 1250.23 138.896C1250.23 138.103 1249.59 137.46 1248.8 137.46C1248 137.46 1247.36 138.103 1247.36 138.896C1247.36 139.689 1248 140.331 1248.8 140.331Z" fill="#FF3377"/>
<path d="M1206.2 157.54C1207 157.54 1207.64 156.897 1207.64 156.104C1207.64 155.311 1207 154.669 1206.2 154.669C1205.41 154.669 1204.77 155.311 1204.77 156.104C1204.77 156.897 1205.41 157.54 1206.2 157.54Z" fill="#FF6699"/>
<path d="M1220.21 164.677C1219.48 164.368 1219.14 163.525 1219.45 162.796L1221.69 157.511C1222 156.779 1222.85 156.438 1223.57 156.751C1224.3 157.061 1224.65 157.903 1224.33 158.632L1222.09 163.918C1221.77 164.656 1220.92 164.986 1220.21 164.677Z" fill="#DD99FF"/>
<path d="M1231.43 138.249C1230.7 137.939 1230.35 137.096 1230.67 136.368L1232.91 131.082C1233.22 130.352 1234.07 130.013 1234.79 130.323C1235.52 130.632 1235.86 131.475 1235.55 132.204L1233.31 137.489C1232.99 138.227 1232.14 138.558 1231.43 138.249Z" fill="#CC66FF"/>
<path d="M1236.47 127.793C1237.27 127.793 1237.91 127.15 1237.91 126.357C1237.91 125.564 1237.27 124.922 1236.47 124.922C1235.68 124.922 1235.04 125.564 1235.04 126.357C1235.04 127.15 1235.68 127.793 1236.47 127.793Z" fill="#FF3377"/>
<path d="M1218.53 170.078C1219.32 170.078 1219.96 169.436 1219.96 168.643C1219.96 167.85 1219.32 167.207 1218.53 167.207C1217.73 167.207 1217.09 167.85 1217.09 168.643C1217.09 169.436 1217.73 170.078 1218.53 170.078Z" fill="#FF6699"/>
<path d="M1227.5 154.678C1226.71 154.678 1226.06 154.036 1226.06 153.242C1226.06 150.867 1224.13 148.936 1221.76 148.936C1220.96 148.936 1220.32 148.293 1220.32 147.5C1220.32 146.707 1220.96 146.064 1221.76 146.064C1224.13 146.064 1226.06 144.133 1226.06 141.758C1226.06 140.964 1226.71 140.322 1227.5 140.322C1228.29 140.322 1228.94 140.964 1228.94 141.758C1228.94 144.133 1230.87 146.064 1233.24 146.064C1234.04 146.064 1234.68 146.707 1234.68 147.5C1234.68 148.293 1234.04 148.936 1233.24 148.936C1230.87 148.936 1228.94 150.867 1228.94 153.242C1228.94 154.036 1228.29 154.678 1227.5 154.678Z" fill="#FF6699"/>
<path d="M1228.94 170.564V158.984C1228.94 158.191 1228.29 157.549 1227.5 157.549V172C1228.29 172 1228.94 171.358 1228.94 170.564Z" fill="#FABE2C"/>
<path d="M1228.94 136.016V124.436C1228.94 123.642 1228.29 123 1227.5 123V137.451C1228.29 137.451 1228.94 136.809 1228.94 136.016Z" fill="#FABE2C"/>
<path d="M1228.94 153.242C1228.94 150.867 1230.87 148.936 1233.24 148.936C1234.04 148.936 1234.68 148.293 1234.68 147.5C1234.68 146.707 1234.04 146.064 1233.24 146.064C1230.87 146.064 1228.94 144.133 1228.94 141.758C1228.94 140.964 1228.29 140.322 1227.5 140.322V154.678C1228.29 154.678 1228.94 154.036 1228.94 153.242Z" fill="#FF3377"/>
<path d="M237.39 110.265C237.39 94.7104 224.781 82.1009 209.227 82.1009C200.119 82.1009 192.213 86.2256 187.065 92.9314C182.078 86.238 173.958 82.1009 164.969 82.1009C149.859 82.1009 137.61 94.35 137.61 109.46C137.61 115.784 138.835 122.53 142.438 127.163L187.5 172.461L229.344 130.382C234.478 125.28 237.39 118.075 237.39 110.265Z" fill="#2F7340"/>
<path d="M187.5 93.3665C187.5 93.3665 212.124 111.076 187.971 171.987L140.731 124.415L137.61 110.648L141.908 94.2559L153.556 84.4321L166.393 81.8654L181.063 86.929L187.5 93.3665Z" fill="#47915A"/>
<path d="M187.971 171.987L140.731 124.415L139.219 117.302L190.778 169.176L187.971 171.987Z" fill="white"/>
<path d="M187.5 174.744L146.147 133.149C139.698 127.147 136 118.948 136 110.648C136 93.89 149.634 80.2558 166.393 80.2558C174.062 80.2558 181.666 83.4808 187.5 89.1574C193.334 83.4808 200.939 80.2558 208.608 80.2558C225.366 80.2558 239 93.89 239 110.648C239 118.948 235.302 127.147 228.854 133.149L187.5 174.744ZM166.393 83.4747C151.409 83.4747 139.219 95.6646 139.219 110.648C139.219 117.957 142.636 125.495 148.361 130.812L148.407 130.857L187.5 170.178L226.616 130.834L226.639 130.812C232.364 125.496 235.781 117.958 235.781 110.648C235.781 95.6646 223.591 83.4747 208.607 83.4747C201.303 83.4747 194.039 86.7843 188.679 92.555L187.5 93.8243L186.321 92.555C180.961 86.7843 173.697 83.4747 166.393 83.4747Z" fill="#1D1D1B"/>
<path d="M187.972 158.213L190.248 160.489L207.95 142.786L205.674 140.51L187.972 158.213Z" fill="#1D1D1B"/>
</svg>
