<svg width="137" height="681" viewBox="0 0 137 681" fill="none" xmlns="http://www.w3.org/2000/svg">
<path d="M80.6512 1.2113C71.429 1.2113 63.7306 8.03147 61.9092 17.1136C61.8153 17.5816 61.1835 17.5819 61.0895 17.1136C59.2681 8.03147 51.5697 1.2113 42.3475 1.2113C24.7415 1.2113 16.4635 23.9743 29.6169 36.2182L59.4481 63.9871C60.6177 65.0757 62.3811 65.0757 63.5507 63.9871L93.382 36.2182C106.535 23.9743 98.2574 1.2113 80.6512 1.2113Z" fill="#FE646F"/>
<path d="M80.6514 1.21075C79.585 1.21075 78.5393 1.30309 77.5203 1.4784C92.8536 4.0598 99.332 24.7511 87.0137 36.2177L58.3154 62.9319L59.4484 63.9865C60.6179 65.0752 62.3814 65.0752 63.5509 63.9865L93.3822 36.2177C106.536 23.9737 98.2576 1.21075 80.6514 1.21075Z" fill="#FD4755"/>
<path d="M80.6512 1.21063C71.429 1.21063 63.7306 8.0308 61.9092 17.1129C61.8153 17.5809 61.1835 17.5812 61.0895 17.1129C59.2681 8.0308 51.5697 1.21063 42.3475 1.21063C24.7415 1.21063 16.4635 23.9736 29.6169 36.2176L59.4481 63.9864C60.6177 65.0751 62.3811 65.0751 63.5507 63.9864L93.382 36.2176C106.535 23.9736 98.2574 1.21063 80.6512 1.21063Z" fill="#FE646F"/>
<path d="M80.6514 1.21075C79.585 1.21075 78.5393 1.30309 77.5203 1.4784C92.8536 4.0598 99.332 24.7511 87.0137 36.2177L58.3154 62.9319L59.4484 63.9865C60.6179 65.0752 62.3814 65.0752 63.5509 63.9865L93.3822 36.2177C106.536 23.9737 98.2576 1.21075 80.6514 1.21075Z" fill="#FD4755"/>
<path d="M58.679 64.8911C27.1542 35.5458 28.2209 36.516 28.2209 36.516C24.2094 32.4829 22 27.1207 22 21.4171C22 13.914 25.8003 6.61386 32.169 2.77705C32.7227 2.44337 33.4302 2.64258 33.7493 3.2221C34.0682 3.80147 33.8778 4.54178 33.3239 4.87545C27.7666 8.22346 24.3144 14.5618 24.3144 21.4171C24.3144 26.4556 26.2714 31.1977 29.8245 34.77C29.8245 34.77 28.7628 33.802 60.2174 63.0822C60.571 63.4113 61.0262 63.5924 61.4994 63.5924C61.9725 63.5924 62.428 63.4112 62.7816 63.082L72.3351 54.1891C72.8126 53.7447 73.544 53.7892 73.9688 54.2889C74.3935 54.7885 74.351 55.5537 73.8734 55.9981L64.3199 64.8911C62.7105 66.3893 60.2854 66.3864 58.679 64.8911ZM77.1394 52.5487C76.8204 52.5487 76.5031 52.4116 76.2744 52.1427C75.8496 51.6431 75.8922 50.8779 76.3698 50.4335L92.6129 35.3133C95.9788 32.1802 98.0336 28.1509 98.5552 23.6613C98.5554 23.6603 98.5554 23.6594 98.5555 23.6584C99.7339 13.5002 92.7054 2.42142 80.6514 2.42142C72.1839 2.42142 64.778 8.70468 63.0419 17.3616C62.8868 18.1348 62.2525 18.6748 61.4994 18.6748C60.7463 18.6748 60.1121 18.1347 59.9571 17.3614C58.2209 8.70468 50.8151 2.42142 42.3477 2.42142C40.8613 2.42142 39.4034 2.59512 38.0144 2.93767C37.3922 3.09135 36.7693 2.68778 36.6226 2.03706C36.4758 1.38618 36.8612 0.734336 37.4834 0.580818C39.0461 0.195328 40.6827 0 42.3475 0C50.9416 0 58.6199 5.66757 61.4994 14.1721C64.3863 5.64594 72.079 0 80.6513 0C93.7517 0 102.235 12.0361 100.853 23.9498C100.853 23.9509 100.853 23.9522 100.853 23.9533C100.262 29.0373 97.9447 33.5911 94.1512 37.1223L77.9081 52.2424C77.6876 52.4478 77.4129 52.5487 77.1394 52.5487Z" fill="black"/>
<path d="M113.924 408.66C108.904 408.66 104.714 412.372 103.723 417.315C103.672 417.57 103.328 417.57 103.277 417.315C102.285 412.372 98.0949 408.66 93.0752 408.66C83.4922 408.66 78.9865 421.05 86.1459 427.714L102.383 442.829C103.02 443.421 103.98 443.421 104.616 442.829L120.853 427.714C128.013 421.05 123.507 408.66 113.924 408.66Z" fill="#E3E394"/>
<path d="M113.924 408.659C113.344 408.659 112.775 408.709 112.22 408.805C120.566 410.21 124.092 421.472 117.387 427.713L101.767 442.254L102.383 442.828C103.02 443.421 103.98 443.421 104.616 442.828L120.854 427.713C128.013 421.049 123.507 408.659 113.924 408.659Z" fill="#E3E394"/>
<path d="M113.924 408.659C108.904 408.659 104.714 412.371 103.723 417.315C103.672 417.569 103.328 417.57 103.277 417.315C102.285 412.371 98.0949 408.659 93.0752 408.659C83.4922 408.659 78.9865 421.049 86.1459 427.713L102.383 442.828C103.02 443.421 103.98 443.421 104.616 442.828L120.853 427.713C128.013 421.049 123.507 408.659 113.924 408.659Z" fill="#E3E394"/>
<path d="M113.924 408.659C113.344 408.659 112.775 408.709 112.22 408.805C120.566 410.21 124.092 421.472 117.387 427.713L101.767 442.254L102.383 442.828C103.02 443.421 103.98 443.421 104.616 442.828L120.854 427.713C128.013 421.049 123.507 408.659 113.924 408.659Z" fill="#E3E394"/>
<path d="M101.965 443.32C84.8055 427.348 85.386 427.876 85.386 427.876C83.2026 425.681 82 422.762 82 419.657C82 415.573 84.0685 411.6 87.535 409.512C87.8364 409.33 88.2215 409.438 88.3952 409.754C88.5688 410.069 88.4651 410.472 88.1636 410.654C85.1388 412.476 83.2598 415.926 83.2598 419.657C83.2598 422.4 84.3249 424.981 86.2589 426.925C86.2589 426.925 85.681 426.399 102.802 442.336C102.994 442.515 103.242 442.614 103.5 442.614C103.757 442.614 104.005 442.515 104.198 442.336L109.398 437.495C109.658 437.253 110.056 437.278 110.287 437.55C110.518 437.822 110.495 438.238 110.235 438.48L105.035 443.32C104.159 444.136 102.839 444.134 101.965 443.32ZM112.013 436.602C111.839 436.602 111.666 436.528 111.542 436.381C111.311 436.11 111.334 435.693 111.594 435.451L120.435 427.221C122.267 425.516 123.385 423.323 123.669 420.879C123.669 420.878 123.669 420.878 123.669 420.877C124.311 415.348 120.485 409.318 113.924 409.318C109.315 409.318 105.284 412.738 104.339 417.45C104.255 417.871 103.91 418.165 103.5 418.165C103.09 418.165 102.745 417.871 102.66 417.45C101.715 412.738 97.6842 409.318 93.0753 409.318C92.2663 409.318 91.4727 409.413 90.7167 409.599C90.378 409.683 90.039 409.463 89.9591 409.109C89.8792 408.755 90.089 408.4 90.4277 408.316C91.2782 408.106 92.1691 408 93.0752 408C97.753 408 101.932 411.085 103.5 415.714C105.071 411.073 109.258 408 113.924 408C121.055 408 125.672 414.551 124.92 421.036C124.92 421.037 124.92 421.037 124.92 421.038C124.598 423.805 123.337 426.284 121.272 428.206L112.431 436.436C112.311 436.548 112.161 436.602 112.013 436.602Z" fill="black"/>
<path d="M95.5 106.451C94.7065 106.451 94.0645 105.809 94.0645 105.016V93.4355C94.0645 92.6421 94.7065 92 95.5 92C96.2935 92 96.9355 92.6421 96.9355 93.4355V105.016C96.9355 105.809 96.2935 106.451 95.5 106.451Z" fill="#FED843"/>
<path d="M95.5 141C94.7065 141 94.0645 140.358 94.0645 139.564V127.984C94.0645 127.191 94.7065 126.549 95.5 126.549C96.2935 126.549 96.9355 127.191 96.9355 127.984V139.564C96.9355 140.358 96.2935 141 95.5 141Z" fill="#FED843"/>
<path d="M89.8672 106.391L87.7139 101.066C87.4167 100.332 87.7727 99.4949 88.5074 99.1977C89.242 98.9006 90.0775 99.2538 90.3775 99.9898L92.5308 105.314C92.828 106.049 92.472 106.886 91.7373 107.183C91.0011 107.481 90.1653 107.123 89.8672 106.391Z" fill="#DD99FF"/>
<path d="M100.623 133.01L98.4692 127.686C98.172 126.951 98.5281 126.114 99.2627 125.817C99.9973 125.517 100.833 125.875 101.133 126.609L103.286 131.934C103.583 132.668 103.227 133.505 102.493 133.802C101.756 134.1 100.921 133.743 100.623 133.01Z" fill="#CC66FF"/>
<path d="M86.3652 109.394L78.2426 101.274C77.6819 100.713 77.6819 99.8047 78.2426 99.244C78.8034 98.6832 79.7119 98.6832 80.2726 99.244L88.3952 107.364C88.9559 107.925 88.9559 108.833 88.3952 109.394C87.8344 109.954 86.926 109.955 86.3652 109.394Z" fill="#FED843"/>
<path d="M110.727 133.756L102.605 125.636C102.044 125.075 102.044 124.167 102.605 123.606C103.166 123.046 104.074 123.046 104.635 123.606L112.757 131.726C113.318 132.287 113.318 133.195 112.757 133.756C112.197 134.317 111.288 134.317 110.727 133.756Z" fill="#FABE2C"/>
<path d="M84.0156 117.936H72.4355C71.6421 117.936 71 117.293 71 116.5C71 115.707 71.6421 115.064 72.4355 115.064H84.0156C84.8091 115.064 85.4512 115.707 85.4512 116.5C85.4512 117.293 84.8091 117.936 84.0156 117.936Z" fill="#FED843"/>
<path d="M118.564 117.936H106.984C106.191 117.936 105.549 117.293 105.549 116.5C105.549 115.707 106.191 115.064 106.984 115.064H118.564C119.358 115.064 120 115.707 120 116.5C120 117.293 119.358 117.936 118.564 117.936Z" fill="#FABE2C"/>
<path d="M78.2426 133.756C77.6819 133.195 77.6819 132.287 78.2426 131.726L86.3652 123.606C86.926 123.046 87.8345 123.046 88.3952 123.606C88.9559 124.167 88.9559 125.075 88.3952 125.636L80.2726 133.756C79.7118 134.317 78.8034 134.317 78.2426 133.756Z" fill="#FED843"/>
<path d="M102.605 109.394C102.044 108.833 102.044 107.925 102.605 107.364L110.727 99.244C111.288 98.6832 112.197 98.6832 112.757 99.244C113.318 99.8047 113.318 100.713 112.757 101.274L104.635 109.394C104.074 109.954 103.166 109.955 102.605 109.394Z" fill="#FABE2C"/>
<path d="M104.104 139.232C104.897 139.232 105.54 138.589 105.54 137.796C105.54 137.003 104.897 136.361 104.104 136.361C103.311 136.361 102.669 137.003 102.669 137.796C102.669 138.589 103.311 139.232 104.104 139.232Z" fill="#FF3377"/>
<path d="M86.8957 96.6393C87.6885 96.6393 88.3312 95.9966 88.3312 95.2038C88.3312 94.4109 87.6885 93.7682 86.8957 93.7682C86.1029 93.7682 85.4601 94.4109 85.4601 95.2038C85.4601 95.9966 86.1029 96.6393 86.8957 96.6393Z" fill="#FF6699"/>
<path d="M84.3689 113.335L79.0809 111.091C78.3519 110.782 78.0099 109.939 78.3211 109.209C78.6295 108.478 79.4819 108.14 80.2024 108.447L85.4904 110.691C86.2194 111 86.5614 111.843 86.2502 112.573C85.9414 113.308 85.0929 113.641 84.3689 113.335Z" fill="#DD99FF"/>
<path d="M110.798 124.553L105.51 122.309C104.781 122 104.439 121.157 104.75 120.427C105.058 119.695 105.908 119.361 106.631 119.665L111.919 121.909C112.648 122.218 112.99 123.061 112.679 123.791C112.37 124.526 111.522 124.859 110.798 124.553Z" fill="#CC66FF"/>
<path d="M116.643 126.91C117.436 126.91 118.078 126.267 118.078 125.475C118.078 124.682 117.436 124.039 116.643 124.039C115.85 124.039 115.207 124.682 115.207 125.475C115.207 126.267 115.85 126.91 116.643 126.91Z" fill="#FF3377"/>
<path d="M74.3572 108.961C75.15 108.961 75.7927 108.318 75.7927 107.525C75.7927 106.733 75.15 106.09 74.3572 106.09C73.5643 106.09 72.9216 106.733 72.9216 107.525C72.9216 108.318 73.5643 108.961 74.3572 108.961Z" fill="#FF6699"/>
<path d="M78.195 123.49C77.8978 122.755 78.2538 121.918 78.9884 121.623L84.3129 119.472C85.0446 119.172 85.883 119.528 86.183 120.265C86.4802 121 86.1242 121.837 85.3895 122.133L80.0651 124.283C79.3262 124.582 78.492 124.222 78.195 123.49Z" fill="#DD99FF"/>
<path d="M104.817 112.734C104.52 112 104.876 111.163 105.611 110.867L110.935 108.717C111.667 108.415 112.505 108.773 112.805 109.51C113.102 110.245 112.746 111.082 112.012 111.377L106.687 113.528C105.948 113.827 105.114 113.466 104.817 112.734Z" fill="#CC66FF"/>
<path d="M116.796 109.331C117.589 109.331 118.232 108.689 118.232 107.896C118.232 107.103 117.589 106.46 116.796 106.46C116.003 106.46 115.361 107.103 115.361 107.896C115.361 108.689 116.003 109.331 116.796 109.331Z" fill="#FF3377"/>
<path d="M74.2037 126.54C74.9966 126.54 75.6393 125.897 75.6393 125.104C75.6393 124.311 74.9966 123.669 74.2037 123.669C73.4109 123.669 72.7682 124.311 72.7682 125.104C72.7682 125.897 73.4109 126.54 74.2037 126.54Z" fill="#FF6699"/>
<path d="M88.2073 133.677C87.4784 133.368 87.1363 132.525 87.4476 131.796L89.6934 126.511C90.0046 125.779 90.8514 125.438 91.5748 125.751C92.3037 126.061 92.6458 126.903 92.3345 127.632L90.0887 132.918C89.7746 133.656 88.9243 133.986 88.2073 133.677Z" fill="#DD99FF"/>
<path d="M99.4254 107.249C98.6964 106.939 98.3543 106.096 98.6656 105.368L100.911 100.082C101.22 99.3519 102.067 99.0126 102.793 99.3225C103.522 99.6323 103.864 100.475 103.553 101.204L101.307 106.489C100.993 107.227 100.142 107.558 99.4254 107.249Z" fill="#CC66FF"/>
<path d="M104.475 96.7927C105.267 96.7927 105.91 96.15 105.91 95.3572C105.91 94.5643 105.267 93.9216 104.475 93.9216C103.682 93.9216 103.039 94.5643 103.039 95.3572C103.039 96.15 103.682 96.7927 104.475 96.7927Z" fill="#FF3377"/>
<path d="M86.5255 139.078C87.3183 139.078 87.961 138.436 87.961 137.643C87.961 136.85 87.3183 136.207 86.5255 136.207C85.7326 136.207 85.0899 136.85 85.0899 137.643C85.0899 138.436 85.7326 139.078 86.5255 139.078Z" fill="#FF6699"/>
<path d="M95.5 123.678C94.7065 123.678 94.0645 123.036 94.0645 122.242C94.0645 119.867 92.1326 117.936 89.7578 117.936C88.9643 117.936 88.3223 117.293 88.3223 116.5C88.3223 115.707 88.9643 115.064 89.7578 115.064C92.1326 115.064 94.0645 113.133 94.0645 110.758C94.0645 109.964 94.7065 109.322 95.5 109.322C96.2935 109.322 96.9355 109.964 96.9355 110.758C96.9355 113.133 98.8674 115.064 101.242 115.064C102.036 115.064 102.678 115.707 102.678 116.5C102.678 117.293 102.036 117.936 101.242 117.936C98.8674 117.936 96.9355 119.867 96.9355 122.242C96.9355 123.036 96.2935 123.678 95.5 123.678Z" fill="#FF6699"/>
<path d="M96.9355 139.564V127.984C96.9355 127.191 96.2935 126.549 95.5 126.549V141C96.2935 141 96.9355 140.358 96.9355 139.564Z" fill="#FABE2C"/>
<path d="M96.9355 105.016V93.4355C96.9355 92.6421 96.2935 92 95.5 92V106.451C96.2935 106.451 96.9355 105.809 96.9355 105.016Z" fill="#FABE2C"/>
<path d="M96.9355 122.242C96.9355 119.867 98.8674 117.936 101.242 117.936C102.036 117.936 102.678 117.293 102.678 116.5C102.678 115.707 102.036 115.064 101.242 115.064C98.8674 115.064 96.9355 113.133 96.9355 110.758C96.9355 109.964 96.2935 109.322 95.5 109.322V123.678C96.2935 123.678 96.9355 123.036 96.9355 122.242Z" fill="#FF3377"/>
<path d="M38.5 360.451C37.7065 360.451 37.0645 359.809 37.0645 359.016V347.436C37.0645 346.642 37.7065 346 38.5 346C39.2935 346 39.9355 346.642 39.9355 347.436V359.016C39.9355 359.809 39.2935 360.451 38.5 360.451Z" fill="#FED843"/>
<path d="M38.5 395C37.7065 395 37.0645 394.358 37.0645 393.564V381.984C37.0645 381.191 37.7065 380.549 38.5 380.549C39.2935 380.549 39.9355 381.191 39.9355 381.984V393.564C39.9355 394.358 39.2935 395 38.5 395Z" fill="#FED843"/>
<path d="M32.8672 360.391L30.7139 355.066C30.4167 354.332 30.7727 353.495 31.5074 353.198C32.242 352.901 33.0775 353.254 33.3775 353.99L35.5308 359.314C35.828 360.049 35.472 360.886 34.7373 361.183C34.0011 361.481 33.1653 361.123 32.8672 360.391Z" fill="#DD99FF"/>
<path d="M43.6225 387.01L41.4692 381.686C41.172 380.951 41.5281 380.114 42.2627 379.817C42.9973 379.517 43.8328 379.875 44.1328 380.609L46.2861 385.934C46.5833 386.668 46.2273 387.505 45.4927 387.802C44.7564 388.1 43.9207 387.743 43.6225 387.01Z" fill="#CC66FF"/>
<path d="M29.3652 363.394L21.2426 355.274C20.6819 354.713 20.6819 353.805 21.2426 353.244C21.8034 352.683 22.7119 352.683 23.2726 353.244L31.3952 361.364C31.9559 361.925 31.9559 362.833 31.3952 363.394C30.8344 363.954 29.926 363.955 29.3652 363.394Z" fill="#FED843"/>
<path d="M53.7274 387.756L45.6048 379.636C45.0441 379.075 45.0441 378.167 45.6048 377.606C46.1655 377.046 47.074 377.046 47.6348 377.606L55.7574 385.726C56.3181 386.287 56.3181 387.195 55.7574 387.756C55.1966 388.317 54.2882 388.317 53.7274 387.756Z" fill="#FABE2C"/>
<path d="M27.0156 371.936H15.4355C14.6421 371.936 14 371.293 14 370.5C14 369.707 14.6421 369.064 15.4355 369.064H27.0156C27.8091 369.064 28.4512 369.707 28.4512 370.5C28.4512 371.293 27.8091 371.936 27.0156 371.936Z" fill="#FED843"/>
<path d="M61.5645 371.936H49.9844C49.1909 371.936 48.5488 371.293 48.5488 370.5C48.5488 369.707 49.1909 369.064 49.9844 369.064H61.5645C62.3579 369.064 63 369.707 63 370.5C63 371.293 62.3579 371.936 61.5645 371.936Z" fill="#FABE2C"/>
<path d="M21.2426 387.756C20.6819 387.195 20.6819 386.287 21.2426 385.726L29.3652 377.606C29.926 377.046 30.8345 377.046 31.3952 377.606C31.9559 378.167 31.9559 379.075 31.3952 379.636L23.2726 387.756C22.7118 388.317 21.8034 388.317 21.2426 387.756Z" fill="#FED843"/>
<path d="M45.6048 363.394C45.0441 362.833 45.0441 361.925 45.6048 361.364L53.7274 353.244C54.2881 352.683 55.1966 352.683 55.7574 353.244C56.3181 353.805 56.3181 354.713 55.7574 355.274L47.6348 363.394C47.074 363.954 46.1656 363.955 45.6048 363.394Z" fill="#FABE2C"/>
<path d="M47.1043 393.232C47.8971 393.232 48.5399 392.589 48.5399 391.796C48.5399 391.003 47.8971 390.361 47.1043 390.361C46.3115 390.361 45.6688 391.003 45.6688 391.796C45.6688 392.589 46.3115 393.232 47.1043 393.232Z" fill="#FF3377"/>
<path d="M29.8957 350.639C30.6885 350.639 31.3312 349.997 31.3312 349.204C31.3312 348.411 30.6885 347.768 29.8957 347.768C29.1029 347.768 28.4601 348.411 28.4601 349.204C28.4601 349.997 29.1029 350.639 29.8957 350.639Z" fill="#FF6699"/>
<path d="M27.3689 367.335L22.0809 365.091C21.3519 364.782 21.0099 363.939 21.3211 363.209C21.6295 362.478 22.4819 362.14 23.2024 362.447L28.4904 364.691C29.2194 365 29.5614 365.843 29.2502 366.573C28.9414 367.308 28.0929 367.641 27.3689 367.335Z" fill="#DD99FF"/>
<path d="M53.7976 378.553L48.5096 376.309C47.7806 376 47.4386 375.157 47.7498 374.427C48.0583 373.695 48.9078 373.361 49.6311 373.665L54.9191 375.909C55.6481 376.218 55.9901 377.061 55.6789 377.791C55.3701 378.526 54.5216 378.859 53.7976 378.553Z" fill="#CC66FF"/>
<path d="M59.6428 380.91C60.4357 380.91 61.0784 380.267 61.0784 379.475C61.0784 378.682 60.4357 378.039 59.6428 378.039C58.85 378.039 58.2073 378.682 58.2073 379.475C58.2073 380.267 58.85 380.91 59.6428 380.91Z" fill="#FF3377"/>
<path d="M17.3572 362.961C18.15 362.961 18.7927 362.318 18.7927 361.525C18.7927 360.733 18.15 360.09 17.3572 360.09C16.5643 360.09 15.9216 360.733 15.9216 361.525C15.9216 362.318 16.5643 362.961 17.3572 362.961Z" fill="#FF6699"/>
<path d="M21.195 377.49C20.8978 376.755 21.2538 375.918 21.9884 375.623L27.3129 373.472C28.0446 373.172 28.883 373.528 29.183 374.265C29.4802 375 29.1242 375.837 28.3895 376.133L23.0651 378.283C22.3262 378.582 21.492 378.222 21.195 377.49Z" fill="#DD99FF"/>
<path d="M47.8171 366.734C47.5199 366 47.876 365.163 48.6106 364.867L53.935 362.717C54.6668 362.415 55.5051 362.773 55.8052 363.51C56.1023 364.245 55.7463 365.082 55.0117 365.377L49.6872 367.528C48.9483 367.827 48.1142 367.466 47.8171 366.734Z" fill="#CC66FF"/>
<path d="M59.7963 363.331C60.5891 363.331 61.2318 362.689 61.2318 361.896C61.2318 361.103 60.5891 360.46 59.7963 360.46C59.0034 360.46 58.3607 361.103 58.3607 361.896C58.3607 362.689 59.0034 363.331 59.7963 363.331Z" fill="#FF3377"/>
<path d="M17.2037 380.54C17.9966 380.54 18.6393 379.897 18.6393 379.104C18.6393 378.311 17.9966 377.669 17.2037 377.669C16.4109 377.669 15.7682 378.311 15.7682 379.104C15.7682 379.897 16.4109 380.54 17.2037 380.54Z" fill="#FF6699"/>
<path d="M31.2073 387.677C30.4784 387.368 30.1363 386.525 30.4476 385.796L32.6934 380.511C33.0046 379.779 33.8514 379.438 34.5748 379.751C35.3037 380.061 35.6458 380.904 35.3345 381.632L33.0887 386.918C32.7746 387.656 31.9243 387.986 31.2073 387.677Z" fill="#DD99FF"/>
<path d="M42.4254 361.249C41.6964 360.939 41.3543 360.097 41.6656 359.368L43.9114 354.082C44.2199 353.352 45.0666 353.013 45.7928 353.323C46.5217 353.632 46.8638 354.475 46.5525 355.204L44.3067 360.489C43.9926 361.227 43.1424 361.558 42.4254 361.249Z" fill="#CC66FF"/>
<path d="M47.4745 350.793C48.2674 350.793 48.9101 350.15 48.9101 349.357C48.9101 348.564 48.2674 347.922 47.4745 347.922C46.6817 347.922 46.039 348.564 46.039 349.357C46.039 350.15 46.6817 350.793 47.4745 350.793Z" fill="#FF3377"/>
<path d="M29.5255 393.078C30.3183 393.078 30.961 392.436 30.961 391.643C30.961 390.85 30.3183 390.207 29.5255 390.207C28.7326 390.207 28.0899 390.85 28.0899 391.643C28.0899 392.436 28.7326 393.078 29.5255 393.078Z" fill="#FF6699"/>
<path d="M38.5 377.678C37.7065 377.678 37.0645 377.036 37.0645 376.242C37.0645 373.867 35.1326 371.936 32.7578 371.936C31.9643 371.936 31.3223 371.293 31.3223 370.5C31.3223 369.707 31.9643 369.064 32.7578 369.064C35.1326 369.064 37.0645 367.133 37.0645 364.758C37.0645 363.964 37.7065 363.322 38.5 363.322C39.2935 363.322 39.9355 363.964 39.9355 364.758C39.9355 367.133 41.8674 369.064 44.2422 369.064C45.0357 369.064 45.6777 369.707 45.6777 370.5C45.6777 371.293 45.0357 371.936 44.2422 371.936C41.8674 371.936 39.9355 373.867 39.9355 376.242C39.9355 377.036 39.2935 377.678 38.5 377.678Z" fill="#FF6699"/>
<path d="M39.9355 393.564V381.984C39.9355 381.191 39.2935 380.549 38.5 380.549V395C39.2935 395 39.9355 394.358 39.9355 393.564Z" fill="#FABE2C"/>
<path d="M39.9355 359.016V347.436C39.9355 346.642 39.2935 346 38.5 346V360.451C39.2935 360.451 39.9355 359.809 39.9355 359.016Z" fill="#FABE2C"/>
<path d="M39.9355 376.242C39.9355 373.867 41.8674 371.936 44.2422 371.936C45.0357 371.936 45.6777 371.293 45.6777 370.5C45.6777 369.707 45.0357 369.064 44.2422 369.064C41.8674 369.064 39.9355 367.133 39.9355 364.758C39.9355 363.964 39.2935 363.322 38.5 363.322V377.678C39.2935 377.678 39.9355 377.036 39.9355 376.242Z" fill="#FF3377"/>
<path d="M101.066 272.153L102.799 277.257C102.964 277.743 103.438 278.071 103.972 278.071H109.581C110.775 278.071 111.272 279.534 110.306 280.205L105.768 283.359C105.336 283.66 105.155 284.192 105.32 284.678L107.053 289.782C107.422 290.868 106.122 291.772 105.156 291.1L100.618 287.946C100.186 287.646 99.6007 287.646 99.1686 287.946L94.6307 291.1C93.6645 291.772 92.3645 290.868 92.7335 289.782L94.4668 284.678C94.6319 284.192 94.451 283.66 94.0189 283.359L89.481 280.205C88.5148 279.534 89.0114 278.071 90.2057 278.071H95.8149C96.349 278.071 96.8223 277.742 96.9874 277.257L98.7207 272.153C99.0897 271.066 100.697 271.066 101.066 272.153Z" fill="#FEE565"/>
<path d="M96.5352 286.22C96.7003 285.734 96.5194 285.202 96.0873 284.901L94.3305 283.68C94.5246 283.971 94.5832 284.335 94.4668 284.678L92.7335 289.781C92.3644 290.868 93.6645 291.772 94.6307 291.1L94.9539 290.875L96.5352 286.22Z" fill="#FDD62F"/>
<path d="M101.066 272.153C100.697 271.066 99.0899 271.066 98.7208 272.153L96.9874 277.257C96.8223 277.743 96.349 278.071 95.8149 278.071H93.0855H90.2059C89.0115 278.071 88.515 279.534 89.4812 280.205L94.0191 283.359C94.4512 283.66 94.6321 284.192 94.467 284.678L92.7337 289.782C92.3647 290.868 93.6647 291.772 94.6309 291.1L96.821 289.578C96.7412 289.355 96.7312 289.1 96.8214 288.835L98.5548 283.732C98.7198 283.246 98.539 282.713 98.1069 282.413L96.0727 280.999C95.4453 280.563 95.7678 279.614 96.5433 279.614H97.8833C98.4174 279.614 98.8908 279.285 99.0559 278.799L100.789 273.695C100.896 273.38 101.108 273.16 101.363 273.027L101.066 272.153Z" fill="#FDE044"/>
<path d="M69.7786 273.966L70.75 276.826C70.8425 277.098 71.1078 277.283 71.4072 277.283H74.5507C75.22 277.283 75.4983 278.102 74.9568 278.479L72.4137 280.246C72.1716 280.415 72.0701 280.713 72.1627 280.985L73.134 283.846C73.3409 284.455 72.6124 284.961 72.0708 284.585L69.5276 282.817C69.2855 282.649 68.9576 282.649 68.7153 282.817L66.1722 284.585C65.6307 284.961 64.9021 284.455 65.1089 283.846L66.0803 280.985C66.1728 280.713 66.0714 280.415 65.8293 280.246L63.2861 278.479C62.7446 278.102 63.023 277.283 63.6922 277.283H66.8359C67.1353 277.283 67.4006 277.099 67.4931 276.826L68.4645 273.966C68.6713 273.357 69.5718 273.357 69.7786 273.966Z" fill="#FDAEE0"/>
<path d="M67.1623 283.119L68.1337 280.258C68.2262 279.986 68.1248 279.688 67.8827 279.519L65.3396 277.752C65.162 277.628 65.074 277.457 65.0577 277.283H63.6932C63.0239 277.283 62.7456 278.102 63.2871 278.479L65.8302 280.246C66.0724 280.414 66.1738 280.713 66.0813 280.985L65.1099 283.845C64.903 284.454 65.6315 284.961 66.1732 284.584L67.325 283.784C67.1577 283.622 67.0735 283.38 67.1623 283.119Z" fill="#FD94D3"/>
<path d="M130.221 273.966L129.25 276.826C129.157 277.098 128.892 277.283 128.593 277.283H125.449C124.78 277.283 124.502 278.102 125.043 278.479L127.586 280.246C127.828 280.415 127.93 280.713 127.837 280.985L126.866 283.846C126.659 284.455 127.388 284.961 127.929 284.585L130.472 282.817C130.714 282.649 131.042 282.649 131.285 282.817L133.828 284.585C134.369 284.961 135.098 284.455 134.891 283.846L133.92 280.985C133.827 280.713 133.929 280.415 134.171 280.246L136.714 278.479C137.255 278.102 136.977 277.283 136.308 277.283H133.164C132.865 277.283 132.6 277.099 132.507 276.826L131.536 273.966C131.329 273.357 130.428 273.357 130.221 273.966Z" fill="#C8EFFD"/>
<path d="M129.012 283.215L129.983 280.355C130.076 280.083 129.974 279.784 129.732 279.616L127.189 277.848C126.979 277.702 126.893 277.489 126.905 277.283H125.449C124.78 277.283 124.502 278.102 125.043 278.479L127.586 280.246C127.828 280.415 127.93 280.713 127.837 280.985L126.866 283.846C126.659 284.455 127.388 284.961 127.929 284.585L129.089 283.778C128.982 283.624 128.94 283.426 129.012 283.215Z" fill="#9BE5FB"/>
<path d="M74.4021 257.293L75.0258 259.13C75.0852 259.305 75.2555 259.423 75.4478 259.423H77.466C77.8958 259.423 78.0744 259.949 77.7267 260.191L76.0939 261.326C75.9385 261.434 75.8734 261.625 75.9328 261.8L76.5565 263.637C76.6894 264.028 76.2215 264.353 75.8739 264.111L74.241 262.976C74.0856 262.868 73.8749 262.868 73.7195 262.976L72.0867 264.111C71.739 264.353 71.2712 264.028 71.4041 263.637L72.0278 261.8C72.0871 261.625 72.0221 261.434 71.8667 261.326L70.2338 260.191C69.8861 259.949 70.0649 259.423 70.4945 259.423H72.5128C72.705 259.423 72.8753 259.305 72.9347 259.13L73.5584 257.293C73.6911 256.902 74.2693 256.902 74.4021 257.293Z" fill="#FDC36D"/>
<path d="M110.321 273.82L110.443 271.866C110.668 268.269 113.195 265.18 116.791 264.108C116.873 264.084 116.96 264.124 116.992 264.201L118.94 268.968C118.979 269.065 118.911 269.171 118.803 269.181L118.033 269.253C115.646 269.476 113.449 270.596 111.924 272.366L110.585 273.92C110.493 274.026 110.313 273.958 110.321 273.82Z" fill="#B289C8"/>
<path d="M89.6787 273.82L89.5567 271.866C89.3324 268.269 86.805 265.18 83.2092 264.108C83.1271 264.084 83.0393 264.124 83.008 264.201L81.0599 268.968C81.0203 269.065 81.0884 269.171 81.1965 269.181L81.967 269.253C84.3538 269.476 86.5508 270.596 88.0762 272.366L89.4148 273.92C89.5065 274.026 89.6873 273.958 89.6787 273.82Z" fill="#C8EFFD"/>
<path d="M87.8812 298.207L87.4785 296.287C86.7374 292.754 83.7886 290.029 80.0726 289.442C79.9877 289.428 79.9066 289.48 79.8866 289.56L78.645 294.539C78.6199 294.64 78.7026 294.736 78.8111 294.732L79.5845 294.702C81.9807 294.607 84.3181 295.426 86.0842 296.978L87.6342 298.34C87.7406 298.433 87.9096 298.342 87.8812 298.207Z" fill="#9DF8D3"/>
<path d="M93.3836 323.67C92.748 323.67 92.2328 323.177 92.2328 322.569V311.538C92.2328 308.806 91.5299 306.085 90.2 303.668C89.904 303.13 90.1199 302.464 90.6822 302.181C91.2446 301.898 91.9405 302.104 92.2365 302.643C93.7397 305.374 94.5342 308.45 94.5342 311.538V322.569C94.5343 323.177 94.0192 323.67 93.3836 323.67Z" fill="#9DF8D3"/>
<path d="M70.5886 307.723C72.4618 307.723 73.9804 306.27 73.9804 304.478C73.9804 302.686 72.4618 301.233 70.5886 301.233C68.7153 301.233 67.1968 302.686 67.1968 304.478C67.1968 306.27 68.7153 307.723 70.5886 307.723Z" fill="#EA596C"/>
<path d="M81.8999 323.67C81.2644 323.67 80.7492 323.177 80.7492 322.569V317.02C80.7492 314.945 79.8316 312.952 78.2319 311.551L76.8886 310.374C76.4197 309.963 76.3877 309.267 76.8168 308.819C77.246 308.37 77.9739 308.339 78.4426 308.75L79.7859 309.926C81.8606 311.743 83.0506 314.329 83.0506 317.02V322.569C83.0506 323.177 82.5354 323.67 81.8999 323.67Z" fill="#F48C99"/>
<path d="M112.119 298.207L112.521 296.287C113.263 292.754 116.211 290.029 119.927 289.442C120.012 289.428 120.093 289.48 120.113 289.56L121.355 294.539C121.38 294.64 121.297 294.736 121.189 294.732L120.415 294.702C118.019 294.607 115.682 295.426 113.916 296.978L112.366 298.34C112.259 298.433 112.09 298.342 112.119 298.207Z" fill="#FDCF8A"/>
<path d="M106.617 323.67C105.981 323.67 105.466 323.177 105.466 322.569V311.538C105.466 308.45 106.26 305.374 107.763 302.643C108.059 302.105 108.755 301.898 109.318 302.181C109.88 302.464 110.096 303.13 109.8 303.668C108.47 306.085 107.767 308.806 107.767 311.537V322.569C107.767 323.177 107.252 323.67 106.617 323.67Z" fill="#F8A7B0"/>
<path d="M129.411 307.723C131.285 307.723 132.803 306.27 132.803 304.478C132.803 302.686 131.285 301.233 129.411 301.233C127.538 301.233 126.02 302.686 126.02 304.478C126.02 306.27 127.538 307.723 129.411 307.723Z" fill="#FDAEE0"/>
<path d="M118.1 323.67C117.465 323.67 116.949 323.177 116.949 322.569V317.02C116.949 314.329 118.139 311.744 120.214 309.926L121.558 308.75C122.026 308.339 122.754 308.37 123.183 308.819C123.612 309.267 123.58 309.964 123.111 310.374L121.768 311.551C120.168 312.952 119.251 314.945 119.251 317.02V322.569C119.251 323.177 118.736 323.67 118.1 323.67Z" fill="#B3CAEB"/>
<path d="M125.598 257.293L124.974 259.13C124.915 259.305 124.744 259.423 124.552 259.423H122.534C122.104 259.423 121.926 259.949 122.273 260.191L123.906 261.326C124.062 261.434 124.127 261.625 124.067 261.8L123.444 263.637C123.311 264.028 123.778 264.353 124.126 264.111L125.759 262.976C125.914 262.868 126.125 262.868 126.28 262.976L127.913 264.111C128.261 264.353 128.729 264.028 128.596 263.637L127.972 261.8C127.913 261.625 127.978 261.434 128.133 261.326L129.766 260.191C130.114 259.949 129.935 259.423 129.505 259.423H127.487C127.295 259.423 127.125 259.305 127.065 259.13L126.442 257.293C126.309 256.902 125.731 256.902 125.598 257.293Z" fill="#FDAEE0"/>
<path d="M100 324.637C99.3645 324.637 98.8492 324.144 98.8492 323.536V295.561C98.8492 294.953 99.3645 294.46 100 294.46C100.636 294.46 101.151 294.953 101.151 295.561V323.536C101.151 324.144 100.636 324.637 100 324.637Z" fill="#FDC36D"/>
<path d="M100 331C99.3645 331 98.8492 330.507 98.8492 329.899V327.543C98.8492 326.935 99.3645 326.442 100 326.442C100.636 326.442 101.151 326.935 101.151 327.543V329.899C101.151 330.507 100.636 331 100 331Z" fill="#FDC36D"/>
<path d="M82.8092 279.494C82.6105 279.494 82.4094 279.445 82.2259 279.341L80.4643 278.348C79.9169 278.039 79.7346 277.364 80.0574 276.841C80.3802 276.317 81.0857 276.142 81.6332 276.451L83.3947 277.445C83.9422 277.754 84.1245 278.428 83.8016 278.952C83.587 279.3 83.2032 279.494 82.8092 279.494Z" fill="#EA596C"/>
<path d="M117.191 279.494C116.797 279.494 116.413 279.301 116.198 278.952C115.876 278.428 116.058 277.754 116.605 277.445L118.367 276.451C118.915 276.142 119.62 276.317 119.943 276.841C120.266 277.364 120.083 278.039 119.536 278.348L117.774 279.341C117.591 279.445 117.389 279.494 117.191 279.494Z" fill="#13E29D"/>
<path d="M99.8935 266.316C99.258 266.316 98.7427 265.823 98.7427 265.215V263.361C98.7427 262.753 99.258 262.26 99.8935 262.26C100.529 262.26 101.044 262.753 101.044 263.361V265.215C101.044 265.823 100.529 266.316 99.8935 266.316Z" fill="#FE74C5"/>
<path d="M88.5474 483.781L89.4375 486.402C89.5222 486.652 89.7653 486.82 90.0396 486.82H92.92C93.5333 486.82 93.7882 487.571 93.2921 487.916L90.9618 489.536C90.7399 489.69 90.647 489.963 90.7318 490.213L91.6219 492.834C91.8114 493.392 91.1438 493.856 90.6477 493.511L88.3174 491.891C88.0955 491.737 87.795 491.737 87.5731 491.891L85.2428 493.511C84.7467 493.856 84.0791 493.392 84.2686 492.834L85.1587 490.213C85.2435 489.963 85.1506 489.69 84.9287 489.536L82.5984 487.916C82.1023 487.571 82.3572 486.82 82.9705 486.82H85.8509C86.1252 486.82 86.3683 486.652 86.4531 486.402L87.3431 483.781C87.5326 483.223 88.3578 483.223 88.5474 483.781Z" fill="#FEE565"/>
<path d="M86.2208 491.005C86.3055 490.755 86.2126 490.482 85.9908 490.328L85.0886 489.701C85.1883 489.85 85.2184 490.037 85.1586 490.213L84.2685 492.834C84.079 493.392 84.7466 493.856 85.2427 493.511L85.4088 493.395L86.2208 491.005Z" fill="#FDD62F"/>
<path d="M88.5474 483.781C88.3579 483.223 87.5327 483.223 87.3431 483.781L86.453 486.402C86.3683 486.652 86.1252 486.82 85.8509 486.82H84.4493H82.9706C82.3573 486.82 82.1023 487.571 82.5985 487.916L84.9288 489.536C85.1506 489.69 85.2435 489.963 85.1588 490.213L84.2687 492.834C84.0792 493.392 84.7468 493.856 85.2429 493.511L86.3676 492.729C86.3266 492.615 86.3215 492.484 86.3678 492.348L87.2579 489.727C87.3427 489.478 87.2498 489.204 87.0279 489.05L85.9833 488.324C85.6611 488.1 85.8267 487.612 86.2249 487.612H86.9131C87.1874 487.612 87.4304 487.443 87.5152 487.194L88.4053 484.573C88.4602 484.412 88.5692 484.298 88.6999 484.23L88.5474 483.781Z" fill="#FDE044"/>
<path d="M72.4809 484.712L72.9797 486.181C73.0272 486.321 73.1635 486.416 73.3172 486.416H74.9314C75.2751 486.416 75.418 486.836 75.14 487.03L73.8341 487.937C73.7097 488.024 73.6576 488.177 73.7052 488.317L74.204 489.786C74.3102 490.098 73.9361 490.358 73.658 490.165L72.352 489.257C72.2277 489.171 72.0593 489.171 71.9349 489.257L70.629 490.165C70.3509 490.358 69.9767 490.098 70.0829 489.786L70.5818 488.317C70.6293 488.177 70.5772 488.024 70.4529 487.937L69.1469 487.03C68.8689 486.836 69.0118 486.416 69.3555 486.416H70.9698C71.1235 486.416 71.2597 486.321 71.3073 486.181L71.8061 484.712C71.9123 484.4 72.3747 484.4 72.4809 484.712Z" fill="#FDAEE0"/>
<path d="M71.1374 489.412L71.6362 487.944C71.6837 487.804 71.6317 487.65 71.5073 487.564L70.2014 486.656C70.1102 486.593 70.065 486.505 70.0566 486.415H69.356C69.0123 486.415 68.8694 486.836 69.1474 487.03L70.4534 487.937C70.5777 488.024 70.6298 488.177 70.5823 488.317L70.0834 489.785C69.9772 490.098 70.3513 490.358 70.6294 490.165L71.2209 489.754C71.135 489.671 71.0918 489.546 71.1374 489.412Z" fill="#FD94D3"/>
<path d="M103.519 484.712L103.02 486.181C102.973 486.321 102.837 486.416 102.683 486.416H101.069C100.725 486.416 100.582 486.836 100.86 487.03L102.166 487.937C102.29 488.024 102.342 488.177 102.295 488.317L101.796 489.786C101.69 490.098 102.064 490.358 102.342 490.165L103.648 489.257C103.772 489.171 103.941 489.171 104.065 489.257L105.371 490.165C105.649 490.358 106.023 490.098 105.917 489.786L105.418 488.317C105.371 488.177 105.423 488.024 105.547 487.937L106.853 487.03C107.131 486.836 106.988 486.416 106.645 486.416H105.03C104.877 486.416 104.74 486.321 104.693 486.181L104.194 484.712C104.088 484.4 103.625 484.4 103.519 484.712Z" fill="#C8EFFD"/>
<path d="M102.898 489.462L103.397 487.993C103.444 487.853 103.392 487.7 103.268 487.614L101.962 486.706C101.854 486.631 101.81 486.521 101.816 486.416H101.069C100.725 486.416 100.582 486.836 100.86 487.03L102.166 487.937C102.29 488.024 102.342 488.177 102.295 488.317L101.796 489.786C101.69 490.098 102.064 490.358 102.342 490.165L102.938 489.751C102.883 489.672 102.861 489.57 102.898 489.462Z" fill="#9BE5FB"/>
<path d="M74.8551 476.151L75.1754 477.094C75.2059 477.183 75.2934 477.244 75.3921 477.244H76.4285C76.6492 477.244 76.7409 477.514 76.5623 477.638L75.7239 478.221C75.644 478.277 75.6106 478.375 75.6411 478.465L75.9614 479.408C76.0296 479.609 75.7894 479.776 75.6109 479.652L74.7724 479.069C74.6926 479.013 74.5844 479.013 74.5046 479.069L73.6661 479.652C73.4876 479.776 73.2473 479.609 73.3156 479.408L73.6358 478.465C73.6663 478.375 73.6329 478.277 73.5531 478.221L72.7146 477.638C72.5361 477.514 72.6279 477.244 72.8485 477.244H73.8849C73.9836 477.244 74.0711 477.183 74.1016 477.094L74.4219 476.151C74.49 475.95 74.7869 475.95 74.8551 476.151Z" fill="#FDC36D"/>
<path d="M93.3001 484.638L93.3628 483.634C93.478 481.787 94.7758 480.201 96.6222 479.65C96.6644 479.638 96.7095 479.658 96.7255 479.698L97.7259 482.146C97.7463 482.196 97.7113 482.25 97.6558 482.255L97.2601 482.292C96.0345 482.407 94.9063 482.982 94.1229 483.891L93.4356 484.688C93.3885 484.743 93.2957 484.708 93.3001 484.638Z" fill="#B289C8"/>
<path d="M82.6999 484.638L82.6373 483.634C82.5221 481.787 81.2242 480.201 79.3777 479.65C79.3356 479.638 79.2905 479.658 79.2744 479.698L78.274 482.146C78.2537 482.196 78.2887 482.25 78.3442 482.255L78.7398 482.292C79.9655 482.407 81.0937 482.982 81.877 483.891L82.5644 484.688C82.6115 484.743 82.7043 484.708 82.6999 484.638Z" fill="#C8EFFD"/>
<path d="M81.7769 497.16L81.57 496.174C81.1895 494.36 79.6752 492.961 77.767 492.659C77.7234 492.652 77.6818 492.679 77.6715 492.72L77.0339 495.277C77.021 495.329 77.0635 495.378 77.1192 495.376L77.5164 495.36C78.7468 495.312 79.9471 495.732 80.8541 496.529L81.65 497.229C81.7046 497.276 81.7914 497.23 81.7769 497.16Z" fill="#9DF8D3"/>
<path d="M84.6023 510.236C84.276 510.236 84.0114 509.983 84.0114 509.67V504.006C84.0114 502.603 83.6505 501.206 82.9675 499.965C82.8156 499.688 82.9264 499.347 83.2152 499.201C83.5039 499.056 83.8613 499.162 84.0133 499.438C84.7852 500.841 85.1932 502.42 85.1932 504.006V509.671C85.1933 509.983 84.9288 510.236 84.6023 510.236Z" fill="#9DF8D3"/>
<path d="M72.8968 502.047C73.8587 502.047 74.6385 501.301 74.6385 500.38C74.6385 499.46 73.8587 498.714 72.8968 498.714C71.9349 498.714 71.1551 499.46 71.1551 500.38C71.1551 501.301 71.9349 502.047 72.8968 502.047Z" fill="#EA596C"/>
<path d="M78.7053 510.236C78.379 510.236 78.1144 509.983 78.1144 509.67V506.821C78.1144 505.756 77.6432 504.732 76.8218 504.012L76.132 503.408C75.8912 503.197 75.8747 502.84 76.0951 502.61C76.3155 502.379 76.6892 502.363 76.9299 502.574L77.6197 503.178C78.6851 504.111 79.2962 505.439 79.2962 506.821V509.67C79.2962 509.983 79.0317 510.236 78.7053 510.236Z" fill="#F48C99"/>
<path d="M94.2231 497.16L94.4299 496.174C94.8105 494.36 96.3248 492.961 98.233 492.659C98.2765 492.652 98.3182 492.679 98.3284 492.72L98.966 495.277C98.9789 495.329 98.9364 495.378 98.8807 495.376L98.4835 495.36C97.2531 495.312 96.0528 495.732 95.1458 496.529L94.3499 497.229C94.2954 497.276 94.2085 497.23 94.2231 497.16Z" fill="#FDCF8A"/>
<path d="M91.3977 510.236C91.0713 510.236 90.8068 509.983 90.8068 509.67V504.006C90.8068 502.42 91.2147 500.841 91.9866 499.438C92.1386 499.162 92.4959 499.056 92.7848 499.201C93.0735 499.347 93.1844 499.688 93.0324 499.965C92.3495 501.206 91.9885 502.603 91.9885 504.006V509.67C91.9886 509.983 91.724 510.236 91.3977 510.236Z" fill="#F8A7B0"/>
<path d="M103.103 502.047C104.065 502.047 104.845 501.301 104.845 500.38C104.845 499.46 104.065 498.714 103.103 498.714C102.141 498.714 101.361 499.46 101.361 500.38C101.361 501.301 102.141 502.047 103.103 502.047Z" fill="#FDAEE0"/>
<path d="M97.2947 510.236C96.9684 510.236 96.7038 509.983 96.7038 509.67V506.821C96.7038 505.439 97.3148 504.112 98.3802 503.178L99.0701 502.574C99.3107 502.363 99.6845 502.379 99.905 502.61C100.125 502.84 100.109 503.198 99.8681 503.408L99.1783 504.012C98.3568 504.732 97.8856 505.756 97.8856 506.821V509.671C97.8856 509.983 97.6211 510.236 97.2947 510.236Z" fill="#B3CAEB"/>
<path d="M101.145 476.151L100.825 477.094C100.794 477.183 100.707 477.244 100.608 477.244H99.5715C99.3508 477.244 99.2591 477.514 99.4376 477.638L100.276 478.221C100.356 478.277 100.389 478.375 100.359 478.465L100.039 479.408C99.9703 479.609 100.211 479.776 100.389 479.652L101.228 479.069C101.307 479.013 101.416 479.013 101.495 479.069L102.334 479.652C102.512 479.776 102.753 479.609 102.684 479.408L102.364 478.465C102.334 478.375 102.367 478.277 102.447 478.221L103.285 477.638C103.464 477.514 103.372 477.244 103.151 477.244H102.115C102.016 477.244 101.929 477.183 101.898 477.094L101.578 476.151C101.51 475.95 101.213 475.95 101.145 476.151Z" fill="#FDAEE0"/>
<path d="M88 510.732C87.6736 510.732 87.4091 510.479 87.4091 510.167V495.801C87.4091 495.489 87.6736 495.236 88 495.236C88.3263 495.236 88.5909 495.489 88.5909 495.801V510.167C88.5909 510.479 88.3263 510.732 88 510.732Z" fill="#FDC36D"/>
<path d="M88 514C87.6736 514 87.4091 513.747 87.4091 513.435V512.225C87.4091 511.913 87.6736 511.66 88 511.66C88.3263 511.66 88.5909 511.913 88.5909 512.225V513.435C88.5909 513.747 88.3263 514 88 514Z" fill="#FDC36D"/>
<path d="M79.1723 487.551C79.0702 487.551 78.9669 487.526 78.8727 487.473L77.9681 486.963C77.687 486.804 77.5934 486.457 77.7592 486.188C77.9249 485.92 78.2872 485.83 78.5683 485.988L79.4729 486.499C79.754 486.657 79.8476 487.004 79.6819 487.273C79.5716 487.452 79.3746 487.551 79.1723 487.551Z" fill="#EA596C"/>
<path d="M96.8277 487.551C96.6254 487.551 96.4284 487.452 96.3181 487.273C96.1524 487.004 96.246 486.657 96.5271 486.499L97.4317 485.988C97.7129 485.83 98.0751 485.919 98.2408 486.188C98.4066 486.457 98.313 486.804 98.0319 486.963L97.1273 487.473C97.0331 487.526 96.9297 487.551 96.8277 487.551Z" fill="#13E29D"/>
<path d="M87.9452 480.784C87.6189 480.784 87.3543 480.531 87.3543 480.219V479.266C87.3543 478.954 87.6189 478.701 87.9452 478.701C88.2716 478.701 88.5362 478.954 88.5362 479.266V480.219C88.5362 480.531 88.2716 480.784 87.9452 480.784Z" fill="#FE74C5"/>
<path d="M106.76 628.001C115.771 628.048 123.066 635.904 123.11 645.61C123.11 663.391 93.055 681 93.055 681C93.055 681 63 663.132 63 645.61C63 635.884 70.32 628.001 79.3499 628.001C84.8774 627.954 90.045 630.948 93.055 635.942C96.0855 630.973 101.24 627.986 106.76 628.001Z" fill="#D7443E"/>
<path d="M60.7395 562.406C69.51 553.635 80.979 548.576 80.979 537.781C80.979 531.878 76.2564 526.987 70.3532 526.987C66.1366 526.987 62.4262 529.517 60.7395 533.059C59.0528 529.517 55.3424 526.987 51.1258 526.987C45.2227 526.987 40.5001 531.878 40.5001 537.781C40.5001 548.744 52.4752 553.804 60.7395 562.406Z" fill="#66C6B9"/>
<path d="M64.6187 563.924C62.4261 566.117 59.2216 566.117 57.0289 563.924C57.8722 562.912 59.3902 562.069 59.3902 560.719C60.2334 560.719 61.2454 560.719 62.0888 560.719C62.0888 562.069 63.7753 562.743 64.6187 563.924Z" fill="#66C6B9"/>
<path d="M75.7504 533.396C76.9311 534.745 77.4371 536.432 76.7624 536.938C76.0877 537.444 74.5697 536.938 73.3892 535.42C72.2085 534.071 71.7025 532.384 72.3772 531.878C72.883 531.372 74.401 532.047 75.7504 533.396Z" fill="white"/>
<path d="M62.426 561.731H59.2214C58.8841 561.731 58.7154 561.563 58.7154 561.225C58.7154 560.888 58.8841 560.719 59.2214 560.719H62.426C62.7633 560.719 62.932 560.888 62.932 561.225C62.932 561.394 62.7633 561.731 62.426 561.731Z" fill="#415A6B"/>
<path d="M57.7035 565.274C57.5348 565.274 57.1975 565.105 57.1975 564.937C57.1975 564.599 57.3662 564.431 57.5348 564.262C58.0408 564.093 58.378 563.925 58.378 563.081C58.5468 561.901 59.7273 561.057 59.896 560.889C60.0647 560.72 60.402 560.72 60.5707 561.057C60.7394 561.226 60.7394 561.563 60.402 561.732C60.0647 561.901 59.39 562.575 59.39 563.25C59.3902 564.431 58.8842 564.937 57.7035 565.274Z" fill="#415A6B"/>
<path d="M63.438 572.357C60.5708 567.466 61.7513 561.225 61.7513 561.225V561.057H60.7393C60.5706 561.563 59.5586 567.635 62.5946 572.863C65.2932 577.754 61.2453 586.525 61.2453 586.693C61.0766 587.031 61.2453 587.199 61.414 587.368H61.5827C61.7515 587.368 61.92 587.199 62.0887 587.031C62.2573 586.693 66.4739 577.754 63.438 572.357Z" fill="#415A6B"/>
<path d="M21.2733 551.106C30.5498 541.829 42.5247 536.601 42.5247 525.3C42.5247 519.06 37.4649 514 31.3931 514C27.0079 514 23.1287 516.53 21.442 520.409C19.4181 516.53 15.5389 514 11.1536 514C5.08177 514 0.0219116 519.06 0.0219116 525.3C0.0219116 536.769 12.6716 541.998 21.2733 551.106Z" fill="#F3705A"/>
<path d="M25.152 552.624C22.7908 554.816 19.5862 554.816 17.225 552.624C18.0682 551.443 19.7549 550.768 19.7549 549.25C20.7669 549.25 21.6101 549.25 22.6221 549.25C22.6221 550.6 24.3086 551.443 25.152 552.624Z" fill="#F3705A"/>
<path d="M36.9579 520.578C38.3072 522.096 38.6446 523.782 37.9699 524.288C37.2952 524.963 35.6087 524.288 34.428 522.77C33.0787 521.253 32.7413 519.566 33.416 519.06C34.0907 518.385 35.6087 519.06 36.9579 520.578Z" fill="white"/>
<path d="M22.9591 550.262H19.5859C19.2487 550.262 19.08 550.094 19.08 549.756C19.08 549.419 19.2487 549.25 19.5859 549.25H22.9591C23.2964 549.25 23.4651 549.419 23.4651 549.756C23.6338 549.925 23.2964 550.262 22.9591 550.262Z" fill="#415A6B"/>
<path d="M18.0681 553.974C17.8993 553.974 17.5621 553.805 17.5621 553.636C17.5621 553.299 17.7308 553.13 17.8993 552.962C18.4053 552.793 18.7426 552.624 18.9113 551.781C19.08 550.6 20.2606 549.588 20.4293 549.42C20.598 549.251 20.9353 549.251 21.104 549.588C21.2727 549.757 21.2727 550.094 20.9353 550.263C20.598 550.432 19.9233 551.106 19.7546 551.781C19.7546 553.13 19.2486 553.636 18.0681 553.974Z" fill="#415A6B"/>
<path d="M23.9712 561.394C21.104 556.165 22.116 549.756 22.2845 549.756V549.588H21.2725C21.1038 550.094 20.0918 556.503 23.1278 561.9C25.995 566.96 21.7785 576.236 21.6098 576.405C21.4411 576.742 21.6098 577.08 21.9471 577.08H22.1158C22.2845 577.08 22.4531 576.911 22.6218 576.742C22.7905 576.574 27.1758 566.96 23.9712 561.394Z" fill="#415A6B"/>
<path d="M40.4998 576.574C48.9329 568.309 59.7273 563.418 59.7273 553.298C59.7273 547.732 55.1734 543.178 49.6076 543.178C45.5597 543.178 42.1865 545.54 40.4998 548.913C38.8131 545.54 35.44 543.178 31.3921 543.178C25.8262 543.178 21.2723 547.732 21.2723 553.298C21.2723 563.587 32.7415 568.309 40.4998 576.574Z" fill="#FFD15C"/>
<path d="M44.0416 577.754C42.0176 579.778 38.9817 579.778 36.9578 577.754C37.801 576.742 39.319 576.068 39.319 574.718C40.1622 574.718 41.0056 574.718 41.8489 574.718C41.8491 576.068 43.367 576.742 44.0416 577.754Z" fill="#FFD15C"/>
<path d="M54.6676 548.913C55.8483 550.262 56.1855 551.78 55.6795 552.286C55.1736 552.792 53.6556 552.286 52.4749 550.937C51.2942 549.588 50.9569 548.07 51.4629 547.564C51.9691 547.058 53.487 547.564 54.6676 548.913Z" fill="white"/>
<path d="M42.1866 575.73H39.1507C38.8134 575.73 38.6447 575.562 38.6447 575.224C38.6447 574.887 38.8134 574.718 39.1507 574.718H42.1866C42.5239 574.718 42.6926 574.887 42.6926 575.224C42.5239 575.562 42.3553 575.73 42.1866 575.73Z" fill="#415A6B"/>
<path d="M37.6328 579.104C37.4641 579.104 37.1268 578.935 37.1268 578.766C37.1268 578.429 37.2955 578.26 37.4641 578.092C37.9701 577.923 38.3074 577.754 38.3074 577.08C38.4761 575.899 39.6566 575.056 39.6566 575.056C39.8253 574.887 40.1626 574.887 40.3313 575.224C40.5 575.393 40.5 575.73 40.1626 575.899C39.8253 576.068 39.1506 576.742 39.1506 577.248C39.1508 578.26 38.6448 578.935 37.6328 579.104Z" fill="#415A6B"/>
<path d="M42.5238 594.621C42.5238 595.127 43.5358 595.127 43.5358 594.621C44.2105 591.753 44.5478 588.38 43.0298 585.85C40.3312 581.127 41.5119 575.393 41.5119 575.393V575.224H40.4999C40.3312 575.73 39.4879 581.465 42.1866 586.356C43.5358 588.717 43.1985 591.922 42.5238 594.621Z" fill="#415A6B"/>
<path d="M73.8905 194.619C73.8905 183.897 65.1986 175.206 54.4766 175.206C48.1986 175.206 42.7488 178.049 39.2002 182.671C35.7623 178.057 30.1651 175.206 23.969 175.206C13.553 175.206 5.1095 183.649 5.1095 194.065C5.1095 198.424 5.95431 203.074 8.43769 206.268L39.5 237.493L68.3436 208.487C71.8831 204.97 73.8905 200.003 73.8905 194.619Z" fill="#184370"/>
<path d="M39.5 182.971C39.5 182.971 56.4741 195.178 39.8249 237.166L7.26144 204.373L5.1095 194.884L8.07274 183.584L16.102 176.812L24.9502 175.043L35.0626 178.534L39.5 182.971Z" fill="#225285"/>
<path d="M39.8249 237.166L7.26141 204.373L6.21881 199.47L41.7593 235.228L39.8249 237.166Z" fill="white"/>
<path d="M39.4999 239.066L10.9943 210.394C6.54896 206.257 4 200.605 4 194.884C4 183.332 13.3983 173.934 24.9502 173.934C30.2366 173.934 35.4783 176.157 39.5 180.07C43.5218 176.157 48.7637 173.934 54.0499 173.934C65.6018 173.934 75 183.332 75 194.884C75 200.605 72.451 206.257 68.0058 210.394L39.4999 239.066ZM24.9502 176.152C14.6216 176.152 6.21884 184.555 6.21884 194.884C6.21884 199.922 8.57452 205.118 12.5207 208.783L12.5525 208.814L39.5 235.919L66.4632 208.798L66.4793 208.783C70.4253 205.118 72.781 199.922 72.781 194.884C72.781 184.555 64.3783 176.152 54.0498 176.152C49.0144 176.152 44.0075 178.434 40.3127 182.412L39.4999 183.287L38.687 182.412C34.9925 178.434 29.9856 176.152 24.9502 176.152Z" fill="#1D1D1B"/>
<path d="M39.825 227.671L41.394 229.24L53.5969 217.037L52.0279 215.468L39.825 227.671Z" fill="#1D1D1B"/>
</svg>
