<svg width="116" height="725" viewBox="0 0 116 725" fill="none" xmlns="http://www.w3.org/2000/svg">
<path d="M48.982 156.186L46.3022 135.006L47.4781 134.864L48.4986 135.992L50.9688 155.078L50.1493 156.046L48.982 156.186Z" fill="#ECF4F9"/>
<path d="M50.1493 156.046L47.4781 134.864L48.7446 134.711L51.4243 155.892L50.1493 156.046Z" fill="#CDDFF8"/>
<path d="M57.1416 155.799H56.1915L55.0278 155.409L58.391 145.853L59.5422 146.239L60.3409 146.69L57.1416 155.799Z" fill="#ECF4F9"/>
<path d="M57.3551 156.189L56.2025 155.803L59.5422 146.239L60.7183 146.633L57.3551 156.189Z" fill="#CDDFF8"/>
<path d="M42.4949 156.901L38.4728 150.415L39.4313 149.849L40.5508 149.793L44.0781 155.612L43.3555 156.393L42.4949 156.901Z" fill="#ECF4F9"/>
<path d="M43.3555 156.393L39.4313 149.849L40.578 149.171L44.6001 155.657L43.3555 156.393Z" fill="#CDDFF8"/>
<path d="M31.6914 123.207C33.7301 123.207 35.3828 121.594 35.3828 119.604C35.3828 117.613 33.7301 116 31.6914 116C29.6527 116 28 117.613 28 119.604C28 121.594 29.6527 123.207 31.6914 123.207Z" fill="#E17D46"/>
<path d="M65.4883 124.809C67.98 124.809 70 122.837 70 120.404C70 117.972 67.98 116 65.4883 116C62.9965 116 60.9766 117.972 60.9766 120.404C60.9766 122.837 62.9965 124.809 65.4883 124.809Z" fill="#8DC5E8"/>
<path d="M66.3086 157C68.3473 157 70 155.387 70 153.396C70 151.406 68.3473 149.793 66.3086 149.793C64.2699 149.793 62.6172 151.406 62.6172 153.396C62.6172 155.387 64.2699 157 66.3086 157Z" fill="#ADE993"/>
<path d="M33.0095 131.863L34.7493 130.164L36.4892 131.863L34.7493 133.561L33.0095 131.863Z" fill="#ADE993"/>
<path d="M56.8853 127.813L58.6251 126.114L60.365 127.813L58.6251 129.511L56.8853 127.813Z" fill="#E17D46"/>
<path d="M41.8931 135.138L41.8554 129.056L36.7017 125.639L42.6153 123.724L44.3522 117.884L46.4862 123.503L52.7133 123.311L49.0819 128.253L51.1936 131.893L46.8153 131.41L41.8931 135.138Z" fill="#F6E486"/>
<path d="M50.6404 127.532L54.2719 122.59L48.0447 122.782L44.3522 117.884L46.8166 131.41L52.7522 133.254L50.6404 127.532Z" fill="#F0CE46"/>
<path d="M35.2338 152.188L33.3176 147.188L28.0118 145.894L32.2912 142.57L31.9123 137.244L35.6528 140.991L40.7246 138.993L39.2639 144.138L42.6133 146.948L38.1339 147.662L35.2338 152.188Z" fill="#F6E486"/>
<path d="M40.0844 143.337L41.5451 138.192L36.4733 140.19L31.9125 137.244L38.1341 147.662L43.5979 147.428L40.0844 143.337Z" fill="#F0CE46"/>
<path d="M64.4804 145.809L60.6939 143.084L55.3644 144.283L57.6316 139.424L54.8171 134.847L60.2509 135.45L63.8408 131.422L63.9476 136.574L68.9808 138.662L64.2214 141.292L64.4804 145.809Z" fill="#F6E486"/>
<path d="M65.2058 141.372L69.9652 138.742L64.932 136.654L63.8408 131.422L60.6939 143.084L64.7266 146.69L65.2058 141.372Z" fill="#F0CE46"/>
<path d="M83.4968 17.0857C79.2815 12.8684 73.6772 10.5458 67.7163 10.5458C61.7542 10.5458 56.1502 12.8684 51.9346 17.0857L50.6252 18.3958L49.3153 17.0857C45.1004 12.8684 39.4953 10.5458 33.5341 10.5458C27.5736 10.5458 21.9687 12.8684 17.754 17.0857C13.5387 21.3028 11.217 26.91 11.217 32.8734C11.217 34.7052 11.4368 36.5031 11.8627 38.238C12.9642 37.9528 14.1085 37.8036 15.2763 37.8036C18.8909 37.8036 22.2888 39.2117 24.8447 41.7689L25.6387 42.5631L26.4325 41.7689C28.9884 39.2117 32.3863 37.8036 36.0009 37.8036C39.6153 37.8036 43.0137 39.2117 45.5691 41.7689C48.1245 44.3255 49.5328 47.7256 49.5328 51.3411C49.5328 54.9575 48.1245 58.3573 45.5691 60.914L37.7795 68.7139L47.5692 78.5168C48.3795 79.3275 49.4785 79.7837 50.6252 79.7837C51.7717 79.7837 52.8705 79.3275 53.6812 78.5168L83.4968 48.6617C87.7113 44.4446 90.0336 38.8374 90.0336 32.8736C90.0336 26.9102 87.7113 21.3028 83.4968 17.0857Z" fill="#FF8163"/>
<path d="M25.6389 79.7844C24.944 79.7844 24.2771 79.5078 23.7859 79.016L5.70826 60.914C3.15283 58.3575 1.74475 54.9577 1.74475 51.3414C1.74475 47.7259 3.15283 44.3259 5.70826 41.7691C8.26368 39.2119 11.6623 37.8039 15.2762 37.8039C18.8908 37.8039 22.2888 39.2119 24.8447 41.7691L25.6387 42.5634L26.4324 41.7691C28.9883 39.2119 32.3863 37.8039 36.0009 37.8039C39.6152 37.8039 43.0136 39.2119 45.5691 41.7691C48.1245 44.3257 49.5328 47.7259 49.5328 51.3414C49.5328 54.9577 48.1245 58.3575 45.5691 60.9143L27.4912 79.016C27.0002 79.5074 26.3342 79.7844 25.6389 79.7844Z" fill="#E84731"/>
<g opacity="0.1">
<path opacity="0.1" d="M15.2763 37.8039C17.4746 37.8039 19.5914 38.3276 21.4886 39.311C19.5099 35.9318 18.4536 32.0745 18.4536 28.0542C18.4536 22.0906 20.7752 16.4834 24.9906 12.2665C25.009 12.2481 25.028 12.2302 25.0467 12.2118C22.3514 13.3199 19.8761 14.9625 17.754 17.0859C13.5387 21.303 11.217 26.9102 11.217 32.8736C11.217 34.7054 11.4368 36.5033 11.8627 38.2383C12.9644 37.9533 14.1089 37.8039 15.2763 37.8039Z" fill="black"/>
<path opacity="0.1" d="M54.806 73.6974L43.8048 62.681L37.7795 68.7139L47.5692 78.5168C48.3795 79.3275 49.4785 79.7837 50.6252 79.7837C51.7716 79.7837 52.8705 79.3275 53.6811 78.5168L57.2739 74.9191C56.3452 74.7917 55.4764 74.3683 54.806 73.6974Z" fill="black"/>
</g>
<path opacity="0.1" d="M31.0225 74.1964L12.9448 56.0944C10.3894 53.5379 8.9813 50.1379 8.9813 46.5217C8.9813 43.4912 9.97413 40.6138 11.7992 38.2559C9.51612 38.859 7.42226 40.054 5.70826 41.7694C3.15283 44.3259 1.74475 47.7261 1.74475 51.3416C1.74475 54.958 3.15283 58.3577 5.70826 60.9143L23.7859 79.0162C24.2771 79.5078 24.9438 79.7846 25.6389 79.7846C26.334 79.7846 27.0004 79.5081 27.4914 79.0162L31.7804 74.7216C31.5016 74.5927 31.2436 74.4175 31.0225 74.1964Z" fill="black"/>
<path d="M83.0602 26.6806C80.2192 28.5113 78.7347 29.9955 76.904 32.8369C75.0733 29.9955 73.5889 28.5113 70.7478 26.6806C73.5889 24.85 75.0733 23.3657 76.904 20.5244C78.7347 23.3657 80.2192 24.8497 83.0602 26.6806Z" fill="#FFC529"/>
<path d="M68.1826 41.4653L72.3704 45.653L76.5579 41.4654L72.3702 37.2777L68.1826 41.4653Z" fill="#FFED84"/>
<path d="M67.7162 8.80112C61.2888 8.80112 55.2457 11.3053 50.7004 15.8526L50.6249 15.9281L50.5494 15.8526C46.0048 11.3056 39.9619 8.80112 33.534 8.80112C27.1066 8.80112 21.0642 11.3053 16.5198 15.8524C11.9751 20.3991 9.47202 26.444 9.47202 32.8738C9.47202 34.2915 9.59648 35.6893 9.83495 37.0571C7.84707 37.8141 6.02263 38.986 4.47405 40.5356C1.58887 43.4222 0 47.2594 0 51.3412C0 55.4233 1.5891 59.2608 4.47361 62.1469L22.5515 80.2491C23.3762 81.0744 24.4726 81.5291 25.6389 81.5291C26.8049 81.5291 27.9013 81.0744 28.7262 80.2488L37.7799 71.1834L46.3356 79.7505C47.4819 80.8974 49.0055 81.5291 50.6256 81.5291C52.2456 81.5291 53.7695 80.8974 54.9159 79.7503L75.4246 59.2143C76.1055 58.5323 76.1048 57.4275 75.423 56.7468C74.7412 56.0655 73.6364 56.0666 72.9555 56.7484L52.4473 77.2839C51.9602 77.7713 51.3134 78.0396 50.6258 78.0396C49.9382 78.0396 49.2914 77.7713 48.8047 77.2844L40.2464 68.7143L46.8043 62.1478C49.6897 59.261 51.2786 55.4233 51.2786 51.3414C51.2786 48.7154 50.6055 46.1305 49.3326 43.8652C48.8604 43.0252 47.7967 42.7266 46.9566 43.1991C46.1166 43.6713 45.8182 44.7352 46.2904 45.575C47.2708 47.3189 47.7889 49.3128 47.7889 51.3412C47.7889 54.4911 46.5625 57.4528 44.3355 59.6812L26.2578 77.7827C26.0924 77.9483 25.8731 78.0392 25.6398 78.0392C25.41 78.0392 25.1844 77.9457 25.0217 77.7827L6.94353 59.6803C4.71697 57.4526 3.49081 54.4911 3.49081 51.3409C3.49081 48.1912 4.7172 45.2299 6.94353 43.0022C9.16898 40.775 12.1288 39.5484 15.2773 39.5484C18.4255 39.5484 21.3857 40.775 23.6118 43.0024L24.4058 43.7967C24.7329 44.124 25.1769 44.3079 25.64 44.3079C26.1027 44.3079 26.5466 44.1237 26.8739 43.7964L27.6677 43.0022C29.8936 40.775 32.8538 39.5484 36.0019 39.5484C38.1867 39.5484 40.3126 40.1449 42.1506 41.2737C42.9706 41.7776 44.0459 41.5213 44.5504 40.7C45.0547 39.879 44.798 38.804 43.9766 38.2999C41.5888 36.8335 38.8315 36.0582 36.0017 36.0582C32.1251 36.0582 28.469 37.493 25.6395 40.1113C22.8098 37.493 19.1538 36.0582 15.2771 36.0582C14.5862 36.0582 13.9035 36.1077 13.23 36.1974C13.0541 35.1084 12.9628 33.9978 12.9628 32.8731C12.9628 27.3751 15.103 22.2064 18.989 18.3188C22.8744 14.4312 28.04 12.2904 33.5349 12.2904C39.0301 12.2904 44.1964 14.4312 48.0822 18.319L49.3921 19.6291C49.7191 19.9564 50.1633 20.1403 50.6262 20.1403C51.0889 20.1403 51.5331 19.9562 51.8602 19.6289L53.1696 18.319C57.0557 14.4312 62.2222 12.2904 67.7171 12.2904C73.2116 12.2904 78.3777 14.4312 82.2635 18.3188C86.1495 22.207 88.2894 27.376 88.2894 32.8731C88.2894 38.3708 86.1495 43.5397 82.263 47.4282L78.5324 51.1639C77.8515 51.8459 77.8522 52.9507 78.534 53.6314C79.216 54.3127 80.3208 54.3116 81.0014 53.6298L84.7316 49.8946C89.2762 45.3472 91.7791 39.3021 91.7791 32.8729C91.7791 26.444 89.2762 20.3991 84.7316 15.8517C80.1856 11.3053 74.1432 8.80112 67.7162 8.80112Z" fill="black"/>
<path d="M89.8124 11.7074C88.0174 9.91105 86.0113 8.35246 83.8495 7.07374C83.0205 6.58345 81.9505 6.85732 81.4595 7.68716C80.9688 8.51656 81.2433 9.58686 82.0729 10.0772C83.9824 11.2067 85.7561 12.5852 87.3441 14.1743C89.201 16.0319 90.7619 18.1322 91.9845 20.4162C92.2991 21.0036 92.9013 21.3382 93.5243 21.3382C93.802 21.3382 94.0839 21.2716 94.3462 21.1311C95.1956 20.6765 95.516 19.6191 95.0611 18.7694C93.6778 16.1835 91.9114 13.8073 89.8124 11.7074Z" fill="black"/>
<path d="M102.234 18.1718C100.457 14.2268 97.9876 10.657 94.894 7.56226C91.7606 4.42726 88.1424 1.93418 84.1398 0.151372C83.2598 -0.240725 82.228 0.155158 81.8362 1.03576C81.4441 1.91592 81.8402 2.94749 82.7205 3.33936C86.3311 4.94717 89.5964 7.19777 92.4261 10.0293C95.2205 12.8243 97.4497 16.0461 99.0528 19.6048C99.3436 20.251 99.9793 20.6335 100.645 20.6335C100.884 20.6335 101.128 20.5839 101.36 20.479C102.238 20.0838 102.63 19.0504 102.234 18.1718Z" fill="black"/>
<path d="M75.437 33.7818C75.7583 34.2803 76.3109 34.5816 76.9039 34.5816C77.4968 34.5816 78.0494 34.2803 78.3707 33.7818C80.0629 31.156 81.379 29.8395 84.0053 28.1473C84.5038 27.826 84.8051 27.2733 84.8051 26.6804C84.8051 26.0875 84.5038 25.5348 84.0053 25.2136C81.379 23.5216 80.0627 22.2046 78.3707 19.579C78.0494 19.0805 77.4968 18.7792 76.9039 18.7792C76.3109 18.7792 75.7583 19.0805 75.437 19.579C73.745 22.2048 72.4287 23.5214 69.8025 25.2136C69.3039 25.5348 69.0027 26.0875 69.0027 26.6804C69.0027 27.2733 69.3039 27.826 69.8025 28.1473C72.4289 29.8395 73.7453 31.156 75.437 33.7818ZM76.9039 23.5508C77.849 24.7567 78.8281 25.7357 80.0337 26.6806C78.8278 27.6258 77.8488 28.6048 76.9039 29.8105C75.9587 28.6046 74.9799 27.6256 73.774 26.6806C74.9799 25.7352 75.9587 24.7562 76.9039 23.5508Z" fill="black"/>
<path d="M66.4438 41.463C66.4438 41.9257 66.6275 42.3696 66.9551 42.6969L71.1432 46.8847C71.4839 47.2253 71.9305 47.3957 72.377 47.3957C72.8234 47.3957 73.27 47.2253 73.6109 46.8844L77.7984 42.6967C78.4798 42.0154 78.4798 40.9104 77.7982 40.2292L73.6103 36.0415C72.9292 35.3604 71.8241 35.3604 71.1428 36.0415L66.9551 40.2292C66.6275 40.5563 66.4438 41.0001 66.4438 41.463ZM72.3763 39.7427L74.0968 41.463L72.377 43.1832L70.6563 41.463L72.3763 39.7427Z" fill="black"/>
<path d="M82 223.055C80.8989 223.055 80.0078 222.164 80.0078 221.062V204.992C80.0078 203.891 80.8989 203 82 203C83.1011 203 83.9922 203.891 83.9922 204.992V221.062C83.9922 222.164 83.1011 223.055 82 223.055Z" fill="#FED843"/>
<path d="M82 271C80.8989 271 80.0078 270.109 80.0078 269.008V252.938C80.0078 251.836 80.8989 250.945 82 250.945C83.1011 250.945 83.9922 251.836 83.9922 252.938V269.008C83.9922 270.109 83.1011 271 82 271Z" fill="#FED843"/>
<path d="M74.183 222.971L71.1947 215.582C70.7824 214.563 71.2764 213.401 72.2959 212.989C73.3154 212.576 74.4748 213.067 74.8912 214.088L77.8795 221.477C78.2918 222.496 77.7978 223.658 76.7783 224.07C75.7566 224.484 74.5967 223.988 74.183 222.971Z" fill="#DD99FF"/>
<path d="M89.1088 259.912L86.1205 252.523C85.7081 251.504 86.2022 250.342 87.2217 249.93C88.2411 249.513 89.4006 250.01 89.817 251.029L92.8052 258.418C93.2176 259.437 92.7236 260.599 91.7041 261.011C90.6824 261.425 89.5226 260.929 89.1088 259.912Z" fill="#CC66FF"/>
<path d="M69.3232 227.138L58.051 215.87C57.2729 215.092 57.2729 213.831 58.051 213.053C58.8292 212.275 60.09 212.275 60.8681 213.053L72.1403 224.321C72.9184 225.099 72.9184 226.36 72.1403 227.138C71.362 227.916 70.1014 227.917 69.3232 227.138Z" fill="#FED843"/>
<path d="M103.132 260.947L91.8597 249.679C91.0816 248.901 91.0816 247.64 91.8597 246.862C92.6379 246.084 93.8987 246.084 94.6768 246.862L105.949 258.13C106.727 258.908 106.727 260.169 105.949 260.947C105.171 261.725 103.91 261.725 103.132 260.947Z" fill="#FABE2C"/>
<path d="M66.0625 238.992H49.9922C48.891 238.992 48 238.101 48 237C48 235.899 48.891 235.008 49.9922 235.008H66.0625C67.1636 235.008 68.0547 235.899 68.0547 237C68.0547 238.101 67.1636 238.992 66.0625 238.992Z" fill="#FED843"/>
<path d="M114.008 238.992H97.9375C96.8364 238.992 95.9453 238.101 95.9453 237C95.9453 235.899 96.8364 235.008 97.9375 235.008H114.008C115.109 235.008 116 235.899 116 237C116 238.101 115.109 238.992 114.008 238.992Z" fill="#FABE2C"/>
<path d="M58.051 260.947C57.2729 260.169 57.2729 258.908 58.051 258.13L69.3232 246.862C70.1014 246.084 71.3621 246.084 72.1403 246.862C72.9184 247.64 72.9184 248.901 72.1403 249.679L60.8681 260.947C60.0898 261.725 58.8292 261.725 58.051 260.947Z" fill="#FED843"/>
<path d="M91.8597 227.138C91.0816 226.36 91.0816 225.099 91.8597 224.321L103.132 213.053C103.91 212.275 105.171 212.275 105.949 213.053C106.727 213.831 106.727 215.092 105.949 215.87L94.6768 227.138C93.8987 227.916 92.638 227.917 91.8597 227.138Z" fill="#FABE2C"/>
<path d="M93.9407 268.546C95.0409 268.546 95.9329 267.654 95.9329 266.554C95.9329 265.454 95.0409 264.562 93.9407 264.562C92.8404 264.562 91.9485 265.454 91.9485 266.554C91.9485 267.654 92.8404 268.546 93.9407 268.546Z" fill="#FF3377"/>
<path d="M70.0593 209.438C71.1596 209.438 72.0515 208.546 72.0515 207.446C72.0515 206.346 71.1596 205.454 70.0593 205.454C68.9591 205.454 68.0671 206.346 68.0671 207.446C68.0671 208.546 68.9591 209.438 70.0593 209.438Z" fill="#FF6699"/>
<path d="M66.5527 232.607L59.2143 229.494C58.2027 229.064 57.728 227.895 58.1599 226.881C58.588 225.868 59.7708 225.399 60.7707 225.825L68.1092 228.938C69.1208 229.368 69.5955 230.537 69.1636 231.551C68.7351 232.57 67.5576 233.032 66.5527 232.607Z" fill="#DD99FF"/>
<path d="M103.229 248.175L95.8908 245.062C94.8792 244.632 94.4045 243.463 94.8364 242.449C95.2645 241.434 96.4435 240.971 97.4472 241.393L104.786 244.506C105.797 244.936 106.272 246.105 105.84 247.119C105.411 248.138 104.234 248.6 103.229 248.175Z" fill="#CC66FF"/>
<path d="M111.341 251.447C112.441 251.447 113.333 250.555 113.333 249.455C113.333 248.354 112.441 247.462 111.341 247.462C110.241 247.462 109.349 248.354 109.349 249.455C109.349 250.555 110.241 251.447 111.341 251.447Z" fill="#FF3377"/>
<path d="M52.6589 226.538C53.7592 226.538 54.6511 225.646 54.6511 224.546C54.6511 223.445 53.7592 222.553 52.6589 222.553C51.5587 222.553 50.6667 223.445 50.6667 224.546C50.6667 225.646 51.5587 226.538 52.6589 226.538Z" fill="#FF6699"/>
<path d="M57.9848 246.7C57.5725 245.681 58.0665 244.519 59.086 244.109L66.475 241.124C67.4905 240.708 68.6539 241.202 69.0703 242.226C69.4827 243.245 68.9886 244.406 67.9692 244.817L60.5801 247.801C59.5547 248.216 58.3971 247.716 57.9848 246.7Z" fill="#DD99FF"/>
<path d="M94.9299 231.774C94.5175 230.755 95.0115 229.593 96.031 229.183L103.42 226.199C104.436 225.78 105.599 226.276 106.015 227.3C106.428 228.319 105.934 229.481 104.914 229.891L97.5251 232.876C96.4997 233.291 95.3421 232.79 94.9299 231.774Z" fill="#CC66FF"/>
<path d="M111.554 227.052C112.654 227.052 113.546 226.16 113.546 225.059C113.546 223.959 112.654 223.067 111.554 223.067C110.454 223.067 109.562 223.959 109.562 225.059C109.562 226.16 110.454 227.052 111.554 227.052Z" fill="#FF3377"/>
<path d="M52.446 250.933C53.5462 250.933 54.4382 250.041 54.4382 248.941C54.4382 247.84 53.5462 246.948 52.446 246.948C51.3457 246.948 50.4538 247.84 50.4538 248.941C50.4538 250.041 51.3457 250.933 52.446 250.933Z" fill="#FF6699"/>
<path d="M71.8795 260.838C70.8679 260.408 70.3932 259.239 70.8251 258.227L73.9418 250.893C74.3737 249.877 75.5489 249.404 76.5527 249.838C77.5643 250.268 78.039 251.438 77.6071 252.449L74.4904 259.784C74.0545 260.808 72.8746 261.267 71.8795 260.838Z" fill="#DD99FF"/>
<path d="M87.4475 224.162C86.4358 223.732 85.9612 222.562 86.3931 221.551L89.5098 214.216C89.9378 213.203 91.1128 212.732 92.1206 213.162C93.1322 213.592 93.6069 214.761 93.175 215.773L90.0583 223.107C89.6224 224.131 88.4425 224.59 87.4475 224.162Z" fill="#CC66FF"/>
<path d="M94.4545 209.651C95.5548 209.651 96.4467 208.759 96.4467 207.659C96.4467 206.559 95.5548 205.667 94.4545 205.667C93.3543 205.667 92.4623 206.559 92.4623 207.659C92.4623 208.759 93.3543 209.651 94.4545 209.651Z" fill="#FF3377"/>
<path d="M69.5455 268.333C70.6457 268.333 71.5377 267.441 71.5377 266.341C71.5377 265.241 70.6457 264.349 69.5455 264.349C68.4452 264.349 67.5533 265.241 67.5533 266.341C67.5533 267.441 68.4452 268.333 69.5455 268.333Z" fill="#FF6699"/>
<path d="M82 246.961C80.8989 246.961 80.0078 246.07 80.0078 244.969C80.0078 241.673 77.3269 238.992 74.0312 238.992C72.9301 238.992 72.0391 238.101 72.0391 237C72.0391 235.899 72.9301 235.008 74.0312 235.008C77.3269 235.008 80.0078 232.327 80.0078 229.031C80.0078 227.93 80.8989 227.039 82 227.039C83.1011 227.039 83.9922 227.93 83.9922 229.031C83.9922 232.327 86.6731 235.008 89.9688 235.008C91.0699 235.008 91.9609 235.899 91.9609 237C91.9609 238.101 91.0699 238.992 89.9688 238.992C86.6731 238.992 83.9922 241.673 83.9922 244.969C83.9922 246.07 83.1011 246.961 82 246.961Z" fill="#FF6699"/>
<path d="M83.9922 269.008V252.938C83.9922 251.836 83.1011 250.945 82 250.945V271C83.1011 271 83.9922 270.109 83.9922 269.008Z" fill="#FABE2C"/>
<path d="M83.9922 221.062V204.992C83.9922 203.891 83.1011 203 82 203V223.055C83.1011 223.055 83.9922 222.164 83.9922 221.062Z" fill="#FABE2C"/>
<path d="M83.9922 244.969C83.9922 241.673 86.6731 238.992 89.9688 238.992C91.0699 238.992 91.9609 238.101 91.9609 237C91.9609 235.899 91.0699 235.008 89.9688 235.008C86.6731 235.008 83.9922 232.327 83.9922 229.031C83.9922 227.93 83.1011 227.039 82 227.039V246.961C83.1011 246.961 83.9922 246.07 83.9922 244.969Z" fill="#FF3377"/>
<path d="M70.2387 343.992C79.6589 334.571 91.9774 329.137 91.9774 317.543C91.9774 311.203 86.905 305.949 80.5646 305.949C76.0356 305.949 72.0503 308.666 70.2387 312.471C68.4271 308.666 64.4418 305.949 59.9129 305.949C53.5725 305.949 48.5001 311.202 48.5001 317.543C48.5001 329.318 61.3622 334.753 70.2387 343.992Z" fill="#66C6B9"/>
<path d="M74.4053 345.622C72.0502 347.977 68.6084 347.977 66.2533 345.622C67.159 344.535 68.7894 343.629 68.7894 342.18C69.6951 342.18 70.7821 342.18 71.688 342.18C71.688 343.629 73.4994 344.354 74.4053 345.622Z" fill="#66C6B9"/>
<path d="M86.3615 312.833C87.6297 314.282 88.1731 316.094 87.4485 316.637C86.7238 317.181 85.0934 316.637 83.8254 315.007C82.5573 313.558 82.0138 311.746 82.7385 311.203C83.2818 310.659 84.9122 311.384 86.3615 312.833Z" fill="white"/>
<path d="M72.0502 343.267H68.6082C68.2459 343.267 68.0647 343.086 68.0647 342.724C68.0647 342.361 68.2459 342.18 68.6082 342.18H72.0502C72.4124 342.18 72.5936 342.361 72.5936 342.724C72.5936 342.905 72.4124 343.267 72.0502 343.267Z" fill="#415A6B"/>
<path d="M66.9779 347.071C66.7966 347.071 66.4344 346.89 66.4344 346.709C66.4344 346.347 66.6156 346.166 66.7966 345.984C67.3401 345.803 67.7024 345.622 67.7024 344.716C67.8836 343.448 69.1516 342.542 69.3328 342.361C69.514 342.18 69.8762 342.18 70.0574 342.542C70.2387 342.724 70.2387 343.086 69.8762 343.267C69.514 343.448 68.7893 344.173 68.7893 344.897C68.7895 346.165 68.246 346.709 66.9779 347.071Z" fill="#415A6B"/>
<path d="M73.1371 354.68C70.0576 349.426 71.3255 342.724 71.3255 342.724V342.542H70.2386C70.0574 343.086 68.9705 349.607 72.2312 355.223C75.1298 360.477 70.7821 369.897 70.7821 370.078C70.6009 370.44 70.7821 370.622 70.9633 370.803H71.1445C71.3257 370.803 71.5067 370.622 71.688 370.441C71.869 370.078 76.3979 360.477 73.1371 354.68Z" fill="#415A6B"/>
<path d="M27.8483 331.854C37.8119 321.891 50.6739 316.275 50.6739 304.137C50.6739 297.435 45.2392 292 38.7176 292C34.0076 292 29.8411 294.717 28.0295 298.884C25.8556 294.717 21.6891 292 16.979 292C10.4574 292 5.02271 297.435 5.02271 304.137C5.02271 316.456 18.6094 322.072 27.8483 331.854Z" fill="#F3705A"/>
<path d="M32.0152 333.485C29.4791 335.84 26.037 335.84 23.5009 333.485C24.4066 332.217 26.2183 331.492 26.2183 329.862C27.3052 329.862 28.2109 329.862 29.2978 329.862C29.2978 331.311 31.1093 332.217 32.0152 333.485Z" fill="#F3705A"/>
<path d="M44.6956 299.065C46.1448 300.695 46.5072 302.507 45.7825 303.051C45.0578 303.775 43.2464 303.051 41.9782 301.42C40.5291 299.79 40.1666 297.978 40.8913 297.435C41.616 296.71 43.2464 297.435 44.6956 299.065Z" fill="white"/>
<path d="M29.6597 330.948H26.0367C25.6744 330.948 25.4932 330.767 25.4932 330.405C25.4932 330.043 25.6744 329.861 26.0367 329.861H29.6597C30.022 329.861 30.2032 330.043 30.2032 330.405C30.3844 330.586 30.022 330.948 29.6597 330.948Z" fill="#415A6B"/>
<path d="M24.4064 334.934C24.2252 334.934 23.8629 334.753 23.8629 334.572C23.8629 334.209 24.0441 334.028 24.2252 333.847C24.7686 333.666 25.1309 333.485 25.3121 332.579C25.4933 331.311 26.7613 330.224 26.9425 330.043C27.1237 329.861 27.486 329.861 27.6672 330.224C27.8484 330.405 27.8484 330.767 27.486 330.949C27.1237 331.13 26.399 331.854 26.2178 332.579C26.2178 334.028 25.6744 334.572 24.4064 334.934Z" fill="#415A6B"/>
<path d="M30.7468 342.905C27.6672 337.289 28.7541 330.405 28.9351 330.405V330.224H27.8482C27.667 330.767 26.5801 337.651 29.8409 343.448C32.9205 348.883 28.3917 358.846 28.2105 359.027C28.0293 359.39 28.2105 359.752 28.5727 359.752H28.7539C28.9351 359.752 29.1162 359.571 29.2974 359.39C29.4786 359.209 34.1888 348.883 30.7468 342.905Z" fill="#415A6B"/>
<path d="M48.4998 359.209C57.5575 350.332 69.1515 345.079 69.1515 334.209C69.1515 328.231 64.2603 323.34 58.2822 323.34C53.9344 323.34 50.3114 325.876 48.4998 329.499C46.6881 325.876 43.0651 323.34 38.7174 323.34C32.7392 323.34 27.848 328.231 27.848 334.209C27.848 345.26 40.1667 350.332 48.4998 359.209Z" fill="#FFD15C"/>
<path d="M52.3039 360.477C50.13 362.651 46.8692 362.651 44.6954 360.477C45.6011 359.39 47.2315 358.665 47.2315 357.216C48.1372 357.216 49.0431 357.216 49.9488 357.216C49.949 358.665 51.5794 359.39 52.3039 360.477Z" fill="#FFD15C"/>
<path d="M63.717 329.499C64.9852 330.948 65.3474 332.579 64.804 333.122C64.2605 333.666 62.6301 333.122 61.362 331.673C60.0938 330.224 59.7316 328.593 60.275 328.05C60.8187 327.507 62.4491 328.05 63.717 329.499Z" fill="white"/>
<path d="M50.3116 358.303H47.0508C46.6885 358.303 46.5073 358.122 46.5073 357.759C46.5073 357.397 46.6885 357.216 47.0508 357.216H50.3116C50.6738 357.216 50.8551 357.397 50.8551 357.759C50.6738 358.122 50.4928 358.303 50.3116 358.303Z" fill="#415A6B"/>
<path d="M45.4205 361.926C45.2393 361.926 44.877 361.745 44.877 361.564C44.877 361.201 45.0582 361.02 45.2393 360.839C45.7827 360.658 46.145 360.477 46.145 359.752C46.3262 358.484 47.5942 357.578 47.5942 357.578C47.7754 357.397 48.1377 357.397 48.3189 357.759C48.5001 357.941 48.5001 358.303 48.1377 358.484C47.7754 358.665 47.0507 359.39 47.0507 359.933C47.0509 361.02 46.5074 361.745 45.4205 361.926Z" fill="#415A6B"/>
<path d="M50.6738 378.592C50.6738 379.136 51.7607 379.136 51.7607 378.592C52.4854 375.513 52.8476 371.89 51.2172 369.172C48.3187 364.1 49.5868 357.941 49.5868 357.941V357.759H48.4999C48.3187 358.303 47.413 364.462 50.3115 369.716C51.7607 372.252 51.3984 375.694 50.6738 378.592Z" fill="#415A6B"/>
<path d="M99.6207 475.828C92.2069 475.828 89.9929 481.122 87.7586 483.241C85.5243 481.122 83.3103 475.828 75.8965 475.828C69.0149 475.828 65.5172 483.774 65.5172 490.655C65.5172 502.517 87.7586 515.862 87.7586 515.862C87.7586 515.862 110 502.517 110 490.655C110 483.774 106.502 475.828 99.6207 475.828Z" fill="#DD3E46"/>
<path d="M58.1035 461C50.6897 461 48.4757 466.295 46.2414 468.414C44.0071 466.295 41.7931 461 34.3793 461C27.4977 461 24 468.946 24 475.828C24 487.69 46.2414 501.034 46.2414 501.034C46.2414 501.034 68.4828 487.69 68.4828 475.828C68.4828 468.946 64.9851 461 58.1035 461Z" fill="#F98C96"/>
<path d="M78.862 506.966C71.4483 506.966 69.2343 512.26 67 514.379C64.7657 512.26 62.5517 506.966 55.1379 506.966C48.2563 506.966 44.7586 514.911 44.7586 521.793C44.7586 533.655 67 547 67 547C67 547 89.2414 533.655 89.2414 521.793C89.2414 514.911 85.7437 506.966 78.862 506.966Z" fill="#F98C96"/>
<path d="M48.5473 493.372L46.9009 490.904C47.0269 490.82 59.5862 482.34 59.5862 474.345H62.5517C62.5517 483.925 49.1178 492.991 48.5473 493.372Z" fill="white"/>
<path d="M62.5517 469.897H59.5862C59.6246 469.49 59.4783 469.087 59.1873 468.8C58.8962 468.512 58.4922 468.37 58.0853 468.414L58.1034 465.448C59.2937 465.414 60.4456 465.871 61.2869 466.713C62.1289 467.554 62.5864 468.706 62.5517 469.897Z" fill="white"/>
<path d="M90.0645 508.199L88.4182 505.732C88.5441 505.647 101.103 497.168 101.103 489.172H104.069C104.069 498.752 90.635 507.818 90.0645 508.199Z" fill="white"/>
<path d="M104.069 484.724H101.103C101.142 484.317 100.996 483.915 100.705 483.627C100.413 483.34 100.009 483.198 99.6026 483.241L99.6207 480.276C100.811 480.241 101.963 480.699 102.804 481.541C103.646 482.382 104.104 483.534 104.069 484.724Z" fill="white"/>
<path d="M69.3059 539.337L67.6595 536.87C67.7855 536.785 80.3448 528.306 80.3448 520.31H83.3103C83.3103 529.89 69.8764 538.956 69.3059 539.337Z" fill="white"/>
<path d="M83.3103 515.862H80.3448C80.3832 515.455 80.2369 515.053 79.9459 514.765C79.6548 514.478 79.2508 514.336 78.8439 514.379L78.862 511.414C80.0523 511.379 81.2042 511.837 82.0455 512.679C82.8875 513.52 83.3451 514.672 83.3103 515.862Z" fill="white"/>
<path d="M87.4849 439.325L85.2518 421.761L86.2317 421.643L87.0821 422.579L89.1406 438.406L88.4577 439.209L87.4849 439.325Z" fill="#ECF4F9"/>
<path d="M88.4578 439.209L86.2318 421.643L87.2872 421.517L89.5203 439.081L88.4578 439.209Z" fill="#CDDFF8"/>
<path d="M94.2847 439.004H93.4929L92.5231 438.68L95.3258 430.756L96.2852 431.076L96.9507 431.45L94.2847 439.004Z" fill="#ECF4F9"/>
<path d="M94.4626 439.328L93.5021 439.007L96.2851 431.076L97.2653 431.403L94.4626 439.328Z" fill="#CDDFF8"/>
<path d="M82.079 439.918L78.7273 434.539L79.5261 434.07L80.459 434.023L83.3984 438.849L82.7963 439.496L82.079 439.918Z" fill="#ECF4F9"/>
<path d="M82.7962 439.496L79.5261 434.07L80.4817 433.508L83.8334 438.886L82.7962 439.496Z" fill="#CDDFF8"/>
<path d="M73.0762 411.977C74.7751 411.977 76.1523 410.639 76.1523 408.988C76.1523 407.338 74.7751 406 73.0762 406C71.3772 406 70 407.338 70 408.988C70 410.639 71.3772 411.977 73.0762 411.977Z" fill="#E17D46"/>
<path d="M101.24 413.305C103.317 413.305 105 411.669 105 409.652C105 407.635 103.317 406 101.24 406C99.1638 406 97.4805 407.635 97.4805 409.652C97.4805 411.669 99.1638 413.305 101.24 413.305Z" fill="#8DC5E8"/>
<path d="M101.924 440C103.623 440 105 438.662 105 437.012C105 435.361 103.623 434.023 101.924 434.023C100.225 434.023 98.8477 435.361 98.8477 437.012C98.8477 438.662 100.225 440 101.924 440Z" fill="#ADE993"/>
<path d="M74.1745 419.154L75.6244 417.746L77.0743 419.154L75.6244 420.563L74.1745 419.154Z" fill="#ADE993"/>
<path d="M94.071 415.796L95.5209 414.387L96.9708 415.796L95.5209 417.204L94.071 415.796Z" fill="#E17D46"/>
<path d="M81.5777 421.871L81.5462 416.827L77.2515 413.993L82.1794 412.406L83.6269 407.562L85.4052 412.222L90.5945 412.063L87.5683 416.161L89.328 419.179L85.6794 418.779L81.5777 421.871Z" fill="#F6E486"/>
<path d="M88.867 415.563L91.8932 411.465L86.7039 411.624L83.6268 407.562L85.6805 418.779L90.6268 420.308L88.867 415.563Z" fill="#F0CE46"/>
<path d="M76.0282 436.01L74.4314 431.863L70.0098 430.79L73.576 428.034L73.2602 423.617L76.3774 426.724L80.6038 425.067L79.3866 429.334L82.1778 431.664L78.445 432.256L76.0282 436.01Z" fill="#F6E486"/>
<path d="M80.0704 428.67L81.2876 424.403L77.0611 426.06L73.2604 423.617L78.4452 432.256L82.9983 432.063L80.0704 428.67Z" fill="#F0CE46"/>
<path d="M100.4 430.72L97.2449 428.46L92.8037 429.454L94.693 425.425L92.3476 421.629L96.8758 422.129L99.8673 418.789L99.9563 423.061L104.151 424.793L100.185 426.974L100.4 430.72Z" fill="#F6E486"/>
<path d="M101.005 427.04L104.971 424.859L100.777 423.128L99.8673 418.789L97.2449 428.46L100.605 431.45L101.005 427.04Z" fill="#F0CE46"/>
<path d="M25.5 599.451C24.7065 599.451 24.0645 598.809 24.0645 598.016V586.436C24.0645 585.642 24.7065 585 25.5 585C26.2935 585 26.9355 585.642 26.9355 586.436V598.016C26.9355 598.809 26.2935 599.451 25.5 599.451Z" fill="#FED843"/>
<path d="M25.5 634C24.7065 634 24.0645 633.358 24.0645 632.564V620.984C24.0645 620.191 24.7065 619.549 25.5 619.549C26.2935 619.549 26.9355 620.191 26.9355 620.984V632.564C26.9355 633.358 26.2935 634 25.5 634Z" fill="#FED843"/>
<path d="M19.8672 599.391L17.7139 594.066C17.4167 593.332 17.7727 592.495 18.5074 592.198C19.242 591.901 20.0775 592.254 20.3775 592.99L22.5308 598.314C22.828 599.049 22.472 599.886 21.7373 600.183C21.0011 600.481 20.1653 600.123 19.8672 599.391Z" fill="#DD99FF"/>
<path d="M30.6225 626.01L28.4692 620.686C28.172 619.951 28.5281 619.114 29.2627 618.817C29.9973 618.517 30.8328 618.875 31.1328 619.609L33.2861 624.934C33.5833 625.668 33.2273 626.505 32.4927 626.802C31.7564 627.1 30.9207 626.743 30.6225 626.01Z" fill="#CC66FF"/>
<path d="M16.3652 602.394L8.24263 594.274C7.6819 593.713 7.6819 592.805 8.24263 592.244C8.80335 591.683 9.71186 591.683 10.2726 592.244L18.3952 600.364C18.9559 600.925 18.9559 601.833 18.3952 602.394C17.8344 602.954 16.926 602.955 16.3652 602.394Z" fill="#FED843"/>
<path d="M40.7274 626.756L32.6048 618.636C32.0441 618.075 32.0441 617.167 32.6048 616.606C33.1655 616.046 34.074 616.046 34.6348 616.606L42.7574 624.726C43.3181 625.287 43.3181 626.195 42.7574 626.756C42.1966 627.317 41.2882 627.317 40.7274 626.756Z" fill="#FABE2C"/>
<path d="M14.0156 610.936H2.43555C1.64207 610.936 1 610.293 1 609.5C1 608.707 1.64207 608.064 2.43555 608.064H14.0156C14.8091 608.064 15.4512 608.707 15.4512 609.5C15.4512 610.293 14.8091 610.936 14.0156 610.936Z" fill="#FED843"/>
<path d="M48.5645 610.936H36.9844C36.1909 610.936 35.5488 610.293 35.5488 609.5C35.5488 608.707 36.1909 608.064 36.9844 608.064H48.5645C49.3579 608.064 50 608.707 50 609.5C50 610.293 49.3579 610.936 48.5645 610.936Z" fill="#FABE2C"/>
<path d="M8.24263 626.756C7.6819 626.195 7.6819 625.287 8.24263 624.726L16.3652 616.606C16.926 616.046 17.8345 616.046 18.3952 616.606C18.9559 617.167 18.9559 618.075 18.3952 618.636L10.2726 626.756C9.71176 627.317 8.80335 627.317 8.24263 626.756Z" fill="#FED843"/>
<path d="M32.6048 602.394C32.0441 601.833 32.0441 600.925 32.6048 600.364L40.7274 592.244C41.2881 591.683 42.1966 591.683 42.7574 592.244C43.3181 592.805 43.3181 593.713 42.7574 594.274L34.6348 602.394C34.074 602.954 33.1656 602.955 32.6048 602.394Z" fill="#FABE2C"/>
<path d="M34.1043 632.232C34.8971 632.232 35.5399 631.589 35.5399 630.796C35.5399 630.003 34.8971 629.361 34.1043 629.361C33.3115 629.361 32.6688 630.003 32.6688 630.796C32.6688 631.589 33.3115 632.232 34.1043 632.232Z" fill="#FF3377"/>
<path d="M16.8957 589.639C17.6885 589.639 18.3312 588.997 18.3312 588.204C18.3312 587.411 17.6885 586.768 16.8957 586.768C16.1029 586.768 15.4601 587.411 15.4601 588.204C15.4601 588.997 16.1029 589.639 16.8957 589.639Z" fill="#FF6699"/>
<path d="M14.3689 606.335L9.08088 604.091C8.35191 603.782 8.00986 602.939 8.32109 602.209C8.62954 601.478 9.48187 601.14 10.2024 601.447L15.4904 603.691C16.2194 604 16.5614 604.843 16.2502 605.573C15.9414 606.308 15.0929 606.641 14.3689 606.335Z" fill="#DD99FF"/>
<path d="M40.7976 617.553L35.5096 615.309C34.7806 615 34.4386 614.157 34.7498 613.427C35.0583 612.695 35.9078 612.361 36.6311 612.665L41.9191 614.909C42.6481 615.218 42.9901 616.061 42.6789 616.791C42.3701 617.526 41.5216 617.859 40.7976 617.553Z" fill="#CC66FF"/>
<path d="M46.6428 619.91C47.4357 619.91 48.0784 619.267 48.0784 618.475C48.0784 617.682 47.4357 617.039 46.6428 617.039C45.85 617.039 45.2073 617.682 45.2073 618.475C45.2073 619.267 45.85 619.91 46.6428 619.91Z" fill="#FF3377"/>
<path d="M4.35718 601.961C5.15001 601.961 5.79272 601.318 5.79272 600.525C5.79272 599.733 5.15001 599.09 4.35718 599.09C3.56435 599.09 2.92163 599.733 2.92163 600.525C2.92163 601.318 3.56435 601.961 4.35718 601.961Z" fill="#FF6699"/>
<path d="M8.19497 616.49C7.89781 615.755 8.25383 614.918 8.98844 614.623L14.3129 612.472C15.0446 612.172 15.883 612.528 16.183 613.265C16.4802 614 16.1242 614.837 15.3895 615.133L10.0651 617.283C9.32618 617.582 8.49203 617.222 8.19497 616.49Z" fill="#DD99FF"/>
<path d="M34.8171 605.734C34.5199 605 34.876 604.163 35.6106 603.867L40.935 601.717C41.6668 601.415 42.5051 601.773 42.8052 602.51C43.1023 603.245 42.7463 604.082 42.0117 604.377L36.6872 606.528C35.9483 606.827 35.1142 606.466 34.8171 605.734Z" fill="#CC66FF"/>
<path d="M46.7963 602.331C47.5891 602.331 48.2318 601.689 48.2318 600.896C48.2318 600.103 47.5891 599.46 46.7963 599.46C46.0034 599.46 45.3607 600.103 45.3607 600.896C45.3607 601.689 46.0034 602.331 46.7963 602.331Z" fill="#FF3377"/>
<path d="M4.20374 619.54C4.99657 619.54 5.63928 618.897 5.63928 618.104C5.63928 617.311 4.99657 616.669 4.20374 616.669C3.41091 616.669 2.76819 617.311 2.76819 618.104C2.76819 618.897 3.41091 619.54 4.20374 619.54Z" fill="#FF6699"/>
<path d="M18.2073 626.677C17.4784 626.368 17.1363 625.525 17.4476 624.796L19.6934 619.511C20.0046 618.779 20.8514 618.438 21.5748 618.751C22.3037 619.061 22.6458 619.903 22.3345 620.632L20.0887 625.918C19.7746 626.656 18.9243 626.986 18.2073 626.677Z" fill="#DD99FF"/>
<path d="M29.4254 600.249C28.6964 599.939 28.3543 599.097 28.6656 598.368L30.9114 593.082C31.2199 592.352 32.0666 592.013 32.7928 592.323C33.5217 592.632 33.8638 593.475 33.5525 594.204L31.3067 599.489C30.9926 600.227 30.1424 600.558 29.4254 600.249Z" fill="#CC66FF"/>
<path d="M34.4745 589.793C35.2674 589.793 35.9101 589.15 35.9101 588.357C35.9101 587.564 35.2674 586.922 34.4745 586.922C33.6817 586.922 33.039 587.564 33.039 588.357C33.039 589.15 33.6817 589.793 34.4745 589.793Z" fill="#FF3377"/>
<path d="M16.5255 632.078C17.3183 632.078 17.961 631.436 17.961 630.643C17.961 629.85 17.3183 629.207 16.5255 629.207C15.7326 629.207 15.0899 629.85 15.0899 630.643C15.0899 631.436 15.7326 632.078 16.5255 632.078Z" fill="#FF6699"/>
<path d="M25.5 616.678C24.7065 616.678 24.0645 616.036 24.0645 615.242C24.0645 612.867 22.1326 610.936 19.7578 610.936C18.9643 610.936 18.3223 610.293 18.3223 609.5C18.3223 608.707 18.9643 608.064 19.7578 608.064C22.1326 608.064 24.0645 606.133 24.0645 603.758C24.0645 602.964 24.7065 602.322 25.5 602.322C26.2935 602.322 26.9355 602.964 26.9355 603.758C26.9355 606.133 28.8674 608.064 31.2422 608.064C32.0357 608.064 32.6777 608.707 32.6777 609.5C32.6777 610.293 32.0357 610.936 31.2422 610.936C28.8674 610.936 26.9355 612.867 26.9355 615.242C26.9355 616.036 26.2935 616.678 25.5 616.678Z" fill="#FF6699"/>
<path d="M26.9355 632.564V620.984C26.9355 620.191 26.2935 619.549 25.5 619.549V634C26.2935 634 26.9355 633.358 26.9355 632.564Z" fill="#FABE2C"/>
<path d="M26.9355 598.016V586.436C26.9355 585.642 26.2935 585 25.5 585V599.451C26.2935 599.451 26.9355 598.809 26.9355 598.016Z" fill="#FABE2C"/>
<path d="M26.9355 615.242C26.9355 612.867 28.8674 610.936 31.2422 610.936C32.0357 610.936 32.6777 610.293 32.6777 609.5C32.6777 608.707 32.0357 608.064 31.2422 608.064C28.8674 608.064 26.9355 606.133 26.9355 603.758C26.9355 602.964 26.2935 602.322 25.5 602.322V616.678C26.2935 616.678 26.9355 616.036 26.9355 615.242Z" fill="#FF3377"/>
<path d="M89.3099 684.738C89.3099 675.026 81.4364 667.152 71.7239 667.152C66.0371 667.152 61.1004 669.728 57.8859 673.915C54.7717 669.735 49.7015 667.152 44.0888 667.152C34.6535 667.152 27.005 674.801 27.005 684.236C27.005 688.184 27.7703 692.397 30.0198 695.29L58.1575 723.575L84.2853 697.3C87.4915 694.114 89.3099 689.615 89.3099 684.738Z" fill="#78147D"/>
<path d="M58.1575 674.187C58.1575 674.187 73.5334 685.244 58.4518 723.279L28.9543 693.574L27.005 684.978L29.6892 674.742L36.9625 668.608L44.9776 667.005L54.1379 670.167L58.1575 674.187Z" fill="#8B1391"/>
<path d="M58.4518 723.279L28.9544 693.574L28.0099 689.132L60.2041 721.523L58.4518 723.279Z" fill="white"/>
<path d="M58.1574 725L32.3358 699.027C28.309 695.28 26 690.16 26 684.978C26 674.513 34.5134 666 44.9776 666C49.7663 666 54.5145 668.014 58.1575 671.558C61.8006 668.014 66.5489 666 71.3375 666C81.8017 666 90.315 674.513 90.315 684.978C90.315 690.16 88.006 695.28 83.9793 699.027L58.1574 725ZM44.9776 668.01C35.6215 668.01 28.0099 675.622 28.0099 684.978C28.0099 689.542 30.1438 694.248 33.7185 697.568L33.7472 697.596L58.1575 722.149L82.5819 697.582L82.5965 697.568C86.171 694.248 88.3049 689.542 88.3049 684.978C88.3049 675.622 80.6933 668.01 71.3373 668.01C66.7761 668.01 62.2406 670.077 58.8937 673.68L58.1574 674.472L57.421 673.68C54.0744 670.077 49.5389 668.01 44.9776 668.01Z" fill="#1D1D1B"/>
<path d="M58.452 714.678L59.8732 716.099L70.9271 705.045L69.5059 703.624L58.452 714.678Z" fill="#1D1D1B"/>
</svg>
