<svg width="1086" height="155" viewBox="0 0 1086 155" fill="none" xmlns="http://www.w3.org/2000/svg">
<path d="M922.378 4.65125C908.954 4.65125 897.747 13.9495 895.096 26.3317C894.959 26.9697 894.039 26.9701 893.902 26.3317C891.251 13.9495 880.044 4.65125 866.62 4.65125C840.991 4.65125 828.941 35.6852 848.088 52.3781L891.513 90.2368C893.216 91.721 895.783 91.721 897.485 90.2368L940.91 52.3781C960.058 35.6852 948.008 4.65125 922.378 4.65125Z" fill="#FE646F"/>
<path d="M922.379 4.6507C920.826 4.6507 919.304 4.77658 917.821 5.01559C940.141 8.53495 949.572 36.7446 931.64 52.3775L889.864 88.7985L891.513 90.2363C893.216 91.7205 895.783 91.7205 897.485 90.2363L940.911 52.3775C960.058 35.6846 948.008 4.6507 922.379 4.6507Z" fill="#FD4755"/>
<path d="M922.378 4.65051C908.954 4.65051 897.747 13.9488 895.096 26.3309C894.959 26.9689 894.039 26.9694 893.902 26.3309C891.251 13.9488 880.044 4.65051 866.62 4.65051C840.991 4.65051 828.941 35.6845 848.088 52.3773L891.513 90.2361C893.216 91.7203 895.783 91.7203 897.485 90.2361L940.91 52.3773C960.058 35.6845 948.008 4.65051 922.378 4.65051Z" fill="#FE646F"/>
<path d="M922.379 4.6507C920.826 4.6507 919.304 4.77658 917.821 5.01559C940.141 8.53495 949.572 36.7446 931.64 52.3775L889.864 88.7985L891.513 90.2363C893.216 91.7205 895.783 91.7205 897.485 90.2363L940.911 52.3775C960.058 35.6846 948.008 4.6507 922.379 4.6507Z" fill="#FD4755"/>
<path d="M890.394 91.4695C844.503 51.4615 846.056 52.7842 846.056 52.7842C840.216 47.2856 837 39.9751 837 32.1991C837 21.9696 842.532 12.017 851.803 6.78609C852.609 6.33118 853.639 6.60276 854.103 7.39286C854.568 8.18274 854.29 9.19204 853.484 9.64696C845.394 14.2115 840.369 22.8528 840.369 32.1991C840.369 39.0684 843.218 45.5335 848.39 50.4037C848.39 50.4037 846.845 49.0841 892.633 89.0033C893.148 89.452 893.81 89.699 894.499 89.699C895.188 89.699 895.851 89.4518 896.366 89.0031L910.273 76.8789C910.968 76.273 912.032 76.3337 912.651 77.0149C913.269 77.6961 913.207 78.7393 912.512 79.3451L898.605 91.4695C896.262 93.5121 892.732 93.5082 890.394 91.4695ZM917.266 74.6424C916.802 74.6424 916.34 74.4556 916.007 74.0889C915.389 73.4077 915.451 72.3645 916.146 71.7587L939.791 51.1445C944.691 46.873 947.682 41.3797 948.441 35.2587C948.441 35.2574 948.441 35.2561 948.442 35.2548C950.157 21.4056 939.926 6.30125 922.379 6.30125C910.052 6.30125 899.272 14.8676 896.745 26.67C896.519 27.7242 895.595 28.4603 894.499 28.4603C893.403 28.4603 892.48 27.7239 892.254 26.6697C889.727 14.8676 878.946 6.30125 866.62 6.30125C864.456 6.30125 862.334 6.53806 860.312 7.00508C859.406 7.2146 858.5 6.66439 858.286 5.77723C858.072 4.88986 858.633 4.00116 859.539 3.79186C861.814 3.2663 864.196 3 866.62 3C879.13 3 890.308 10.7269 894.499 22.3216C898.702 10.6974 909.9 3 922.378 3C941.449 3 953.797 19.4094 951.786 35.652C951.786 35.6535 951.786 35.6553 951.786 35.6568C950.926 42.5882 947.552 48.7965 942.03 53.6108L918.385 74.2249C918.064 74.5049 917.664 74.6424 917.266 74.6424Z" fill="black"/>
<path d="M525.5 132.143C524.998 132.143 524.592 131.736 524.592 131.234V123.908C524.592 123.406 524.998 123 525.5 123C526.002 123 526.408 123.406 526.408 123.908V131.234C526.408 131.736 526.002 132.143 525.5 132.143Z" fill="#FED843"/>
<path d="M525.5 154C524.998 154 524.592 153.594 524.592 153.092V145.766C524.592 145.264 524.998 144.857 525.5 144.857C526.002 144.857 526.408 145.264 526.408 145.766V153.092C526.408 153.594 526.002 154 525.5 154Z" fill="#FED843"/>
<path d="M521.936 132.104L520.574 128.736C520.386 128.271 520.611 127.742 521.076 127.554C521.541 127.366 522.069 127.589 522.259 128.055L523.622 131.423C523.81 131.888 523.584 132.418 523.12 132.606C522.654 132.794 522.125 132.568 521.936 132.104Z" fill="#DD99FF"/>
<path d="M528.741 148.945L527.378 145.577C527.19 145.112 527.416 144.583 527.88 144.395C528.345 144.205 528.874 144.431 529.064 144.896L530.426 148.264C530.614 148.729 530.389 149.258 529.924 149.446C529.458 149.635 528.929 149.409 528.741 148.945Z" fill="#CC66FF"/>
<path d="M519.721 134.004L514.582 128.867C514.227 128.512 514.227 127.938 514.582 127.583C514.937 127.228 515.512 127.228 515.866 127.583L521.005 132.72C521.36 133.075 521.36 133.649 521.005 134.004C520.65 134.359 520.076 134.359 519.721 134.004Z" fill="#FED843"/>
<path d="M535.134 149.417L529.995 144.28C529.64 143.925 529.64 143.351 529.995 142.996C530.35 142.641 530.924 142.641 531.279 142.996L536.418 148.133C536.773 148.488 536.773 149.062 536.418 149.417C536.063 149.772 535.488 149.772 535.134 149.417Z" fill="#FABE2C"/>
<path d="M518.234 139.408H510.908C510.406 139.408 510 139.002 510 138.5C510 137.998 510.406 137.592 510.908 137.592H518.234C518.736 137.592 519.143 137.998 519.143 138.5C519.143 139.002 518.736 139.408 518.234 139.408Z" fill="#FED843"/>
<path d="M540.092 139.408H532.766C532.264 139.408 531.857 139.002 531.857 138.5C531.857 137.998 532.264 137.592 532.766 137.592H540.092C540.594 137.592 541 137.998 541 138.5C541 139.002 540.594 139.408 540.092 139.408Z" fill="#FABE2C"/>
<path d="M514.582 149.417C514.227 149.062 514.227 148.488 514.582 148.133L519.721 142.996C520.076 142.641 520.65 142.641 521.005 142.996C521.36 143.351 521.36 143.925 521.005 144.28L515.866 149.417C515.512 149.772 514.937 149.772 514.582 149.417Z" fill="#FED843"/>
<path d="M529.995 134.004C529.64 133.649 529.64 133.075 529.995 132.72L535.134 127.583C535.488 127.228 536.063 127.228 536.418 127.583C536.773 127.938 536.773 128.512 536.418 128.867L531.279 134.004C530.924 134.359 530.35 134.359 529.995 134.004Z" fill="#FABE2C"/>
<path d="M530.944 152.881C531.445 152.881 531.852 152.475 531.852 151.973C531.852 151.472 531.445 151.065 530.944 151.065C530.442 151.065 530.035 151.472 530.035 151.973C530.035 152.475 530.442 152.881 530.944 152.881Z" fill="#FF3377"/>
<path d="M520.056 125.935C520.558 125.935 520.965 125.528 520.965 125.027C520.965 124.525 520.558 124.119 520.056 124.119C519.555 124.119 519.148 124.525 519.148 125.027C519.148 125.528 519.555 125.935 520.056 125.935Z" fill="#FF6699"/>
<path d="M518.458 136.497L515.112 135.078C514.651 134.882 514.435 134.349 514.632 133.887C514.827 133.425 515.366 133.211 515.822 133.406L519.167 134.825C519.629 135.021 519.845 135.554 519.648 136.016C519.453 136.48 518.916 136.691 518.458 136.497Z" fill="#DD99FF"/>
<path d="M535.178 143.594L531.833 142.175C531.371 141.979 531.155 141.446 531.352 140.984C531.547 140.521 532.085 140.31 532.542 140.503L535.888 141.922C536.349 142.118 536.565 142.651 536.368 143.113C536.173 143.577 535.636 143.788 535.178 143.594Z" fill="#CC66FF"/>
<path d="M538.876 145.086C539.378 145.086 539.784 144.679 539.784 144.178C539.784 143.676 539.378 143.27 538.876 143.27C538.374 143.27 537.968 143.676 537.968 144.178C537.968 144.679 538.374 145.086 538.876 145.086Z" fill="#FF3377"/>
<path d="M512.124 133.73C512.626 133.73 513.032 133.324 513.032 132.822C513.032 132.321 512.626 131.914 512.124 131.914C511.622 131.914 511.216 132.321 511.216 132.822C511.216 133.324 511.622 133.73 512.124 133.73Z" fill="#FF6699"/>
<path d="M514.552 142.922C514.364 142.457 514.589 141.928 515.054 141.741L518.422 140.38C518.885 140.19 519.416 140.416 519.606 140.882C519.794 141.347 519.568 141.876 519.104 142.064L515.735 143.424C515.268 143.613 514.74 143.385 514.552 142.922Z" fill="#DD99FF"/>
<path d="M531.394 136.118C531.206 135.653 531.432 135.123 531.896 134.936L535.265 133.576C535.728 133.385 536.258 133.611 536.448 134.078C536.636 134.543 536.411 135.072 535.946 135.259L532.578 136.62C532.11 136.809 531.582 136.581 531.394 136.118Z" fill="#CC66FF"/>
<path d="M538.973 133.965C539.475 133.965 539.881 133.558 539.881 133.056C539.881 132.555 539.475 132.148 538.973 132.148C538.472 132.148 538.065 132.555 538.065 133.056C538.065 133.558 538.472 133.965 538.973 133.965Z" fill="#FF3377"/>
<path d="M512.027 144.852C512.528 144.852 512.935 144.445 512.935 143.944C512.935 143.442 512.528 143.035 512.027 143.035C511.525 143.035 511.119 143.442 511.119 143.944C511.119 144.445 511.525 144.852 512.027 144.852Z" fill="#FF6699"/>
<path d="M520.886 149.367C520.425 149.171 520.209 148.638 520.406 148.177L521.826 144.833C522.023 144.371 522.559 144.155 523.017 144.353C523.478 144.549 523.694 145.082 523.497 145.543L522.076 148.887C521.878 149.354 521.34 149.563 520.886 149.367Z" fill="#DD99FF"/>
<path d="M527.983 132.647C527.522 132.451 527.306 131.918 527.503 131.457L528.924 128.113C529.119 127.651 529.654 127.437 530.114 127.633C530.575 127.829 530.791 128.362 530.594 128.823L529.174 132.167C528.975 132.633 528.437 132.843 527.983 132.647Z" fill="#CC66FF"/>
<path d="M531.178 126.032C531.679 126.032 532.086 125.626 532.086 125.124C532.086 124.622 531.679 124.216 531.178 124.216C530.676 124.216 530.27 124.622 530.27 125.124C530.27 125.626 530.676 126.032 531.178 126.032Z" fill="#FF3377"/>
<path d="M519.822 152.784C520.324 152.784 520.73 152.378 520.73 151.876C520.73 151.374 520.324 150.968 519.822 150.968C519.321 150.968 518.914 151.374 518.914 151.876C518.914 152.378 519.321 152.784 519.822 152.784Z" fill="#FF6699"/>
<path d="M525.5 143.041C524.998 143.041 524.592 142.635 524.592 142.133C524.592 140.63 523.37 139.408 521.867 139.408C521.365 139.408 520.959 139.002 520.959 138.5C520.959 137.998 521.365 137.592 521.867 137.592C523.37 137.592 524.592 136.37 524.592 134.867C524.592 134.365 524.998 133.959 525.5 133.959C526.002 133.959 526.408 134.365 526.408 134.867C526.408 136.37 527.63 137.592 529.133 137.592C529.635 137.592 530.041 137.998 530.041 138.5C530.041 139.002 529.635 139.408 529.133 139.408C527.63 139.408 526.408 140.63 526.408 142.133C526.408 142.635 526.002 143.041 525.5 143.041Z" fill="#FF6699"/>
<path d="M526.408 153.092V145.766C526.408 145.264 526.002 144.857 525.5 144.857V154C526.002 154 526.408 153.594 526.408 153.092Z" fill="#FABE2C"/>
<path d="M526.408 131.234V123.908C526.408 123.406 526.002 123 525.5 123V132.143C526.002 132.143 526.408 131.736 526.408 131.234Z" fill="#FABE2C"/>
<path d="M526.408 142.133C526.408 140.63 527.63 139.408 529.133 139.408C529.635 139.408 530.041 139.002 530.041 138.5C530.041 137.998 529.635 137.592 529.133 137.592C527.63 137.592 526.408 136.37 526.408 134.867C526.408 134.365 526.002 133.959 525.5 133.959V143.041C526.002 143.041 526.408 142.635 526.408 142.133Z" fill="#FF3377"/>
<path d="M29.3211 45.672L30.6562 49.603C30.7834 49.9774 31.148 50.2307 31.5594 50.2307H35.88C36.7999 50.2307 37.1824 51.357 36.4381 51.8743L32.9427 54.3038C32.6099 54.5351 32.4706 54.9452 32.5977 55.3196L33.9329 59.2506C34.2171 60.0877 33.2157 60.7837 32.4715 60.2664L28.9761 57.8369C28.6433 57.6055 28.1925 57.6055 27.8597 57.8369L24.3643 60.2664C23.6201 60.7837 22.6187 60.0877 22.9029 59.2506L24.238 55.3196C24.3652 54.9452 24.2259 54.5351 23.8931 54.3038L20.3976 51.8743C19.6534 51.357 20.0359 50.2307 20.9558 50.2307H25.2764C25.6878 50.2307 26.0524 49.9773 26.1796 49.603L27.5147 45.672C27.799 44.8349 29.0367 44.8349 29.3211 45.672Z" fill="#FEE565"/>
<path d="M25.8311 56.5074C25.9583 56.1331 25.819 55.723 25.4862 55.4916L24.1329 54.5511C24.2824 54.7753 24.3276 55.0557 24.2379 55.3194L22.9028 59.2505C22.6185 60.0875 23.6199 60.7835 24.3641 60.2663L24.6131 60.0932L25.8311 56.5074Z" fill="#FDD62F"/>
<path d="M29.321 45.672C29.0368 44.8349 27.799 44.8349 27.5147 45.672L26.1796 49.603C26.0524 49.9774 25.6878 50.2307 25.2764 50.2307H23.174H20.9559C20.036 50.2307 19.6535 51.357 20.3977 51.8743L23.8932 54.3038C24.226 54.5351 24.3653 54.9452 24.2381 55.3196L22.903 59.2506C22.6188 60.0877 23.6201 60.7837 24.3644 60.2664L26.0513 59.0938C25.9899 58.9218 25.9822 58.726 26.0517 58.5217L27.3868 54.5906C27.514 54.2163 27.3746 53.8062 27.0418 53.5749L25.4749 52.4858C24.9917 52.1499 25.2401 51.4187 25.8374 51.4187H26.8696C27.281 51.4187 27.6456 51.1652 27.7728 50.791L29.1079 46.8599C29.1903 46.6174 29.3538 46.4475 29.5498 46.3455L29.321 45.672Z" fill="#FDE044"/>
<path d="M5.22137 47.0684L5.9696 49.2715C6.04086 49.4812 6.24521 49.6233 6.47578 49.6233H8.89716C9.41268 49.6233 9.62707 50.2545 9.20999 50.5444L7.25108 51.906C7.06458 52.0357 6.98646 52.2655 7.05773 52.4753L7.80596 54.6784C7.96527 55.1475 7.40413 55.5376 6.98693 55.2477L5.02802 53.886C4.84153 53.7563 4.58896 53.7563 4.40235 53.886L2.44344 55.2477C2.02636 55.5376 1.4651 55.1475 1.62442 54.6784L2.37264 52.4753C2.44391 52.2656 2.36579 52.0357 2.17929 51.906L0.22038 50.5444C-0.196694 50.2545 0.0176927 49.6233 0.533215 49.6233H2.9547C3.18528 49.6233 3.38962 49.4813 3.46089 49.2715L4.20912 47.0684C4.36843 46.5993 5.06206 46.5993 5.22137 47.0684Z" fill="#FDAEE0"/>
<path d="M3.20611 54.1184L3.95434 51.9153C4.0256 51.7056 3.94748 51.4757 3.76098 51.346L1.80207 49.9844C1.66533 49.8893 1.59749 49.7574 1.58497 49.6232H0.533948C0.0184253 49.6232 -0.195962 50.2544 0.221112 50.5443L2.18003 51.9058C2.36652 52.0354 2.44464 52.2652 2.37338 52.4751L1.62515 54.6781C1.46584 55.1473 2.02698 55.5373 2.44417 55.2474L3.33138 54.6308C3.20256 54.5062 3.13768 54.3197 3.20611 54.1184Z" fill="#FD94D3"/>
<path d="M51.7786 47.0684L51.0304 49.2715C50.9591 49.4812 50.7548 49.6233 50.5242 49.6233H48.1029C47.5873 49.6233 47.3729 50.2545 47.79 50.5444L49.7489 51.906C49.9354 52.0357 50.0136 52.2655 49.9423 52.4753L49.1941 54.6784C49.0347 55.1475 49.5959 55.5376 50.0131 55.2477L51.972 53.886C52.1585 53.7563 52.411 53.7563 52.5977 53.886L54.5566 55.2477C54.9736 55.5376 55.5349 55.1475 55.3756 54.6784L54.6274 52.4753C54.5561 52.2656 54.6342 52.0357 54.8207 51.906L56.7796 50.5444C57.1967 50.2545 56.9823 49.6233 56.4668 49.6233H54.0454C53.8148 49.6233 53.6105 49.4813 53.5392 49.2715L52.791 47.0684C52.6316 46.5993 51.938 46.5993 51.7786 47.0684Z" fill="#C8EFFD"/>
<path d="M50.847 54.1927L51.5952 51.9896C51.6665 51.7799 51.5884 51.55 51.4019 51.4203L49.443 50.0588C49.2809 49.9462 49.2152 49.7821 49.2244 49.6235H48.1029C47.5873 49.6235 47.3729 50.2546 47.79 50.5445L49.7489 51.906C49.9354 52.0356 50.0136 52.2655 49.9423 52.4753L49.1941 54.6784C49.0347 55.1475 49.596 55.5376 50.0131 55.2477L50.9066 54.6266C50.8243 54.5079 50.7917 54.3555 50.847 54.1927Z" fill="#9BE5FB"/>
<path d="M8.78274 34.2259L9.26316 35.6405C9.3089 35.7751 9.44009 35.8664 9.58817 35.8664H11.1428C11.4738 35.8664 11.6114 36.2716 11.3436 36.4577L10.0858 37.3319C9.96613 37.4151 9.91602 37.5627 9.96176 37.6975L10.4422 39.112C10.5445 39.4132 10.1842 39.6637 9.91637 39.4776L8.65865 38.6033C8.53893 38.5201 8.37666 38.5201 8.25694 38.6033L6.99922 39.4776C6.73141 39.6637 6.37106 39.4132 6.47341 39.112L6.95383 37.6975C6.99957 37.5628 6.94946 37.4152 6.82974 37.3319L5.57202 36.4577C5.30421 36.2716 5.44189 35.8664 5.77281 35.8664H7.32742C7.4755 35.8664 7.60669 35.7751 7.65242 35.6405L8.13285 34.2259C8.23508 33.9247 8.6804 33.9247 8.78274 34.2259Z" fill="#FDC36D"/>
<path d="M36.4502 46.9563L36.5441 45.4507C36.7169 42.6802 38.6637 40.3011 41.4333 39.4754C41.4966 39.4565 41.5642 39.4877 41.5883 39.5466L43.0889 43.2189C43.1193 43.2934 43.0669 43.375 42.9837 43.3828L42.3902 43.4383C40.5517 43.6101 38.8594 44.4724 37.6844 45.836L36.6533 47.0327C36.5827 47.1147 36.4436 47.0624 36.4502 46.9563Z" fill="#B289C8"/>
<path d="M20.5498 46.9563L20.4559 45.4507C20.2831 42.6802 18.3364 40.3011 15.5666 39.4754C15.5033 39.4565 15.4357 39.4877 15.4116 39.5466L13.911 43.2189C13.8806 43.2934 13.933 43.375 14.0162 43.3828L14.6098 43.4383C16.4482 43.6101 18.1405 44.4724 19.3155 45.836L20.3466 47.0327C20.4172 47.1147 20.5565 47.0624 20.5498 46.9563Z" fill="#C8EFFD"/>
<path d="M19.1653 65.7403L18.8551 64.2616C18.2843 61.5404 16.0129 59.4411 13.1505 58.989C13.0852 58.9787 13.0227 59.0184 13.0073 59.08L12.051 62.9153C12.0316 62.9931 12.0953 63.0671 12.1788 63.0639L12.7746 63.0404C14.6203 62.9679 16.4207 63.5984 17.7811 64.7939L18.975 65.8429C19.057 65.9147 19.1872 65.8446 19.1653 65.7403Z" fill="#9DF8D3"/>
<path d="M23.4035 85.3536C22.914 85.3536 22.5171 84.9741 22.5171 84.5056V76.0087C22.5171 73.9048 21.9757 71.8088 20.9513 69.947C20.7233 69.5326 20.8896 69.0199 21.3228 68.8017C21.7559 68.5833 22.292 68.7425 22.52 69.1572C23.6778 71.2613 24.2898 73.6306 24.2898 76.0088V84.5057C24.2899 84.9741 23.8932 85.3536 23.4035 85.3536Z" fill="#9DF8D3"/>
<path d="M5.84529 73.0701C7.28819 73.0701 8.45788 71.9511 8.45788 70.5707C8.45788 69.1903 7.28819 68.0713 5.84529 68.0713C4.40239 68.0713 3.2327 69.1903 3.2327 70.5707C3.2327 71.9511 4.40239 73.0701 5.84529 73.0701Z" fill="#EA596C"/>
<path d="M14.558 85.3537C14.0684 85.3537 13.6716 84.9741 13.6716 84.5057V80.2317C13.6716 78.6334 12.9648 77.0979 11.7326 76.0187L10.6979 75.1124C10.3368 74.7962 10.3121 74.2598 10.6426 73.9143C10.9732 73.5689 11.5338 73.5452 11.8949 73.8614L12.9296 74.7676C14.5277 76.1672 15.4443 78.1588 15.4443 80.2316V84.5055C15.4443 84.9741 15.0475 85.3537 14.558 85.3537Z" fill="#F48C99"/>
<path d="M37.8347 65.7403L38.145 64.2616C38.7158 61.5404 40.9872 59.4411 43.8495 58.989C43.9149 58.9787 43.9774 59.0184 43.9926 59.08L44.949 62.9153C44.9684 62.9931 44.9047 63.0671 44.8211 63.0639L44.2254 63.0404C42.3797 62.9679 40.5792 63.5984 39.2188 64.7939L38.0249 65.8429C37.9431 65.9147 37.8129 65.8446 37.8347 65.7403Z" fill="#FDCF8A"/>
<path d="M33.5965 85.3536C33.107 85.3536 32.7101 84.9741 32.7101 84.5057V76.0087C32.7101 73.6306 33.3221 71.2613 34.4799 69.1571C34.7079 68.7427 35.2439 68.5834 35.6771 68.8016C36.1103 69.0198 36.2766 69.5325 36.0486 69.9469C35.0243 71.8087 34.4828 73.9047 34.4828 76.0086V84.5055C34.4829 84.9741 34.086 85.3536 33.5965 85.3536Z" fill="#F8A7B0"/>
<path d="M51.1547 73.0701C52.5976 73.0701 53.7673 71.9511 53.7673 70.5707C53.7673 69.1903 52.5976 68.0713 51.1547 68.0713C49.7118 68.0713 48.5421 69.1903 48.5421 70.5707C48.5421 71.9511 49.7118 73.0701 51.1547 73.0701Z" fill="#FDAEE0"/>
<path d="M42.4421 85.3536C41.9525 85.3536 41.5557 84.9741 41.5557 84.5057V80.2317C41.5557 78.1589 42.4722 76.1673 44.0703 74.7677L45.1051 73.8615C45.466 73.5452 46.0267 73.569 46.3574 73.9144C46.688 74.2599 46.6631 74.7963 46.3021 75.1125L45.2674 76.0188C44.0352 77.098 43.3284 78.6335 43.3284 80.2318V84.5058C43.3284 84.9741 42.9316 85.3536 42.4421 85.3536Z" fill="#B3CAEB"/>
<path d="M48.2173 34.2259L47.7368 35.6405C47.6911 35.7751 47.5599 35.8664 47.4118 35.8664H45.8572C45.5262 35.8664 45.3886 36.2716 45.6564 36.4577L46.9142 37.3319C47.0339 37.4151 47.084 37.5627 47.0382 37.6975L46.5578 39.112C46.4555 39.4132 46.8158 39.6637 47.0836 39.4776L48.3413 38.6033C48.4611 38.5201 48.6233 38.5201 48.7431 38.6033L50.0008 39.4776C50.2686 39.6637 50.6289 39.4132 50.5266 39.112L50.0462 37.6975C50.0004 37.5628 50.0505 37.4152 50.1703 37.3319L51.428 36.4577C51.6958 36.2716 51.5581 35.8664 51.2272 35.8664H49.6726C49.5245 35.8664 49.3933 35.7751 49.3476 35.6405L48.8672 34.2259C48.7649 33.9247 48.3196 33.9247 48.2173 34.2259Z" fill="#FDAEE0"/>
<path d="M28.5 86.0986C28.0105 86.0986 27.6136 85.719 27.6136 85.2506V63.7022C27.6136 63.2338 28.0105 62.8542 28.5 62.8542C28.9895 62.8542 29.3864 63.2338 29.3864 63.7022V85.2506C29.3864 85.719 28.9895 86.0986 28.5 86.0986Z" fill="#FDC36D"/>
<path d="M28.5 91C28.0105 91 27.6136 90.6205 27.6136 90.152V88.3373C27.6136 87.8689 28.0105 87.4893 28.5 87.4893C28.9895 87.4893 29.3864 87.8689 29.3864 88.3373V90.152C29.3864 90.6205 28.9895 91 28.5 91Z" fill="#FDC36D"/>
<path d="M15.2584 51.3266C15.1054 51.3266 14.9504 51.2887 14.8091 51.209L13.4522 50.4438C13.0305 50.2059 12.8901 49.6861 13.1388 49.2826C13.3874 48.8793 13.9308 48.7448 14.3525 48.9827L15.7094 49.748C16.1311 49.9858 16.2715 50.5056 16.0228 50.9091C15.8575 51.1773 15.5619 51.3266 15.2584 51.3266Z" fill="#EA596C"/>
<path d="M41.7415 51.3266C41.438 51.3266 41.1425 51.1774 40.9771 50.9091C40.7285 50.5057 40.8689 49.9858 41.2905 49.7479L42.6474 48.9827C43.0692 48.7448 43.6126 48.8792 43.8612 49.2826C44.1098 49.686 43.9694 50.2059 43.5478 50.4438L42.1909 51.209C42.0495 51.2887 41.8945 51.3266 41.7415 51.3266Z" fill="#13E29D"/>
<path d="M28.4179 41.1759C27.9284 41.1759 27.5315 40.7964 27.5315 40.3279V38.8997C27.5315 38.4313 27.9284 38.0517 28.4179 38.0517C28.9074 38.0517 29.3043 38.4313 29.3043 38.8997V40.3279C29.3043 40.7964 28.9074 41.1759 28.4179 41.1759Z" fill="#FE74C5"/>
<path d="M645.033 7.57653L645.9 10.1283C645.982 10.3713 646.219 10.5357 646.486 10.5357H649.29C649.888 10.5357 650.136 11.2668 649.653 11.6026L647.384 13.1797C647.168 13.3298 647.077 13.596 647.16 13.839L648.027 16.3908C648.211 16.9341 647.561 17.3859 647.078 17.0501L644.809 15.4731C644.593 15.3229 644.3 15.3229 644.084 15.4731L641.815 17.0501C641.332 17.3859 640.682 16.9341 640.867 16.3908L641.733 13.839C641.816 13.596 641.726 13.3298 641.51 13.1797L639.241 11.6026C638.757 11.2668 639.006 10.5357 639.603 10.5357H642.407C642.675 10.5357 642.911 10.3712 642.994 10.1283L643.86 7.57653C644.045 7.0332 644.848 7.0332 645.033 7.57653Z" fill="#FEE565"/>
<path d="M642.768 14.6101C642.85 14.3671 642.76 14.1009 642.544 13.9507L641.665 13.3401C641.762 13.4857 641.792 13.6677 641.733 13.8389L640.867 16.3907C640.682 16.934 641.332 17.3858 641.815 17.05L641.977 16.9377L642.768 14.6101Z" fill="#FDD62F"/>
<path d="M645.033 7.57653C644.848 7.0332 644.045 7.0332 643.86 7.57653L642.994 10.1283C642.911 10.3713 642.675 10.5357 642.407 10.5357H641.043H639.603C639.006 10.5357 638.758 11.2668 639.241 11.6026L641.51 13.1797C641.726 13.3298 641.816 13.596 641.734 13.839L640.867 16.3908C640.682 16.9341 641.332 17.3859 641.815 17.0501L642.91 16.289C642.871 16.1773 642.866 16.0502 642.911 15.9176L643.777 13.3659C643.86 13.1229 643.769 12.8567 643.553 12.7065L642.536 11.9996C642.223 11.7815 642.384 11.3069 642.772 11.3069H643.442C643.709 11.3069 643.945 11.1423 644.028 10.8994L644.895 8.34768C644.948 8.19025 645.054 8.07994 645.181 8.01374L645.033 7.57653Z" fill="#FDE044"/>
<path d="M629.389 8.48302L629.875 9.91309C629.921 10.0492 630.054 10.1415 630.204 10.1415H631.775C632.11 10.1415 632.249 10.5512 631.978 10.7393L630.707 11.6232C630.586 11.7074 630.535 11.8565 630.581 11.9928L631.067 13.4228C631.17 13.7273 630.806 13.9805 630.535 13.7924L629.264 12.9085C629.143 12.8243 628.979 12.8243 628.858 12.9085L627.586 13.7924C627.315 13.9805 626.951 13.7273 627.054 13.4228L627.54 11.9928C627.586 11.8566 627.536 11.7074 627.415 11.6232L626.143 10.7393C625.872 10.5512 626.011 10.1415 626.346 10.1415H627.918C628.068 10.1415 628.2 10.0493 628.247 9.91309L628.732 8.48302C628.836 8.17851 629.286 8.17851 629.389 8.48302Z" fill="#FDAEE0"/>
<path d="M628.081 13.0593L628.567 11.6292C628.613 11.4931 628.562 11.3439 628.441 11.2597L627.17 10.3758C627.081 10.3141 627.037 10.2285 627.029 10.1414H626.347C626.012 10.1414 625.873 10.5511 626.144 10.7392L627.415 11.623C627.536 11.7072 627.587 11.8564 627.541 11.9926L627.055 13.4226C626.952 13.7272 627.316 13.9804 627.587 13.7922L628.162 13.3919C628.079 13.311 628.037 13.19 628.081 13.0593Z" fill="#FD94D3"/>
<path d="M659.611 8.48302L659.125 9.91309C659.079 10.0492 658.946 10.1415 658.796 10.1415H657.225C656.89 10.1415 656.751 10.5512 657.022 10.7393L658.293 11.6232C658.414 11.7074 658.465 11.8565 658.419 11.9928L657.933 13.4228C657.83 13.7273 658.194 13.9805 658.465 13.7924L659.736 12.9085C659.857 12.8243 660.021 12.8243 660.142 12.9085L661.414 13.7924C661.685 13.9805 662.049 13.7273 661.946 13.4228L661.46 11.9928C661.414 11.8566 661.464 11.7074 661.585 11.6232L662.857 10.7393C663.128 10.5512 662.989 10.1415 662.654 10.1415H661.082C660.932 10.1415 660.8 10.0493 660.754 9.91309L660.268 8.48302C660.164 8.17851 659.714 8.17851 659.611 8.48302Z" fill="#C8EFFD"/>
<path d="M659.006 13.1075L659.492 11.6774C659.538 11.5413 659.487 11.3921 659.366 11.3079L658.095 10.4241C657.989 10.351 657.947 10.2445 657.953 10.1415H657.225C656.89 10.1415 656.751 10.5512 657.022 10.7394L658.293 11.6232C658.414 11.7073 658.465 11.8565 658.419 11.9927L657.933 13.4228C657.83 13.7273 658.194 13.9805 658.465 13.7923L659.045 13.3892C658.991 13.3121 658.97 13.2132 659.006 13.1075Z" fill="#9BE5FB"/>
<path d="M631.701 0.14664L632.013 1.06486C632.043 1.15227 632.128 1.2115 632.224 1.2115H633.233C633.448 1.2115 633.537 1.47454 633.363 1.59535L632.547 2.16282C632.469 2.21684 632.437 2.31262 632.466 2.4001L632.778 3.31833C632.845 3.51385 632.611 3.67641 632.437 3.55561L631.621 2.98813C631.543 2.93411 631.437 2.93411 631.36 2.98813L630.543 3.55561C630.37 3.67641 630.136 3.51385 630.202 3.31833L630.514 2.4001C630.544 2.31269 630.511 2.21691 630.433 2.16282L629.617 1.59535C629.443 1.47454 629.532 1.2115 629.747 1.2115H630.756C630.853 1.2115 630.938 1.15227 630.967 1.06486L631.279 0.14664C631.346 -0.0488799 631.635 -0.0488799 631.701 0.14664Z" fill="#FDC36D"/>
<path d="M649.661 8.41018L649.722 7.43288C649.834 5.63453 651.097 4.09019 652.895 3.5542C652.936 3.54194 652.98 3.5622 652.996 3.60044L653.97 5.98417C653.99 6.03254 653.956 6.08553 653.902 6.09059L653.516 6.12663C652.323 6.23811 651.225 6.79788 650.462 7.683L649.793 8.4598C649.747 8.51301 649.656 8.4791 649.661 8.41018Z" fill="#B289C8"/>
<path d="M639.339 8.41018L639.278 7.43288C639.166 5.63453 637.903 4.09019 636.105 3.5542C636.064 3.54194 636.02 3.5622 636.004 3.60044L635.03 5.98417C635.01 6.03254 635.044 6.08553 635.098 6.09059L635.484 6.12663C636.677 6.23811 637.775 6.79788 638.538 7.683L639.207 8.4598C639.253 8.51301 639.344 8.4791 639.339 8.41018Z" fill="#C8EFFD"/>
<path d="M638.441 20.6034L638.239 19.6435C637.869 17.8771 636.394 16.5144 634.536 16.2209C634.494 16.2143 634.453 16.24 634.443 16.28L633.823 18.7696C633.81 18.8201 633.851 18.8681 633.906 18.866L634.292 18.8508C635.49 18.8037 636.659 19.213 637.542 19.989L638.317 20.67C638.37 20.7166 638.455 20.6711 638.441 20.6034Z" fill="#9DF8D3"/>
<path d="M641.192 33.3348C640.874 33.3348 640.616 33.0884 640.616 32.7844V27.2688C640.616 25.9031 640.265 24.5425 639.6 23.334C639.452 23.0651 639.56 22.7322 639.841 22.5906C640.122 22.4489 640.47 22.5522 640.618 22.8213C641.37 24.1872 641.767 25.7251 641.767 27.2689V32.7844C641.767 33.0884 641.51 33.3348 641.192 33.3348Z" fill="#9DF8D3"/>
<path d="M629.794 25.3613C630.731 25.3613 631.49 24.6349 631.49 23.7389C631.49 22.8428 630.731 22.1165 629.794 22.1165C628.858 22.1165 628.098 22.8428 628.098 23.7389C628.098 24.6349 628.858 25.3613 629.794 25.3613Z" fill="#EA596C"/>
<path d="M635.45 33.3348C635.132 33.3348 634.875 33.0885 634.875 32.7844V30.01C634.875 28.9726 634.416 27.9758 633.616 27.2753L632.944 26.687C632.71 26.4817 632.694 26.1336 632.908 25.9093C633.123 25.6851 633.487 25.6697 633.721 25.8749L634.393 26.4632C635.43 27.3717 636.025 28.6645 636.025 30.01V32.7843C636.025 33.0885 635.768 33.3348 635.45 33.3348Z" fill="#F48C99"/>
<path d="M650.559 20.6034L650.761 19.6435C651.131 17.8771 652.606 16.5144 654.464 16.2209C654.506 16.2143 654.547 16.24 654.557 16.28L655.177 18.7696C655.19 18.8201 655.149 18.8681 655.094 18.866L654.708 18.8508C653.51 18.8037 652.341 19.213 651.458 19.989L650.683 20.67C650.63 20.7166 650.545 20.6711 650.559 20.6034Z" fill="#FDCF8A"/>
<path d="M647.808 33.3348C647.49 33.3348 647.233 33.0885 647.233 32.7844V27.2688C647.233 25.7251 647.63 24.1872 648.382 22.8213C648.53 22.5523 648.878 22.4489 649.159 22.5905C649.44 22.7322 649.548 23.065 649.4 23.334C648.735 24.5425 648.384 25.903 648.384 27.2687V32.7843C648.384 33.0885 648.126 33.3348 647.808 33.3348Z" fill="#F8A7B0"/>
<path d="M659.206 25.3613C660.142 25.3613 660.902 24.6349 660.902 23.7389C660.902 22.8428 660.142 22.1165 659.206 22.1165C658.269 22.1165 657.51 22.8428 657.51 23.7389C657.51 24.6349 658.269 25.3613 659.206 25.3613Z" fill="#FDAEE0"/>
<path d="M653.55 33.3348C653.232 33.3348 652.975 33.0884 652.975 32.7844V30.01C652.975 28.6645 653.57 27.3718 654.607 26.4632L655.279 25.875C655.513 25.6697 655.877 25.6851 656.092 25.9093C656.306 26.1336 656.29 26.4818 656.056 26.6871L655.384 27.2753C654.584 27.9759 654.125 28.9726 654.125 30.0101V32.7844C654.125 33.0884 653.868 33.3348 653.55 33.3348Z" fill="#B3CAEB"/>
<path d="M657.299 0.14664L656.987 1.06486C656.957 1.15227 656.872 1.2115 656.776 1.2115H655.767C655.552 1.2115 655.463 1.47454 655.637 1.59535L656.453 2.16282C656.531 2.21684 656.563 2.31262 656.534 2.4001L656.222 3.31833C656.155 3.51385 656.389 3.67641 656.563 3.55561L657.379 2.98813C657.457 2.93411 657.563 2.93411 657.64 2.98813L658.457 3.55561C658.63 3.67641 658.864 3.51385 658.798 3.31833L658.486 2.4001C658.456 2.31269 658.489 2.21691 658.567 2.16282L659.383 1.59535C659.557 1.47454 659.468 1.2115 659.253 1.2115H658.244C658.147 1.2115 658.062 1.15227 658.033 1.06486L657.721 0.14664C657.654 -0.0488799 657.365 -0.0488799 657.299 0.14664Z" fill="#FDAEE0"/>
<path d="M644.5 33.8184C644.182 33.8184 643.925 33.572 643.925 33.2679V19.2804C643.925 18.9763 644.182 18.7299 644.5 18.7299C644.818 18.7299 645.075 18.9763 645.075 19.2804V33.2679C645.075 33.572 644.818 33.8184 644.5 33.8184Z" fill="#FDC36D"/>
<path d="M644.5 37C644.182 37 643.925 36.7536 643.925 36.4496V35.2716C643.925 34.9675 644.182 34.7212 644.5 34.7212C644.818 34.7212 645.075 34.9675 645.075 35.2716V36.4496C645.075 36.7536 644.818 37 644.5 37Z" fill="#FDC36D"/>
<path d="M635.905 11.2471C635.805 11.2471 635.705 11.2225 635.613 11.1708L634.732 10.674C634.458 10.5196 634.367 10.1822 634.529 9.92028C634.69 9.65848 635.043 9.57122 635.317 9.72564L636.197 10.2224C636.471 10.3768 636.562 10.7142 636.401 10.9761C636.293 11.1502 636.102 11.2471 635.905 11.2471Z" fill="#EA596C"/>
<path d="M653.095 11.2471C652.898 11.2471 652.707 11.1503 652.599 10.9761C652.438 10.7142 652.529 10.3768 652.803 10.2223L653.683 9.72563C653.957 9.57121 654.31 9.6584 654.471 9.92026C654.633 10.1821 654.542 10.5196 654.268 10.674L653.387 11.1707C653.295 11.2225 653.195 11.2471 653.095 11.2471Z" fill="#13E29D"/>
<path d="M644.447 4.65804C644.129 4.65804 643.871 4.41165 643.871 4.10759V3.18048C643.871 2.87642 644.129 2.63004 644.447 2.63004C644.764 2.63004 645.022 2.87642 645.022 3.18048V4.10759C645.022 4.41165 644.764 4.65804 644.447 4.65804Z" fill="#FE74C5"/>
<path d="M233.483 139.226L230.995 119.078L232.087 118.944L233.034 120.017L235.328 138.172L234.567 139.092L233.483 139.226Z" fill="#ECF4F9"/>
<path d="M234.567 139.092L232.087 118.944L233.263 118.798L235.751 138.946L234.567 139.092Z" fill="#CDDFF8"/>
<path d="M241.06 138.857H240.178L239.097 138.486L242.22 129.396L243.289 129.764L244.031 130.193L241.06 138.857Z" fill="#ECF4F9"/>
<path d="M241.258 139.229L240.188 138.861L243.289 129.764L244.381 130.139L241.258 139.229Z" fill="#CDDFF8"/>
<path d="M227.46 139.906L223.725 133.736L224.615 133.197L225.654 133.145L228.93 138.68L228.259 139.422L227.46 139.906Z" fill="#ECF4F9"/>
<path d="M228.259 139.422L224.615 133.197L225.68 132.553L229.414 138.723L228.259 139.422Z" fill="#CDDFF8"/>
<path d="M217.428 107.855C219.321 107.855 220.855 106.321 220.855 104.428C220.855 102.535 219.321 101 217.428 101C215.535 101 214 102.535 214 104.428C214 106.321 215.535 107.855 217.428 107.855Z" fill="#E17D46"/>
<path d="M248.811 109.379C251.124 109.379 253 107.503 253 105.189C253 102.876 251.124 101 248.811 101C246.497 101 244.621 102.876 244.621 105.189C244.621 107.503 246.497 109.379 248.811 109.379Z" fill="#8DC5E8"/>
<path d="M249.572 140C251.465 140 253 138.465 253 136.572C253 134.679 251.465 133.145 249.572 133.145C247.679 133.145 246.145 134.679 246.145 136.572C246.145 138.465 247.679 140 249.572 140Z" fill="#ADE993"/>
<path d="M218.652 116.089L220.267 114.473L221.883 116.089L220.267 117.704L218.652 116.089Z" fill="#ADE993"/>
<path d="M240.822 112.236L242.438 110.621L244.053 112.236L242.438 113.852L240.822 112.236Z" fill="#E17D46"/>
<path d="M226.901 119.205L226.866 113.42L222.08 110.169L227.571 108.348L229.184 102.792L231.166 108.137L236.948 107.954L233.576 112.655L235.537 116.117L231.471 115.658L226.901 119.205Z" fill="#F6E486"/>
<path d="M235.023 111.969L238.395 107.269L232.613 107.452L229.184 102.792L231.473 115.658L236.984 117.412L235.023 111.969Z" fill="#F0CE46"/>
<path d="M220.717 135.423L218.938 130.667L214.011 129.436L217.985 126.274L217.633 121.208L221.106 124.772L225.816 122.871L224.46 127.765L227.57 130.438L223.41 131.118L220.717 135.423Z" fill="#F6E486"/>
<path d="M225.221 127.003L226.578 122.11L221.868 124.01L217.633 121.208L223.41 131.118L228.484 130.895L225.221 127.003Z" fill="#F0CE46"/>
<path d="M247.875 129.355L244.359 126.763L239.41 127.903L241.515 123.282L238.902 118.927L243.947 119.501L247.281 115.67L247.38 120.57L252.054 122.557L247.634 125.058L247.875 129.355Z" fill="#F6E486"/>
<path d="M248.548 125.134L252.968 122.633L248.294 120.646L247.281 115.67L244.359 126.763L248.103 130.193L248.548 125.134Z" fill="#F0CE46"/>
<path d="M363.483 49.226L360.995 29.0785L362.087 28.9437L363.034 30.0172L365.328 48.1719L364.567 49.0921L363.483 49.226Z" fill="#ECF4F9"/>
<path d="M364.567 49.0921L362.087 28.9436L363.263 28.7985L365.751 48.9459L364.567 49.0921Z" fill="#CDDFF8"/>
<path d="M371.06 48.8574H370.178L369.097 48.4862L372.22 39.3964L373.289 39.7637L374.031 40.1931L371.06 48.8574Z" fill="#ECF4F9"/>
<path d="M371.258 49.2287L370.188 48.8609L373.289 39.7636L374.381 40.1389L371.258 49.2287Z" fill="#CDDFF8"/>
<path d="M357.46 49.9062L353.725 43.7362L354.615 43.1974L355.654 43.1445L358.93 48.6797L358.259 49.4223L357.46 49.9062Z" fill="#ECF4F9"/>
<path d="M358.259 49.4223L354.615 43.1974L355.68 42.5528L359.414 48.7227L358.259 49.4223Z" fill="#CDDFF8"/>
<path d="M347.428 17.8555C349.321 17.8555 350.855 16.3208 350.855 14.4277C350.855 12.5346 349.321 11 347.428 11C345.535 11 344 12.5346 344 14.4277C344 16.3208 345.535 17.8555 347.428 17.8555Z" fill="#E17D46"/>
<path d="M378.811 19.3789C381.124 19.3789 383 17.5032 383 15.1895C383 12.8757 381.124 11 378.811 11C376.497 11 374.621 12.8757 374.621 15.1895C374.621 17.5032 376.497 19.3789 378.811 19.3789Z" fill="#8DC5E8"/>
<path d="M379.572 50C381.465 50 383 48.4654 383 46.5723C383 44.6792 381.465 43.1445 379.572 43.1445C377.679 43.1445 376.145 44.6792 376.145 46.5723C376.145 48.4654 377.679 50 379.572 50Z" fill="#ADE993"/>
<path d="M348.652 26.0889L350.267 24.4733L351.883 26.0889L350.267 27.7045L348.652 26.0889Z" fill="#ADE993"/>
<path d="M370.822 22.2365L372.438 20.6209L374.053 22.2365L372.438 23.8521L370.822 22.2365Z" fill="#E17D46"/>
<path d="M356.901 29.2048L356.866 23.4196L352.08 20.1688L357.571 18.3477L359.184 12.7918L361.166 18.1371L366.948 17.9541L363.576 22.655L365.537 26.1174L361.471 25.6579L356.901 29.2048Z" fill="#F6E486"/>
<path d="M365.023 21.9694L368.395 17.2686L362.613 17.4515L359.184 12.7918L361.473 25.6584L366.984 27.4124L365.023 21.9694Z" fill="#F0CE46"/>
<path d="M350.717 45.4231L348.938 40.6666L344.011 39.4357L347.985 36.2738L347.633 31.2076L351.106 34.7716L355.816 32.8714L354.46 37.7652L357.57 40.4383L353.41 41.1176L350.717 45.4231Z" fill="#F6E486"/>
<path d="M355.221 37.0035L356.578 32.1097L351.868 34.0099L347.633 31.2076L353.41 41.1176L358.484 40.8953L355.221 37.0035Z" fill="#F0CE46"/>
<path d="M377.875 39.3552L374.359 36.7629L369.41 37.9031L371.515 33.2816L368.902 28.9274L373.947 29.5014L377.281 25.6702L377.38 30.5702L382.054 32.5566L377.634 35.058L377.875 39.3552Z" fill="#F6E486"/>
<path d="M378.548 35.1342L382.968 32.6328L378.294 30.6464L377.281 25.6702L374.359 36.7629L378.103 40.1931L378.548 35.1342Z" fill="#F0CE46"/>
<path d="M804.473 151.789L800.453 120.277L802.217 120.066L803.748 121.745L807.453 150.141L806.224 151.58L804.473 151.789Z" fill="#ECF4F9"/>
<path d="M806.224 151.58L802.217 120.066L804.117 119.839L808.137 151.351L806.224 151.58Z" fill="#CDDFF8"/>
<path d="M816.712 151.213H815.287L813.542 150.632L818.586 136.415L820.313 136.989L821.511 137.661L816.712 151.213Z" fill="#ECF4F9"/>
<path d="M817.033 151.794L815.304 151.218L820.313 136.989L822.077 137.576L817.033 151.794Z" fill="#CDDFF8"/>
<path d="M794.742 152.853L788.709 143.203L790.147 142.36L791.826 142.277L797.117 150.935L796.033 152.096L794.742 152.853Z" fill="#ECF4F9"/>
<path d="M796.033 152.096L790.147 142.36L791.867 141.352L797.9 151.002L796.033 152.096Z" fill="#CDDFF8"/>
<path d="M778.537 102.723C781.595 102.723 784.074 100.322 784.074 97.3613C784.074 94.4003 781.595 92 778.537 92C775.479 92 773 94.4003 773 97.3613C773 100.322 775.479 102.723 778.537 102.723Z" fill="#E17D46"/>
<path d="M829.232 105.105C832.97 105.105 836 102.172 836 98.5527C836 94.9338 832.97 92 829.232 92C825.495 92 822.465 94.9338 822.465 98.5527C822.465 102.172 825.495 105.105 829.232 105.105Z" fill="#8DC5E8"/>
<path d="M830.463 153C833.521 153 836 150.6 836 147.639C836 144.678 833.521 142.277 830.463 142.277C827.405 142.277 824.926 144.678 824.926 147.639C824.926 150.6 827.405 153 830.463 153Z" fill="#ADE993"/>
<path d="M780.514 115.601L783.124 113.074L785.734 115.601L783.124 118.127L780.514 115.601Z" fill="#ADE993"/>
<path d="M816.328 109.575L818.938 107.048L821.548 109.575L818.938 112.102L816.328 109.575Z" fill="#E17D46"/>
<path d="M793.84 120.474L793.783 111.425L786.053 106.341L794.923 103.493L797.528 94.8025L800.729 103.163L810.07 102.877L804.623 110.23L807.79 115.645L801.223 114.926L793.84 120.474Z" fill="#F6E486"/>
<path d="M806.961 109.157L812.408 101.805L803.067 102.091L797.528 94.8025L801.225 114.927L810.128 117.671L806.961 109.157Z" fill="#F0CE46"/>
<path d="M783.851 145.841L780.976 138.402L773.018 136.476L779.437 131.531L778.868 123.607L784.479 129.181L792.087 126.209L789.896 133.864L794.92 138.045L788.201 139.107L783.851 145.841Z" fill="#F6E486"/>
<path d="M791.127 132.672L793.318 125.018L785.71 127.99L778.869 123.607L788.201 139.107L796.397 138.759L791.127 132.672Z" fill="#F0CE46"/>
<path d="M827.721 136.35L822.041 132.296L814.047 134.079L817.447 126.851L813.226 120.04L821.376 120.938L826.761 114.946L826.921 122.61L834.471 125.717L827.332 129.629L827.721 136.35Z" fill="#F6E486"/>
<path d="M828.809 129.748L835.948 125.836L828.398 122.729L826.761 114.946L822.041 132.296L828.09 137.661L828.809 129.748Z" fill="#F0CE46"/>
<path d="M327.76 68.0005C336.771 68.0478 344.066 75.9039 344.11 85.6095C344.11 103.391 314.055 121 314.055 121C314.055 121 284 103.132 284 85.6095C284 75.8844 291.32 68.0005 300.35 68.0005C305.877 67.9541 311.045 70.9484 314.055 75.9418C317.085 70.9726 322.24 67.9862 327.76 68.0005Z" fill="#6F69C9"/>
<path d="M1067.71 64.0006C1077.75 64.0532 1085.87 72.7987 1085.91 83.6031C1085.91 103.398 1052.46 123 1052.46 123C1052.46 123 1019 103.109 1019 83.6031C1019 72.777 1027.15 64.0006 1037.2 64.0006C1043.35 63.9489 1049.11 67.2821 1052.46 72.8408C1055.83 67.3092 1061.57 63.9846 1067.71 64.0006Z" fill="#47915A"/>
<path d="M180.603 39.1379C171.034 39.1379 168.177 45.9717 165.293 48.7069C162.409 45.9717 159.552 39.1379 149.983 39.1379C141.101 39.1379 136.586 49.3937 136.586 58.2759C136.586 73.5862 165.293 90.8104 165.293 90.8104C165.293 90.8104 194 73.5862 194 58.2759C194 49.3937 189.486 39.1379 180.603 39.1379Z" fill="#DD3E46"/>
<path d="M127.017 20C117.448 20 114.591 26.8338 111.707 29.569C108.823 26.8338 105.966 20 96.3966 20C87.5144 20 83 30.2558 83 39.1379C83 54.4483 111.707 71.6724 111.707 71.6724C111.707 71.6724 140.414 54.4483 140.414 39.1379C140.414 30.2558 135.899 20 127.017 20Z" fill="#8B1391"/>
<path d="M153.81 79.3276C144.241 79.3276 141.384 86.1614 138.5 88.8965C135.616 86.1614 132.759 79.3276 123.19 79.3276C114.308 79.3276 109.793 89.5834 109.793 98.4655C109.793 113.776 138.5 131 138.5 131C138.5 131 167.207 113.776 167.207 98.4655C167.207 89.5834 162.692 79.3276 153.81 79.3276Z" fill="#8B1391"/>
<path d="M114.683 61.782L112.558 58.5973C112.721 58.488 128.931 47.5435 128.931 37.2241H132.759C132.759 49.589 115.42 61.2904 114.683 61.782Z" fill="white"/>
<path d="M132.759 31.4827H128.931C128.981 30.9576 128.792 30.438 128.416 30.067C128.04 29.696 127.519 29.5129 126.994 29.569L127.017 25.7414C128.553 25.6965 130.04 26.2871 131.126 27.3739C132.213 28.4597 132.803 29.9465 132.759 31.4827Z" fill="white"/>
<path d="M168.269 80.9199L166.144 77.7352C166.307 77.6259 182.517 66.6814 182.517 56.3621H186.345C186.345 68.727 169.006 80.4284 168.269 80.9199Z" fill="white"/>
<path d="M186.345 50.6207H182.517C182.567 50.0955 182.378 49.5759 182.002 49.205C181.627 48.834 181.105 48.6508 180.58 48.7069L180.603 44.8793C182.14 44.8344 183.626 45.425 184.712 46.5118C185.799 47.5977 186.39 49.0844 186.345 50.6207Z" fill="white"/>
<path d="M141.476 121.11L139.351 117.925C139.514 117.816 155.724 106.871 155.724 96.5517H159.552C159.552 108.917 142.213 120.618 141.476 121.11Z" fill="white"/>
<path d="M159.552 90.8103H155.724C155.774 90.2851 155.585 89.7656 155.209 89.3946C154.834 89.0236 154.312 88.8405 153.787 88.8965L153.81 85.0689C155.347 85.0241 156.833 85.6147 157.919 86.7015C159.006 87.7873 159.597 89.2741 159.552 90.8103Z" fill="white"/>
<path d="M634.987 114.76C645.815 103.933 659.974 97.6859 659.974 84.3597C659.974 77.0719 654.144 71.0332 646.856 71.0332C641.65 71.0332 637.069 74.1566 634.987 78.5293C632.905 74.1566 628.324 71.0332 623.118 71.0332C615.83 71.0332 610 77.0717 610 84.3597C610 97.8942 624.784 104.141 634.987 114.76Z" fill="#66C6B9"/>
<path d="M639.776 116.634C637.069 119.341 633.113 119.341 630.406 116.634C631.447 115.385 633.321 114.344 633.321 112.678C634.362 112.678 635.612 112.678 636.653 112.678C636.653 114.344 638.735 115.177 639.776 116.634Z" fill="#66C6B9"/>
<path d="M653.519 78.9459C654.977 80.6116 655.601 82.694 654.768 83.3186C653.935 83.9433 652.061 83.3186 650.604 81.4446C649.146 79.7789 648.522 77.6966 649.355 77.0719C649.979 76.4472 651.853 77.28 653.519 78.9459Z" fill="white"/>
<path d="M637.069 113.928H633.113C632.696 113.928 632.488 113.719 632.488 113.303C632.488 112.887 632.696 112.678 633.113 112.678H637.069C637.486 112.678 637.694 112.887 637.694 113.303C637.694 113.511 637.486 113.928 637.069 113.928Z" fill="#415A6B"/>
<path d="M631.239 118.3C631.031 118.3 630.614 118.092 630.614 117.884C630.614 117.468 630.823 117.259 631.031 117.051C631.655 116.843 632.072 116.635 632.072 115.593C632.28 114.136 633.737 113.095 633.946 112.886C634.154 112.678 634.57 112.678 634.779 113.095C634.987 113.303 634.987 113.719 634.57 113.928C634.154 114.136 633.321 114.969 633.321 115.802C633.321 117.259 632.697 117.884 631.239 118.3Z" fill="#415A6B"/>
<path d="M638.319 127.046C634.779 121.007 636.236 113.303 636.236 113.303V113.095H634.987C634.779 113.719 633.529 121.215 637.277 127.67C640.609 133.709 635.612 144.537 635.612 144.745C635.403 145.161 635.612 145.37 635.82 145.578H636.028C636.236 145.578 636.445 145.37 636.653 145.162C636.861 144.745 642.067 133.709 638.319 127.046Z" fill="#415A6B"/>
<path d="M586.262 100.81C597.715 89.3571 612.499 82.9022 612.499 68.9511C612.499 61.2467 606.252 55 598.756 55C593.342 55 588.553 58.1234 586.471 62.9125C583.972 58.1234 579.183 55 573.769 55C566.273 55 560.026 61.2467 560.026 68.9511C560.026 83.1103 575.643 89.5654 586.262 100.81Z" fill="#F3705A"/>
<path d="M591.052 102.684C588.137 105.391 584.18 105.391 581.265 102.684C582.306 101.226 584.389 100.393 584.389 98.5191C585.638 98.5191 586.679 98.5191 587.929 98.5191C587.929 100.185 590.011 101.226 591.052 102.684Z" fill="#F3705A"/>
<path d="M605.627 63.1208C607.293 64.9948 607.709 67.0771 606.876 67.7018C606.043 68.5347 603.961 67.7018 602.504 65.8278C600.838 63.9537 600.421 61.8714 601.254 61.2467C602.087 60.4138 603.961 61.2467 605.627 63.1208Z" fill="white"/>
<path d="M588.345 99.7683H584.18C583.764 99.7683 583.555 99.56 583.555 99.1436C583.555 98.7272 583.764 98.5189 584.18 98.5189H588.345C588.761 98.5189 588.969 98.7272 588.969 99.1436C589.178 99.3519 588.761 99.7683 588.345 99.7683Z" fill="#415A6B"/>
<path d="M582.306 104.349C582.098 104.349 581.682 104.141 581.682 103.933C581.682 103.517 581.89 103.308 582.098 103.1C582.723 102.892 583.139 102.684 583.347 101.642C583.556 100.185 585.013 98.9353 585.221 98.7272C585.43 98.5189 585.846 98.5189 586.054 98.9355C586.263 99.1438 586.263 99.5602 585.846 99.7685C585.43 99.9768 584.597 100.81 584.388 101.642C584.388 103.308 583.764 103.933 582.306 104.349Z" fill="#415A6B"/>
<path d="M589.594 113.511C586.054 107.056 587.304 99.1436 587.512 99.1436V98.9353H586.262C586.054 99.56 584.805 107.472 588.553 114.136C592.093 120.383 586.887 131.835 586.679 132.043C586.47 132.459 586.679 132.876 587.095 132.876H587.303C587.512 132.876 587.72 132.668 587.928 132.46C588.136 132.252 593.55 120.383 589.594 113.511Z" fill="#415A6B"/>
<path d="M610 132.251C620.411 122.048 633.737 116.01 633.737 103.516C633.737 96.6449 628.115 91.0228 621.244 91.0228C616.246 91.0228 612.082 93.9379 610 98.1025C607.917 93.9381 603.753 91.0228 598.756 91.0228C591.884 91.0228 586.262 96.6449 586.262 103.516C586.262 116.218 600.422 122.048 610 132.251Z" fill="#FFD15C"/>
<path d="M614.372 133.709C611.874 136.208 608.126 136.208 605.627 133.709C606.668 132.46 608.542 131.627 608.542 129.961C609.583 129.961 610.624 129.961 611.665 129.961C611.666 131.627 613.54 132.46 614.372 133.709Z" fill="#FFD15C"/>
<path d="M627.491 98.1025C628.948 99.7682 629.365 101.642 628.74 102.267C628.115 102.892 626.241 102.267 624.784 100.601C623.326 98.9355 622.91 97.0614 623.534 96.4368C624.159 95.8121 626.033 96.4368 627.491 98.1025Z" fill="white"/>
<path d="M612.082 131.21H608.334C607.918 131.21 607.71 131.002 607.71 130.586C607.71 130.169 607.918 129.961 608.334 129.961H612.082C612.499 129.961 612.707 130.169 612.707 130.586C612.499 131.002 612.291 131.21 612.082 131.21Z" fill="#415A6B"/>
<path d="M606.46 135.375C606.252 135.375 605.836 135.166 605.836 134.958C605.836 134.542 606.044 134.334 606.252 134.125C606.877 133.917 607.293 133.709 607.293 132.876C607.501 131.418 608.959 130.377 608.959 130.377C609.167 130.169 609.583 130.169 609.792 130.586C610 130.794 610 131.21 609.583 131.419C609.167 131.627 608.334 132.46 608.334 133.084C608.334 134.334 607.71 135.167 606.46 135.375Z" fill="#415A6B"/>
<path d="M612.499 154.531C612.499 155.156 613.748 155.156 613.748 154.531C614.581 150.992 614.997 146.827 613.123 143.704C609.792 137.873 611.249 130.794 611.249 130.794V130.586H610C609.792 131.21 608.751 138.29 612.082 144.328C613.748 147.243 613.332 151.2 612.499 154.531Z" fill="#415A6B"/>
<path d="M496.08 40.5525C492.974 37.4449 488.844 35.7336 484.452 35.7336C480.059 35.7336 475.929 37.4449 472.823 40.5525L471.858 41.5178L470.893 40.5525C467.788 37.4449 463.657 35.7336 459.265 35.7336C454.873 35.7336 450.743 37.4449 447.638 40.5525C444.532 43.6598 442.821 47.7914 442.821 52.1855C442.821 53.5352 442.983 54.86 443.297 56.1384C444.108 55.9282 444.951 55.8183 445.812 55.8183C448.475 55.8183 450.979 56.8558 452.862 58.7401L453.447 59.3253L454.032 58.7401C455.915 56.8558 458.419 55.8183 461.083 55.8183C463.746 55.8183 466.25 56.8558 468.133 58.7401C470.016 60.6239 471.054 63.1293 471.054 65.7933C471.054 68.458 470.016 70.9631 468.133 72.847L462.393 78.5943L469.607 85.8175C470.204 86.4148 471.013 86.751 471.858 86.751C472.703 86.751 473.513 86.4148 474.11 85.8175L496.08 63.819C499.185 60.7116 500.896 56.58 500.896 52.1856C500.896 47.7915 499.185 43.6598 496.08 40.5525Z" fill="#FF8163"/>
<path d="M453.447 86.7515C452.935 86.7515 452.444 86.5477 452.082 86.1853L438.762 72.847C436.879 70.9632 435.841 68.4582 435.841 65.7935C435.841 63.1294 436.879 60.6242 438.762 58.7402C440.645 56.856 443.149 55.8185 445.812 55.8185C448.475 55.8185 450.979 56.856 452.862 58.7402L453.447 59.3255L454.032 58.7402C455.915 56.856 458.419 55.8185 461.083 55.8185C463.746 55.8185 466.25 56.856 468.133 58.7402C470.016 60.624 471.054 63.1294 471.054 65.7935C471.054 68.4582 470.016 70.9632 468.133 72.8472L454.812 86.1853C454.451 86.5474 453.96 86.7515 453.447 86.7515Z" fill="#E84731"/>
<g opacity="0.1">
<path opacity="0.1" d="M445.812 55.8185C447.432 55.8185 448.991 56.2043 450.389 56.929C448.931 54.439 448.153 51.5968 448.153 48.6345C448.153 44.2402 449.864 40.1087 452.97 37.0015C452.983 36.9879 452.997 36.9747 453.011 36.9611C451.025 37.7777 449.201 38.9879 447.638 40.5526C444.532 43.66 442.821 47.7915 442.821 52.1856C442.821 53.5354 442.983 54.8602 443.297 56.1385C444.108 55.9285 444.952 55.8185 445.812 55.8185Z" fill="black"/>
<path opacity="0.1" d="M474.939 82.2663L466.833 74.149L462.393 78.5943L469.607 85.8175C470.204 86.4148 471.013 86.751 471.858 86.751C472.703 86.751 473.513 86.4148 474.11 85.8175L476.757 83.1665C476.073 83.0727 475.433 82.7607 474.939 82.2663Z" fill="black"/>
</g>
<path opacity="0.1" d="M457.414 82.634L444.094 69.2957C442.211 67.4119 441.173 64.9067 441.173 62.2421C441.173 60.0091 441.905 57.8889 443.25 56.1515C441.568 56.5959 440.025 57.4765 438.762 58.7404C436.879 60.6242 435.841 63.1296 435.841 65.7936C435.841 68.4583 436.879 70.9634 438.762 72.8471L452.082 86.1854C452.444 86.5477 452.935 86.7516 453.447 86.7516C453.96 86.7516 454.451 86.5478 454.812 86.1854L457.973 83.021C457.767 82.926 457.577 82.7969 457.414 82.634Z" fill="black"/>
<path d="M495.758 47.6224C493.664 48.9713 492.571 50.065 491.222 52.1586C489.873 50.065 488.779 48.9713 486.686 47.6224C488.779 46.2735 489.873 45.1798 491.222 43.0862C492.571 45.1798 493.664 46.2733 495.758 47.6224Z" fill="#FFC529"/>
<path d="M484.796 58.5163L487.881 61.6021L490.967 58.5165L487.881 55.4307L484.796 58.5163Z" fill="#FFED84"/>
<path d="M484.452 34.448C479.716 34.448 475.263 36.2932 471.914 39.6439L471.858 39.6995L471.803 39.6439C468.454 36.2934 464.001 34.448 459.265 34.448C454.529 34.448 450.077 36.2932 446.728 39.6437C443.379 42.9938 441.535 47.448 441.535 52.1858C441.535 53.2304 441.627 54.2604 441.802 55.2682C440.338 55.826 438.993 56.6895 437.852 57.8313C435.726 59.9582 434.556 62.7857 434.556 65.7933C434.556 68.8012 435.727 71.6288 437.852 73.7554L451.173 87.0939C451.78 87.702 452.588 88.037 453.447 88.037C454.307 88.037 455.115 87.702 455.722 87.0937L462.393 80.4139L468.698 86.7265C469.542 87.5716 470.665 88.037 471.859 88.037C473.052 88.037 474.175 87.5716 475.02 86.7264L490.132 71.5945C490.633 71.092 490.633 70.2779 490.131 69.7764C489.628 69.2744 488.814 69.2752 488.312 69.7775L473.201 84.909C472.842 85.2682 472.366 85.4659 471.859 85.4659C471.352 85.4659 470.876 85.2682 470.517 84.9094L464.211 78.5946L469.043 73.7561C471.169 71.629 472.34 68.8012 472.34 65.7935C472.34 63.8585 471.844 61.9539 470.906 60.2847C470.558 59.6657 469.774 59.4457 469.155 59.7938C468.536 60.1418 468.316 60.9257 468.664 61.5446C469.387 62.8295 469.769 64.2987 469.769 65.7933C469.769 68.1143 468.865 70.2966 467.224 71.9386L453.904 85.2765C453.782 85.3986 453.62 85.4655 453.448 85.4655C453.279 85.4655 453.113 85.3966 452.993 85.2765L439.672 71.9379C438.031 70.2965 437.128 68.1143 437.128 65.7931C437.128 63.4723 438.032 61.2903 439.672 59.6488C441.312 58.0077 443.493 57.1039 445.813 57.1039C448.132 57.1039 450.314 58.0077 451.954 59.649L452.539 60.2342C452.78 60.4754 453.107 60.6109 453.448 60.6109C453.789 60.6109 454.116 60.4752 454.358 60.234L454.942 59.6488C456.583 58.0077 458.764 57.1039 461.083 57.1039C462.693 57.1039 464.26 57.5434 465.614 58.3752C466.218 58.7465 467.011 58.5576 467.382 57.9524C467.754 57.3475 467.565 56.5554 466.96 56.184C465.2 55.1035 463.168 54.5322 461.083 54.5322C458.227 54.5322 455.533 55.5894 453.448 57.5186C451.363 55.5894 448.669 54.5322 445.813 54.5322C445.303 54.5322 444.8 54.5686 444.304 54.6347C444.175 53.8323 444.107 53.014 444.107 52.1853C444.107 48.1341 445.684 44.3255 448.548 41.461C451.41 38.5965 455.217 37.019 459.266 37.019C463.315 37.019 467.121 38.5965 469.985 41.4612L470.95 42.4265C471.191 42.6677 471.518 42.8032 471.859 42.8032C472.2 42.8032 472.527 42.6675 472.768 42.4264L473.733 41.4612C476.597 38.5965 480.404 37.019 484.453 37.019C488.501 37.019 492.308 38.5965 495.171 41.461C498.034 44.326 499.611 48.1347 499.611 52.1853C499.611 56.2362 498.034 60.0449 495.171 62.9101L492.422 65.6627C491.92 66.1652 491.92 66.9793 492.423 67.4808C492.925 67.9829 493.739 67.982 494.241 67.4797L496.99 64.7274C500.338 61.3767 502.182 56.9224 502.182 52.1851C502.182 47.448 500.338 42.9938 496.99 39.6432C493.64 36.2932 489.188 34.448 484.452 34.448Z" fill="black"/>
<path d="M500.733 36.5895C499.411 35.2659 497.932 34.1174 496.34 33.1752C495.729 32.8139 494.94 33.0157 494.578 33.6272C494.217 34.2383 494.419 35.027 495.03 35.3883C496.437 36.2205 497.744 37.2363 498.914 38.4072C500.283 39.7759 501.433 41.3235 502.334 43.0065C502.566 43.4393 503.009 43.6859 503.468 43.6859C503.673 43.6859 503.881 43.6368 504.074 43.5333C504.7 43.1983 504.936 42.4191 504.601 41.7931C503.581 39.8877 502.28 38.1368 500.733 36.5895Z" fill="black"/>
<path d="M509.886 41.3527C508.577 38.4459 506.757 35.8154 504.478 33.5351C502.169 31.2251 499.503 29.3881 496.553 28.0745C495.905 27.7856 495.145 28.0773 494.856 28.7261C494.567 29.3747 494.859 30.1348 495.508 30.4235C498.168 31.6082 500.574 33.2666 502.659 35.353C504.718 37.4124 506.361 39.7864 507.542 42.4086C507.756 42.8847 508.225 43.1666 508.715 43.1666C508.891 43.1666 509.071 43.13 509.242 43.0527C509.889 42.7615 510.178 42.0001 509.886 41.3527Z" fill="black"/>
<path d="M435.926 54.7767C435.424 54.2746 434.61 54.2748 434.108 54.7772C432.684 56.2017 431.567 57.8558 430.786 59.6933C430.508 60.3469 430.813 61.1018 431.467 61.3795C431.631 61.4491 431.801 61.4822 431.969 61.4822C432.469 61.4822 432.945 61.1884 433.153 60.699C433.804 59.1663 434.737 57.7854 435.927 56.5951C436.429 56.0928 436.429 55.2789 435.926 54.7767Z" fill="black"/>
<path d="M434.094 51.9008C434.658 51.4695 434.766 50.6626 434.334 50.0984C433.903 49.5347 433.096 49.4268 432.532 49.8584C431.827 50.3972 431.15 50.9911 430.518 51.6231C428.581 53.5606 427.092 55.8201 426.091 58.3393C425.829 58.9993 426.152 59.7468 426.812 60.0088C426.967 60.0705 427.128 60.0998 427.286 60.0998C427.797 60.0998 428.281 59.7927 428.481 59.2886C429.352 57.097 430.649 55.1296 432.337 53.441C432.888 52.8888 433.48 52.3707 434.094 51.9008Z" fill="black"/>
<path d="M490.141 52.8548C490.378 53.2222 490.785 53.4441 491.222 53.4441C491.659 53.4441 492.066 53.2222 492.303 52.8548C493.549 50.92 494.519 49.9499 496.454 48.7031C496.822 48.4663 497.044 48.0591 497.044 47.6222C497.044 47.1853 496.822 46.7781 496.454 46.5414C494.519 45.2947 493.549 44.3242 492.303 42.3896C492.066 42.0223 491.659 41.8003 491.222 41.8003C490.785 41.8003 490.378 42.0223 490.141 42.3896C488.894 44.3244 487.924 45.2945 485.989 46.5414C485.622 46.7781 485.4 47.1853 485.4 47.6222C485.4 48.0591 485.622 48.4663 485.989 48.7031C487.924 49.9499 488.894 50.92 490.141 52.8548ZM491.222 45.3162C491.918 46.2047 492.64 46.9261 493.528 47.6224C492.639 48.3188 491.918 49.0402 491.222 49.9286C490.525 49.04 489.804 48.3187 488.916 47.6224C489.804 46.9258 490.525 46.2044 491.222 45.3162Z" fill="black"/>
<path d="M483.514 58.5147C483.514 58.8556 483.65 59.1827 483.891 59.4239L486.977 62.5096C487.228 62.7606 487.557 62.8861 487.886 62.8861C488.215 62.8861 488.544 62.7606 488.795 62.5094L491.881 59.4238C492.383 58.9217 492.383 58.1075 491.881 57.6056L488.795 54.5199C488.293 54.0181 487.479 54.0181 486.977 54.5199L483.891 57.6056C483.65 57.8466 483.514 58.1736 483.514 58.5147ZM487.886 57.2471L489.153 58.5147L487.886 59.7822L486.618 58.5147L487.886 57.2471Z" fill="black"/>
</svg>
